<svg width="34" height="34" viewBox="0 0 34 34" fill="none" xmlns="http://www.w3.org/2000/svg">
<path d="M17 0.75C8.03984 0.75 0.75 8.03984 0.75 17C0.75 25.9602 8.03984 33.25 17 33.25C25.9602 33.25 33.25 25.9602 33.25 17C33.25 8.03984 25.9602 0.75 17 0.75ZM23.25 18.25H18.25V23.25C18.25 23.5815 18.1183 23.8995 17.8839 24.1339C17.6495 24.3683 17.3315 24.5 17 24.5C16.6685 24.5 16.3505 24.3683 16.1161 24.1339C15.8817 23.8995 15.75 23.5815 15.75 23.25V18.25H10.75C10.4185 18.25 10.1005 18.1183 9.86612 17.8839C9.6317 17.6495 9.5 17.3315 9.5 17C9.5 16.6685 9.6317 16.3505 9.86612 16.1161C10.1005 15.8817 10.4185 15.75 10.75 15.75H15.75V10.75C15.75 10.4185 15.8817 10.1005 16.1161 9.86612C16.3505 9.6317 16.6685 9.5 17 9.5C17.3315 9.5 17.6495 9.6317 17.8839 9.86612C18.1183 10.1005 18.25 10.4185 18.25 10.75V15.75H23.25C23.5815 15.75 23.8995 15.8817 24.1339 16.1161C24.3683 16.3505 24.5 16.6685 24.5 17C24.5 17.3315 24.3683 17.6495 24.1339 17.8839C23.8995 18.1183 23.5815 18.25 23.25 18.25Z" fill="#595966"/>
</svg>
