<svg width="16" height="16" viewBox="0 0 16 16" fill="none" xmlns="http://www.w3.org/2000/svg">
<path d="M5.83186 14.5H4.99998C4.9164 14.5 4.83415 14.479 4.76077 14.439C4.68738 14.399 4.6252 14.3412 4.57991 14.2709C4.53462 14.2007 4.50766 14.1202 4.50151 14.0368C4.49535 13.9535 4.51019 13.8699 4.54467 13.7937L6.55905 9.34844L3.53436 9.28125L2.43123 10.6178C2.22092 10.8822 2.05311 11 1.62498 11H1.06498C0.976319 11.0029 0.888273 10.9843 0.808306 10.9459C0.728339 10.9075 0.65881 10.8504 0.605609 10.7794C0.531234 10.6791 0.458109 10.5091 0.529359 10.2666L1.14873 8.04781C1.15342 8.03125 1.15905 8.01469 1.1653 7.99844C1.16561 7.99689 1.16561 7.9953 1.1653 7.99375C1.15884 7.97751 1.15331 7.96092 1.14873 7.94406L0.528734 5.71125C0.461547 5.47344 0.534984 5.30719 0.608734 5.20937C0.658258 5.14366 0.722509 5.09049 0.796323 5.05412C0.870136 5.01776 0.951453 4.99922 1.03373 5H1.62498C1.94467 5 2.25498 5.14344 2.43748 5.375L3.5178 6.68906L6.55905 6.64406L4.5453 2.20656C4.51077 2.13045 4.49587 2.0469 4.50196 1.96355C4.50806 1.8802 4.53494 1.7997 4.58017 1.72942C4.6254 1.65914 4.68752 1.60132 4.76086 1.56124C4.8342 1.52116 4.91641 1.50011 4.99998 1.5H5.84092C5.95824 1.50236 6.07352 1.53111 6.17821 1.58413C6.28289 1.63715 6.37429 1.71307 6.44561 1.80625L10.3534 6.55625L12.1587 6.50875C12.2909 6.50156 12.6572 6.49906 12.7419 6.49906C14.4687 6.5 15.5 7.06063 15.5 8C15.5 8.29563 15.3819 8.84375 14.5915 9.1925C14.125 9.39875 13.5025 9.50313 12.7412 9.50313C12.6575 9.50313 12.2922 9.50063 12.1581 9.49344L10.3531 9.44531L6.43561 14.1953C6.36423 14.2881 6.27291 14.3636 6.16841 14.4164C6.06391 14.4691 5.94889 14.4977 5.83186 14.5Z" fill="#72727E"/>
</svg>
