<svg width="16" height="16" viewBox="0 0 16 16" fill="none" xmlns="http://www.w3.org/2000/svg">
<path d="M5.83192 14.5H5.00004C4.91646 14.5 4.83421 14.479 4.76083 14.439C4.68744 14.399 4.62526 14.3412 4.57997 14.2709C4.53468 14.2007 4.50773 14.1202 4.50157 14.0368C4.49541 13.9535 4.51025 13.8699 4.54473 13.7937L6.55911 9.34844L3.53442 9.28125L2.4313 10.6178C2.22098 10.8822 2.05317 11 1.62505 11H1.06505C0.97638 11.0029 0.888334 10.9843 0.808367 10.9459C0.728401 10.9075 0.658871 10.8504 0.60567 10.7794C0.531295 10.6791 0.45817 10.5091 0.52942 10.2666L1.1488 8.04781C1.15348 8.03125 1.15911 8.01469 1.16536 7.99844C1.16567 7.99689 1.16567 7.9953 1.16536 7.99375C1.1589 7.97751 1.15337 7.96092 1.1488 7.94406L0.528795 5.71125C0.461608 5.47344 0.535045 5.30719 0.608795 5.20937C0.658319 5.14366 0.72257 5.09049 0.796384 5.05412C0.870198 5.01776 0.951514 4.99922 1.0338 5H1.62505C1.94473 5 2.25505 5.14344 2.43755 5.375L3.51786 6.68906L6.55911 6.64406L4.54536 2.20656C4.51083 2.13045 4.49593 2.0469 4.50202 1.96355C4.50812 1.8802 4.53501 1.7997 4.58023 1.72942C4.62546 1.65914 4.68758 1.60132 4.76092 1.56124C4.83426 1.52116 4.91647 1.50011 5.00004 1.5H5.84098C5.9583 1.50236 6.07358 1.53111 6.17827 1.58413C6.28295 1.63715 6.37435 1.71307 6.44567 1.80625L10.3535 6.55625L12.1588 6.50875C12.291 6.50156 12.6572 6.49906 12.7419 6.49906C14.4688 6.5 15.5 7.06063 15.5 8C15.5 8.29563 15.3819 8.84375 14.5916 9.1925C14.125 9.39875 13.5025 9.50313 12.7413 9.50313C12.6575 9.50313 12.2922 9.50063 12.1582 9.49344L10.3532 9.44531L6.43567 14.1953C6.36429 14.2881 6.27297 14.3636 6.16847 14.4164C6.06397 14.4691 5.94895 14.4977 5.83192 14.5Z" fill="#72727E"/>
</svg>
