<svg width="24" height="24" viewBox="0 0 24 24" fill="none" xmlns="http://www.w3.org/2000/svg">
<path d="M11.9824 15.9787C11.8508 15.9795 11.7203 15.9542 11.5985 15.9045C11.4766 15.8547 11.3658 15.7814 11.2724 15.6887L7.27236 11.6887C7.17912 11.5955 7.10516 11.4848 7.0547 11.363C7.00424 11.2411 6.97827 11.1106 6.97827 10.9787C6.97827 10.8468 7.00424 10.7163 7.0547 10.5945C7.10516 10.4726 7.17912 10.3619 7.27236 10.2687C7.3656 10.1755 7.47629 10.1015 7.59811 10.051C7.71994 10.0006 7.8505 9.97461 7.98236 9.97461C8.11422 9.97461 8.24479 10.0006 8.36661 10.051C8.48843 10.1015 8.59912 10.1755 8.69236 10.2687L11.9824 13.5787L15.2824 10.3987C15.3744 10.2964 15.4865 10.2142 15.6117 10.1572C15.7369 10.1002 15.8725 10.0697 16.0101 10.0675C16.1476 10.0653 16.2841 10.0916 16.4111 10.1446C16.5381 10.1975 16.6527 10.2762 16.7479 10.3755C16.8431 10.4748 16.9167 10.5927 16.9643 10.7218C17.0118 10.8509 17.0322 10.9884 17.0242 11.1257C17.0162 11.2631 16.9799 11.3973 16.9176 11.52C16.8554 11.6426 16.7685 11.7511 16.6624 11.8387L12.6624 15.6987C12.4795 15.875 12.2364 15.9751 11.9824 15.9787Z" fill="white" fill-opacity="0.8"/>
</svg>
