<svg width="7" height="12" viewBox="0 0 7 12" fill="none" xmlns="http://www.w3.org/2000/svg">
<path d="M6.5 5.99981C6.50076 6.13142 6.47554 6.26188 6.42577 6.38372C6.37601 6.50556 6.30268 6.61637 6.21 6.70981L2.21 10.7098C2.11676 10.8031 2.00607 10.877 1.88425 10.9275C1.76243 10.9779 1.63186 11.0039 1.5 11.0039C1.36814 11.0039 1.23757 10.9779 1.11575 10.9275C0.99393 10.877 0.88324 10.8031 0.790002 10.7098C0.696763 10.6166 0.622802 10.5059 0.572342 10.3841C0.521882 10.2622 0.495911 10.1317 0.495911 9.99981C0.495911 9.86796 0.521882 9.73739 0.572342 9.61556C0.622802 9.49374 0.696763 9.38305 0.790002 9.28981L4.1 5.99981L0.920002 2.69981C0.817712 2.60782 0.735503 2.49572 0.678517 2.3705C0.621531 2.24529 0.590994 2.10967 0.588814 1.97211C0.586635 1.83456 0.61286 1.69803 0.665851 1.57108C0.718842 1.44412 0.797459 1.32947 0.896783 1.23428C0.996108 1.1391 1.114 1.06543 1.2431 1.01789C1.37219 0.970342 1.50971 0.949947 1.64704 0.957975C1.78438 0.966003 1.91858 1.00228 2.04126 1.06454C2.16393 1.1268 2.27244 1.2137 2.36 1.31981L6.22 5.31981C6.39632 5.50269 6.49643 5.74581 6.5 5.99981Z" fill="#72727E"/>
</svg>
