<svg width="40" height="40" viewBox="0 0 40 40" fill="none" xmlns="http://www.w3.org/2000/svg">
<path d="M33.75 18.0234C32.962 17.6775 32.1106 17.4993 31.25 17.5H8.75C7.88946 17.4992 7.03813 17.6772 6.25 18.0227C5.1361 18.5098 4.18823 19.3109 3.52226 20.328C2.85629 21.3451 2.50106 22.5342 2.5 23.75V32.5C2.5 32.8315 2.6317 33.1495 2.86612 33.3839C3.10054 33.6183 3.41848 33.75 3.75 33.75C4.08152 33.75 4.39946 33.6183 4.63388 33.3839C4.8683 33.1495 5 32.8315 5 32.5V31.875C5.00203 31.7099 5.06852 31.5521 5.1853 31.4353C5.30207 31.3185 5.45987 31.252 5.625 31.25H34.375C34.5401 31.252 34.6979 31.3185 34.8147 31.4353C34.9315 31.5521 34.998 31.7099 35 31.875V32.5C35 32.8315 35.1317 33.1495 35.3661 33.3839C35.6005 33.6183 35.9185 33.75 36.25 33.75C36.5815 33.75 36.8995 33.6183 37.1339 33.3839C37.3683 33.1495 37.5 32.8315 37.5 32.5V23.75C37.4988 22.5344 37.1435 21.3454 36.4775 20.3285C35.8116 19.3115 34.8638 18.5105 33.75 18.0234Z" fill="#2B2B34"/>
<path d="M29.375 6.25H10.625C9.46468 6.25 8.35188 6.71094 7.53141 7.53141C6.71094 8.35188 6.25 9.46468 6.25 10.625V16.25C6.25004 16.2984 6.26132 16.3462 6.28298 16.3895C6.30463 16.4328 6.33605 16.4705 6.37477 16.4996C6.41348 16.5287 6.45842 16.5484 6.50605 16.5571C6.55368 16.5659 6.60269 16.5634 6.64922 16.55C7.33161 16.3504 8.03902 16.2494 8.75 16.25H9.08047C9.1576 16.2505 9.23219 16.2224 9.28988 16.1712C9.34758 16.12 9.38429 16.0493 9.39297 15.9727C9.46115 15.3619 9.75192 14.7976 10.2098 14.3876C10.6676 13.9776 11.2604 13.7506 11.875 13.75H16.25C16.865 13.75 17.4584 13.9768 17.9167 14.3868C18.375 14.7969 18.6661 15.3615 18.7344 15.9727C18.7431 16.0493 18.7798 16.12 18.8375 16.1712C18.8951 16.2224 18.9697 16.2505 19.0469 16.25H20.9578C21.0349 16.2505 21.1095 16.2224 21.1672 16.1712C21.2249 16.12 21.2616 16.0493 21.2703 15.9727C21.3384 15.3623 21.6289 14.7983 22.0862 14.3884C22.5436 13.9784 23.1358 13.7512 23.75 13.75H28.125C28.74 13.75 29.3334 13.9768 29.7917 14.3868C30.25 14.7969 30.5411 15.3615 30.6094 15.9727C30.618 16.0493 30.6548 16.12 30.7125 16.1712C30.7701 16.2224 30.8447 16.2505 30.9219 16.25H31.25C31.961 16.2497 32.6684 16.3509 33.3508 16.5508C33.3974 16.5642 33.4464 16.5667 33.4941 16.5579C33.5418 16.5491 33.5868 16.5293 33.6255 16.5001C33.6643 16.471 33.6957 16.4332 33.7173 16.3898C33.7389 16.3463 33.7501 16.2985 33.75 16.25V10.625C33.75 9.46468 33.2891 8.35188 32.4686 7.53141C31.6481 6.71094 30.5353 6.25 29.375 6.25Z" fill="#2B2B34"/>
</svg>
