<svg width="16" height="16" viewBox="0 0 16 16" fill="none" xmlns="http://www.w3.org/2000/svg">
<path d="M10.6666 6.00016V4.75016C10.6666 3.96776 10.0323 3.3335 9.24992 3.3335H6.74992C5.96752 3.3335 5.33325 3.96776 5.33325 4.75016V6.00016" stroke="#595966" stroke-width="1.25"/>
<path fill-rule="evenodd" clip-rule="evenodd" d="M4.87516 5.3335C2.91915 5.3335 1.3335 6.91915 1.3335 8.87516V12.5835C1.3335 13.3659 1.96776 14.0002 2.75016 14.0002H13.2502C14.0326 14.0002 14.6668 13.3659 14.6668 12.5835V8.87516C14.6668 6.91915 13.0812 5.3335 11.1252 5.3335H4.87516ZM10.3336 11.2917C10.6788 11.2917 10.9586 11.0119 10.9586 10.6667C10.9586 10.3216 10.6788 10.0417 10.3336 10.0417L5.66695 10.0417C5.32177 10.0417 5.04195 10.3216 5.04195 10.6667C5.04195 11.0119 5.32177 11.2917 5.66695 11.2917L10.3336 11.2917Z" fill="#595966"/>
</svg>
