<svg width="14" height="14" viewBox="0 0 14 14" fill="none" xmlns="http://www.w3.org/2000/svg">
<path d="M5.59006 7.00019L1.29006 2.71019C1.10176 2.52188 0.99597 2.26649 0.99597 2.00019C0.99597 1.73388 1.10176 1.47849 1.29006 1.29019C1.47837 1.10188 1.73376 0.996094 2.00006 0.996094C2.26636 0.996094 2.52176 1.10188 2.71006 1.29019L7.00006 5.59019L11.2901 1.29019C11.4784 1.10188 11.7338 0.996094 12.0001 0.996094C12.2664 0.996094 12.5218 1.10188 12.7101 1.29019C12.8984 1.47849 13.0042 1.73388 13.0042 2.00019C13.0042 2.26649 12.8984 2.52188 12.7101 2.71019L8.41006 7.00019L12.7101 11.2902C12.8038 11.3831 12.8782 11.4937 12.929 11.6156C12.9797 11.7375 13.0059 11.8682 13.0059 12.0002C13.0059 12.1322 12.9797 12.2629 12.929 12.3848C12.8782 12.5066 12.8038 12.6172 12.7101 12.7102C12.6171 12.8039 12.5065 12.8783 12.3846 12.9291C12.2628 12.9798 12.1321 13.006 12.0001 13.006C11.868 13.006 11.7373 12.9798 11.6155 12.9291C11.4936 12.8783 11.383 12.8039 11.2901 12.7102L7.00006 8.41019L2.71006 12.7102C2.6171 12.8039 2.5065 12.8783 2.38464 12.9291C2.26278 12.9798 2.13207 13.006 2.00006 13.006C1.86805 13.006 1.73734 12.9798 1.61548 12.9291C1.49362 12.8783 1.38303 12.8039 1.29006 12.7102C1.19633 12.6172 1.12194 12.5066 1.07117 12.3848C1.0204 12.2629 0.994263 12.1322 0.994263 12.0002C0.994263 11.8682 1.0204 11.7375 1.07117 11.6156C1.12194 11.4937 1.19633 11.3831 1.29006 11.2902L5.59006 7.00019Z" fill="white"/>
</svg>
