<svg width="34" height="34" viewBox="0 0 34 34" fill="none" xmlns="http://www.w3.org/2000/svg">
<path d="M28.9048 2.7141H27.7143V1.55711C27.7143 0.916479 27.2218 0.366626 26.5811 0.334631C26.4202 0.326876 26.2593 0.351882 26.1083 0.408133C25.9573 0.464384 25.8193 0.550711 25.7026 0.66188C25.5859 0.77305 25.4931 0.906749 25.4296 1.05488C25.3661 1.203 25.3334 1.36247 25.3334 1.52362V2.7141H8.66671V1.55711C8.66671 0.916479 8.17415 0.366626 7.53352 0.334631C7.37256 0.326876 7.2117 0.351882 7.06068 0.408133C6.90967 0.464384 6.77165 0.550711 6.65498 0.66188C6.53832 0.77305 6.44544 0.906749 6.38197 1.05488C6.3185 1.203 6.28577 1.36247 6.28576 1.52362V2.7141H5.09528C3.83234 2.7141 2.62113 3.2158 1.7281 4.10884C0.835073 5.00187 0.333374 6.21308 0.333374 7.47603V28.9047C0.333374 30.1676 0.835073 31.3788 1.7281 32.2719C2.62113 33.1649 3.83234 33.6666 5.09528 33.6666H28.9048C30.1677 33.6666 31.379 33.1649 32.272 32.2719C33.165 31.3788 33.6667 30.1676 33.6667 28.9047V7.47603C33.6667 6.21308 33.165 5.00187 32.272 4.10884C31.379 3.2158 30.1677 2.7141 28.9048 2.7141ZM8.07147 28.9047C7.71829 28.9047 7.37304 28.7999 7.07938 28.6037C6.78572 28.4075 6.55684 28.1286 6.42168 27.8023C6.28653 27.476 6.25117 27.117 6.32007 26.7706C6.38897 26.4242 6.55904 26.106 6.80878 25.8563C7.05852 25.6065 7.3767 25.4364 7.72309 25.3675C8.06949 25.2986 8.42854 25.334 8.75483 25.4692C9.08113 25.6043 9.36002 25.8332 9.55624 26.1269C9.75245 26.4205 9.85718 26.7658 9.85718 27.1189C9.85718 27.5926 9.66905 28.0468 9.33416 28.3816C8.99927 28.7165 8.54507 28.9047 8.07147 28.9047ZM8.07147 22.9523C7.71829 22.9523 7.37304 22.8475 7.07938 22.6513C6.78572 22.4551 6.55684 22.1762 6.42168 21.8499C6.28653 21.5236 6.25117 21.1646 6.32007 20.8182C6.38897 20.4718 6.55904 20.1536 6.80878 19.9039C7.05852 19.6541 7.3767 19.484 7.72309 19.4151C8.06949 19.3462 8.42854 19.3816 8.75483 19.5168C9.08113 19.6519 9.36002 19.8808 9.55624 20.1745C9.75245 20.4681 9.85718 20.8134 9.85718 21.1665C9.85718 21.6402 9.66905 22.0944 9.33416 22.4292C8.99927 22.7641 8.54507 22.9523 8.07147 22.9523ZM14.0239 28.9047C13.6707 28.9047 13.3254 28.7999 13.0318 28.6037C12.7381 28.4075 12.5092 28.1286 12.3741 27.8023C12.2389 27.476 12.2035 27.117 12.2724 26.7706C12.3414 26.4242 12.5114 26.106 12.7612 25.8563C13.0109 25.6065 13.3291 25.4364 13.6755 25.3675C14.0219 25.2986 14.3809 25.334 14.7072 25.4692C15.0335 25.6043 15.3124 25.8332 15.5086 26.1269C15.7048 26.4205 15.8096 26.7658 15.8096 27.1189C15.8096 27.5926 15.6214 28.0468 15.2865 28.3816C14.9517 28.7165 14.4975 28.9047 14.0239 28.9047ZM14.0239 22.9523C13.6707 22.9523 13.3254 22.8475 13.0318 22.6513C12.7381 22.4551 12.5092 22.1762 12.3741 21.8499C12.2389 21.5236 12.2035 21.1646 12.2724 20.8182C12.3414 20.4718 12.5114 20.1536 12.7612 19.9039C13.0109 19.6541 13.3291 19.484 13.6755 19.4151C14.0219 19.3462 14.3809 19.3816 14.7072 19.5168C15.0335 19.6519 15.3124 19.8808 15.5086 20.1745C15.7048 20.4681 15.8096 20.8134 15.8096 21.1665C15.8096 21.6402 15.6214 22.0944 15.2865 22.4292C14.9517 22.7641 14.4975 22.9523 14.0239 22.9523ZM19.9762 28.9047C19.6231 28.9047 19.2778 28.7999 18.9841 28.6037C18.6905 28.4075 18.4616 28.1286 18.3264 27.8023C18.1913 27.476 18.1559 27.117 18.2248 26.7706C18.2937 26.4242 18.4638 26.106 18.7135 25.8563C18.9633 25.6065 19.2815 25.4364 19.6279 25.3675C19.9743 25.2986 20.3333 25.334 20.6596 25.4692C20.9859 25.6043 21.2648 25.8332 21.461 26.1269C21.6572 26.4205 21.7619 26.7658 21.7619 27.1189C21.7619 27.5926 21.5738 28.0468 21.2389 28.3816C20.904 28.7165 20.4498 28.9047 19.9762 28.9047ZM19.9762 22.9523C19.6231 22.9523 19.2778 22.8475 18.9841 22.6513C18.6905 22.4551 18.4616 22.1762 18.3264 21.8499C18.1913 21.5236 18.1559 21.1646 18.2248 20.8182C18.2937 20.4718 18.4638 20.1536 18.7135 19.9039C18.9633 19.6541 19.2815 19.484 19.6279 19.4151C19.9743 19.3462 20.3333 19.3816 20.6596 19.5168C20.9859 19.6519 21.2648 19.8808 21.461 20.1745C21.6572 20.4681 21.7619 20.8134 21.7619 21.1665C21.7619 21.6402 21.5738 22.0944 21.2389 22.4292C20.904 22.7641 20.4498 22.9523 19.9762 22.9523ZM19.9762 16.9999C19.6231 16.9999 19.2778 16.8951 18.9841 16.6989C18.6905 16.5027 18.4616 16.2238 18.3264 15.8975C18.1913 15.5712 18.1559 15.2122 18.2248 14.8658C18.2937 14.5194 18.4638 14.2012 18.7135 13.9515C18.9633 13.7017 19.2815 13.5316 19.6279 13.4627C19.9743 13.3938 20.3333 13.4292 20.6596 13.5644C20.9859 13.6995 21.2648 13.9284 21.461 14.2221C21.6572 14.5157 21.7619 14.861 21.7619 15.2141C21.7619 15.6877 21.5738 16.142 21.2389 16.4768C20.904 16.8117 20.4498 16.9999 19.9762 16.9999ZM25.9286 22.9523C25.5754 22.9523 25.2302 22.8475 24.9365 22.6513C24.6429 22.4551 24.414 22.1762 24.2788 21.8499C24.1437 21.5236 24.1083 21.1646 24.1772 20.8182C24.2461 20.4718 24.4162 20.1536 24.6659 19.9039C24.9157 19.6541 25.2338 19.484 25.5802 19.4151C25.9266 19.3462 26.2857 19.3816 26.612 19.5168C26.9383 19.6519 27.2172 19.8808 27.4134 20.1745C27.6096 20.4681 27.7143 20.8134 27.7143 21.1665C27.7143 21.6402 27.5262 22.0944 27.1913 22.4292C26.8564 22.7641 26.4022 22.9523 25.9286 22.9523ZM25.9286 16.9999C25.5754 16.9999 25.2302 16.8951 24.9365 16.6989C24.6429 16.5027 24.414 16.2238 24.2788 15.8975C24.1437 15.5712 24.1083 15.2122 24.1772 14.8658C24.2461 14.5194 24.4162 14.2012 24.6659 13.9515C24.9157 13.7017 25.2338 13.5316 25.5802 13.4627C25.9266 13.3938 26.2857 13.4292 26.612 13.5644C26.9383 13.6995 27.2172 13.9284 27.4134 14.2221C27.6096 14.5157 27.7143 14.861 27.7143 15.2141C27.7143 15.6877 27.5262 16.142 27.1913 16.4768C26.8564 16.8117 26.4022 16.9999 25.9286 16.9999ZM31.2858 8.07127V9.26175C31.2858 9.41961 31.223 9.57101 31.1114 9.68264C30.9998 9.79427 30.8484 9.85699 30.6905 9.85699H3.30956C3.1517 9.85699 3.0003 9.79427 2.88867 9.68264C2.77704 9.57101 2.71433 9.41961 2.71433 9.26175V7.47603C2.71609 6.8451 2.96751 6.24052 3.41364 5.79438C3.85978 5.34825 4.46435 5.09683 5.09528 5.09506H28.9048C29.5357 5.09683 30.1403 5.34825 30.5864 5.79438C31.0326 6.24052 31.284 6.8451 31.2858 7.47603V8.07127Z" fill="#2B2B34"/>
</svg>
