<svg width="24" height="24" viewBox="0 0 24 24" fill="none" xmlns="http://www.w3.org/2000/svg">
<mask id="path-1-inside-1" fill="white">
<path d="M19.1429 3.42851H18.4286V2.73431C18.4286 2.34994 18.133 2.02002 17.7487 2.00083C17.6521 1.99617 17.5556 2.01118 17.465 2.04493C17.3743 2.07868 17.2915 2.13048 17.2215 2.19718C17.1515 2.26388 17.0958 2.3441 17.0577 2.43297C17.0196 2.52185 17 2.61753 17 2.71422V3.42851H7V2.73431C7 2.34994 6.70446 2.02002 6.32009 2.00083C6.22351 1.99617 6.12699 2.01118 6.03639 2.04493C5.94578 2.07868 5.86296 2.13048 5.79296 2.19718C5.72297 2.26388 5.66724 2.3441 5.62916 2.43297C5.59108 2.52185 5.57144 2.61753 5.57143 2.71422V3.42851H4.85714C4.09938 3.42851 3.37266 3.72953 2.83684 4.26535C2.30102 4.80117 2 5.5279 2 6.28566V19.1428C2 19.9006 2.30102 20.6273 2.83684 21.1632C3.37266 21.699 4.09938 22 4.85714 22H19.1429C19.9006 22 20.6273 21.699 21.1632 21.1632C21.699 20.6273 22 19.9006 22 19.1428V6.28566C22 5.5279 21.699 4.80117 21.1632 4.26535C20.6273 3.72953 19.9006 3.42851 19.1429 3.42851ZM6.64286 19.1428C6.43095 19.1428 6.2238 19.08 6.0476 18.9623C5.87141 18.8445 5.73408 18.6772 5.65299 18.4814C5.57189 18.2857 5.55067 18.0702 5.59202 17.8624C5.63336 17.6546 5.7354 17.4636 5.88524 17.3138C6.03508 17.164 6.22599 17.0619 6.43383 17.0206C6.64167 16.9792 6.8571 17.0004 7.05288 17.0815C7.24865 17.1626 7.41599 17.3 7.53372 17.4762C7.65145 17.6524 7.71429 17.8595 7.71429 18.0714C7.71429 18.3556 7.6014 18.6281 7.40047 18.829C7.19954 19.03 6.92702 19.1428 6.64286 19.1428ZM6.64286 15.5714C6.43095 15.5714 6.2238 15.5086 6.0476 15.3908C5.87141 15.2731 5.73408 15.1058 5.65299 14.91C5.57189 14.7142 5.55067 14.4988 5.59202 14.2909C5.63336 14.0831 5.7354 13.8922 5.88524 13.7424C6.03508 13.5925 6.22599 13.4905 6.43383 13.4491C6.64167 13.4078 6.8571 13.429 7.05288 13.5101C7.24865 13.5912 7.41599 13.7285 7.53372 13.9047C7.65145 14.0809 7.71429 14.2881 7.71429 14.5C7.71429 14.7841 7.6014 15.0567 7.40047 15.2576C7.19954 15.4585 6.92702 15.5714 6.64286 15.5714ZM10.2143 19.1428C10.0024 19.1428 9.79523 19.08 9.61903 18.9623C9.44284 18.8445 9.30551 18.6772 9.22441 18.4814C9.14332 18.2857 9.1221 18.0702 9.16344 17.8624C9.20479 17.6546 9.30683 17.4636 9.45667 17.3138C9.60651 17.164 9.79742 17.0619 10.0053 17.0206C10.2131 16.9792 10.4285 17.0004 10.6243 17.0815C10.8201 17.1626 10.9874 17.3 11.1051 17.4762C11.2229 17.6524 11.2857 17.8595 11.2857 18.0714C11.2857 18.3556 11.1728 18.6281 10.9719 18.829C10.771 19.03 10.4984 19.1428 10.2143 19.1428ZM10.2143 15.5714C10.0024 15.5714 9.79523 15.5086 9.61903 15.3908C9.44284 15.2731 9.30551 15.1058 9.22441 14.91C9.14332 14.7142 9.1221 14.4988 9.16344 14.2909C9.20479 14.0831 9.30683 13.8922 9.45667 13.7424C9.60651 13.5925 9.79742 13.4905 10.0053 13.4491C10.2131 13.4078 10.4285 13.429 10.6243 13.5101C10.8201 13.5912 10.9874 13.7285 11.1051 13.9047C11.2229 14.0809 11.2857 14.2881 11.2857 14.5C11.2857 14.7841 11.1728 15.0567 10.9719 15.2576C10.771 15.4585 10.4984 15.5714 10.2143 15.5714ZM13.7857 19.1428C13.5738 19.1428 13.3667 19.08 13.1905 18.9623C13.0143 18.8445 12.8769 18.6772 12.7958 18.4814C12.7148 18.2857 12.6935 18.0702 12.7349 17.8624C12.7762 17.6546 12.8783 17.4636 13.0281 17.3138C13.1779 17.164 13.3689 17.0619 13.5767 17.0206C13.7845 16.9792 14 17.0004 14.1957 17.0815C14.3915 17.1626 14.5588 17.3 14.6766 17.4762C14.7943 17.6524 14.8571 17.8595 14.8571 18.0714C14.8571 18.3556 14.7443 18.6281 14.5433 18.829C14.3424 19.03 14.0699 19.1428 13.7857 19.1428ZM13.7857 15.5714C13.5738 15.5714 13.3667 15.5086 13.1905 15.3908C13.0143 15.2731 12.8769 15.1058 12.7958 14.91C12.7148 14.7142 12.6935 14.4988 12.7349 14.2909C12.7762 14.0831 12.8783 13.8922 13.0281 13.7424C13.1779 13.5925 13.3689 13.4905 13.5767 13.4491C13.7845 13.4078 14 13.429 14.1957 13.5101C14.3915 13.5912 14.5588 13.7285 14.6766 13.9047C14.7943 14.0809 14.8571 14.2881 14.8571 14.5C14.8571 14.7841 14.7443 15.0567 14.5433 15.2576C14.3424 15.4585 14.0699 15.5714 13.7857 15.5714ZM13.7857 12C13.5738 12 13.3667 11.9371 13.1905 11.8194C13.0143 11.7017 12.8769 11.5343 12.7958 11.3386C12.7148 11.1428 12.6935 10.9273 12.7349 10.7195C12.7762 10.5117 12.8783 10.3208 13.0281 10.1709C13.1779 10.0211 13.3689 9.91903 13.5767 9.87769C13.7845 9.83635 14 9.85757 14.1957 9.93866C14.3915 10.0198 14.5588 10.1571 14.6766 10.3333C14.7943 10.5095 14.8571 10.7166 14.8571 10.9285C14.8571 11.2127 14.7443 11.4852 14.5433 11.6862C14.3424 11.8871 14.0699 12 13.7857 12ZM17.3571 15.5714C17.1452 15.5714 16.9381 15.5086 16.7619 15.3908C16.5857 15.2731 16.4484 15.1058 16.3673 14.91C16.2862 14.7142 16.265 14.4988 16.3063 14.2909C16.3476 14.0831 16.4497 13.8922 16.5995 13.7424C16.7494 13.5925 16.9403 13.4905 17.1481 13.4491C17.356 13.4078 17.5714 13.429 17.7672 13.5101C17.9629 13.5912 18.1303 13.7285 18.248 13.9047C18.3657 14.0809 18.4286 14.2881 18.4286 14.5C18.4286 14.7841 18.3157 15.0567 18.1148 15.2576C17.9138 15.4585 17.6413 15.5714 17.3571 15.5714ZM17.3571 12C17.1452 12 16.9381 11.9371 16.7619 11.8194C16.5857 11.7017 16.4484 11.5343 16.3673 11.3386C16.2862 11.1428 16.265 10.9273 16.3063 10.7195C16.3476 10.5117 16.4497 10.3208 16.5995 10.1709C16.7494 10.0211 16.9403 9.91903 17.1481 9.87769C17.356 9.83635 17.5714 9.85757 17.7672 9.93866C17.9629 10.0198 18.1303 10.1571 18.248 10.3333C18.3657 10.5095 18.4286 10.7166 18.4286 10.9285C18.4286 11.2127 18.3157 11.4852 18.1148 11.6862C17.9138 11.8871 17.6413 12 17.3571 12ZM20.5714 6.64281V7.3571C20.5714 7.45182 20.5338 7.54266 20.4668 7.60963C20.3998 7.67661 20.309 7.71424 20.2143 7.71424H3.78571C3.69099 7.71424 3.60015 7.67661 3.53318 7.60963C3.4662 7.54266 3.42857 7.45182 3.42857 7.3571V6.28566C3.42963 5.90711 3.58048 5.54436 3.84816 5.27668C4.11584 5.009 4.47859 4.85815 4.85714 4.85709H19.1429C19.5214 4.85815 19.8842 5.009 20.1518 5.27668C20.4195 5.54436 20.5704 5.90711 20.5714 6.28566V6.64281Z"/>
</mask>
<path d="M19.1429 3.42851H18.4286V2.73431C18.4286 2.34994 18.133 2.02002 17.7487 2.00083C17.6521 1.99617 17.5556 2.01118 17.465 2.04493C17.3743 2.07868 17.2915 2.13048 17.2215 2.19718C17.1515 2.26388 17.0958 2.3441 17.0577 2.43297C17.0196 2.52185 17 2.61753 17 2.71422V3.42851H7V2.73431C7 2.34994 6.70446 2.02002 6.32009 2.00083C6.22351 1.99617 6.12699 2.01118 6.03639 2.04493C5.94578 2.07868 5.86296 2.13048 5.79296 2.19718C5.72297 2.26388 5.66724 2.3441 5.62916 2.43297C5.59108 2.52185 5.57144 2.61753 5.57143 2.71422V3.42851H4.85714C4.09938 3.42851 3.37266 3.72953 2.83684 4.26535C2.30102 4.80117 2 5.5279 2 6.28566V19.1428C2 19.9006 2.30102 20.6273 2.83684 21.1632C3.37266 21.699 4.09938 22 4.85714 22H19.1429C19.9006 22 20.6273 21.699 21.1632 21.1632C21.699 20.6273 22 19.9006 22 19.1428V6.28566C22 5.5279 21.699 4.80117 21.1632 4.26535C20.6273 3.72953 19.9006 3.42851 19.1429 3.42851ZM6.64286 19.1428C6.43095 19.1428 6.2238 19.08 6.0476 18.9623C5.87141 18.8445 5.73408 18.6772 5.65299 18.4814C5.57189 18.2857 5.55067 18.0702 5.59202 17.8624C5.63336 17.6546 5.7354 17.4636 5.88524 17.3138C6.03508 17.164 6.22599 17.0619 6.43383 17.0206C6.64167 16.9792 6.8571 17.0004 7.05288 17.0815C7.24865 17.1626 7.41599 17.3 7.53372 17.4762C7.65145 17.6524 7.71429 17.8595 7.71429 18.0714C7.71429 18.3556 7.6014 18.6281 7.40047 18.829C7.19954 19.03 6.92702 19.1428 6.64286 19.1428ZM6.64286 15.5714C6.43095 15.5714 6.2238 15.5086 6.0476 15.3908C5.87141 15.2731 5.73408 15.1058 5.65299 14.91C5.57189 14.7142 5.55067 14.4988 5.59202 14.2909C5.63336 14.0831 5.7354 13.8922 5.88524 13.7424C6.03508 13.5925 6.22599 13.4905 6.43383 13.4491C6.64167 13.4078 6.8571 13.429 7.05288 13.5101C7.24865 13.5912 7.41599 13.7285 7.53372 13.9047C7.65145 14.0809 7.71429 14.2881 7.71429 14.5C7.71429 14.7841 7.6014 15.0567 7.40047 15.2576C7.19954 15.4585 6.92702 15.5714 6.64286 15.5714ZM10.2143 19.1428C10.0024 19.1428 9.79523 19.08 9.61903 18.9623C9.44284 18.8445 9.30551 18.6772 9.22441 18.4814C9.14332 18.2857 9.1221 18.0702 9.16344 17.8624C9.20479 17.6546 9.30683 17.4636 9.45667 17.3138C9.60651 17.164 9.79742 17.0619 10.0053 17.0206C10.2131 16.9792 10.4285 17.0004 10.6243 17.0815C10.8201 17.1626 10.9874 17.3 11.1051 17.4762C11.2229 17.6524 11.2857 17.8595 11.2857 18.0714C11.2857 18.3556 11.1728 18.6281 10.9719 18.829C10.771 19.03 10.4984 19.1428 10.2143 19.1428ZM10.2143 15.5714C10.0024 15.5714 9.79523 15.5086 9.61903 15.3908C9.44284 15.2731 9.30551 15.1058 9.22441 14.91C9.14332 14.7142 9.1221 14.4988 9.16344 14.2909C9.20479 14.0831 9.30683 13.8922 9.45667 13.7424C9.60651 13.5925 9.79742 13.4905 10.0053 13.4491C10.2131 13.4078 10.4285 13.429 10.6243 13.5101C10.8201 13.5912 10.9874 13.7285 11.1051 13.9047C11.2229 14.0809 11.2857 14.2881 11.2857 14.5C11.2857 14.7841 11.1728 15.0567 10.9719 15.2576C10.771 15.4585 10.4984 15.5714 10.2143 15.5714ZM13.7857 19.1428C13.5738 19.1428 13.3667 19.08 13.1905 18.9623C13.0143 18.8445 12.8769 18.6772 12.7958 18.4814C12.7148 18.2857 12.6935 18.0702 12.7349 17.8624C12.7762 17.6546 12.8783 17.4636 13.0281 17.3138C13.1779 17.164 13.3689 17.0619 13.5767 17.0206C13.7845 16.9792 14 17.0004 14.1957 17.0815C14.3915 17.1626 14.5588 17.3 14.6766 17.4762C14.7943 17.6524 14.8571 17.8595 14.8571 18.0714C14.8571 18.3556 14.7443 18.6281 14.5433 18.829C14.3424 19.03 14.0699 19.1428 13.7857 19.1428ZM13.7857 15.5714C13.5738 15.5714 13.3667 15.5086 13.1905 15.3908C13.0143 15.2731 12.8769 15.1058 12.7958 14.91C12.7148 14.7142 12.6935 14.4988 12.7349 14.2909C12.7762 14.0831 12.8783 13.8922 13.0281 13.7424C13.1779 13.5925 13.3689 13.4905 13.5767 13.4491C13.7845 13.4078 14 13.429 14.1957 13.5101C14.3915 13.5912 14.5588 13.7285 14.6766 13.9047C14.7943 14.0809 14.8571 14.2881 14.8571 14.5C14.8571 14.7841 14.7443 15.0567 14.5433 15.2576C14.3424 15.4585 14.0699 15.5714 13.7857 15.5714ZM13.7857 12C13.5738 12 13.3667 11.9371 13.1905 11.8194C13.0143 11.7017 12.8769 11.5343 12.7958 11.3386C12.7148 11.1428 12.6935 10.9273 12.7349 10.7195C12.7762 10.5117 12.8783 10.3208 13.0281 10.1709C13.1779 10.0211 13.3689 9.91903 13.5767 9.87769C13.7845 9.83635 14 9.85757 14.1957 9.93866C14.3915 10.0198 14.5588 10.1571 14.6766 10.3333C14.7943 10.5095 14.8571 10.7166 14.8571 10.9285C14.8571 11.2127 14.7443 11.4852 14.5433 11.6862C14.3424 11.8871 14.0699 12 13.7857 12ZM17.3571 15.5714C17.1452 15.5714 16.9381 15.5086 16.7619 15.3908C16.5857 15.2731 16.4484 15.1058 16.3673 14.91C16.2862 14.7142 16.265 14.4988 16.3063 14.2909C16.3476 14.0831 16.4497 13.8922 16.5995 13.7424C16.7494 13.5925 16.9403 13.4905 17.1481 13.4491C17.356 13.4078 17.5714 13.429 17.7672 13.5101C17.9629 13.5912 18.1303 13.7285 18.248 13.9047C18.3657 14.0809 18.4286 14.2881 18.4286 14.5C18.4286 14.7841 18.3157 15.0567 18.1148 15.2576C17.9138 15.4585 17.6413 15.5714 17.3571 15.5714ZM17.3571 12C17.1452 12 16.9381 11.9371 16.7619 11.8194C16.5857 11.7017 16.4484 11.5343 16.3673 11.3386C16.2862 11.1428 16.265 10.9273 16.3063 10.7195C16.3476 10.5117 16.4497 10.3208 16.5995 10.1709C16.7494 10.0211 16.9403 9.91903 17.1481 9.87769C17.356 9.83635 17.5714 9.85757 17.7672 9.93866C17.9629 10.0198 18.1303 10.1571 18.248 10.3333C18.3657 10.5095 18.4286 10.7166 18.4286 10.9285C18.4286 11.2127 18.3157 11.4852 18.1148 11.6862C17.9138 11.8871 17.6413 12 17.3571 12ZM20.5714 6.64281V7.3571C20.5714 7.45182 20.5338 7.54266 20.4668 7.60963C20.3998 7.67661 20.309 7.71424 20.2143 7.71424H3.78571C3.69099 7.71424 3.60015 7.67661 3.53318 7.60963C3.4662 7.54266 3.42857 7.45182 3.42857 7.3571V6.28566C3.42963 5.90711 3.58048 5.54436 3.84816 5.27668C4.11584 5.009 4.47859 4.85815 4.85714 4.85709H19.1429C19.5214 4.85815 19.8842 5.009 20.1518 5.27668C20.4195 5.54436 20.5704 5.90711 20.5714 6.28566V6.64281Z" fill="#72727E" stroke="#72727E" stroke-width="2" mask="url(#path-1-inside-1)"/>
</svg>
