<svg width="18" height="18" viewBox="0 0 18 18" fill="none" xmlns="http://www.w3.org/2000/svg">
<path d="M3.57689 17.9998C4.36134 17.9998 5.46326 17.7162 7.11333 16.7945C9.11985 15.6695 10.6719 14.6308 12.6675 12.6408C14.5917 10.7182 15.528 9.47345 16.8385 7.08922C18.319 4.39722 18.0666 2.98614 17.7845 2.38305C17.4486 1.66224 16.9527 1.23112 16.3117 0.803208C15.9476 0.56472 15.5623 0.360281 15.1607 0.192487C15.1205 0.17521 15.0832 0.158736 15.0498 0.14387C14.8509 0.0542707 14.5495 -0.0811327 14.1677 0.0635119C13.9129 0.159138 13.6855 0.35481 13.3294 0.706377C12.5992 1.42639 11.6014 3.02993 11.2333 3.81744C10.9861 4.34821 10.8226 4.69857 10.8222 5.09152C10.8222 5.55157 11.0536 5.90635 11.3345 6.28926C11.3872 6.36118 11.4394 6.42988 11.4901 6.49658C11.7959 6.89837 11.863 7.01449 11.8188 7.22181C11.7292 7.63847 11.0609 8.8788 9.96257 9.97448C8.86427 11.0702 7.65947 11.6962 7.24112 11.7853C7.02492 11.8316 6.90637 11.7616 6.49164 11.445C6.43216 11.3996 6.37108 11.3526 6.30718 11.3056C5.87879 10.987 5.54042 10.7616 5.09113 10.7616H5.08872C4.6977 10.7616 4.36294 10.9311 3.80837 11.2108C3.085 11.5756 1.43293 12.5604 0.708357 13.2913C0.355919 13.6464 0.159407 13.8731 0.0633602 14.1274C-0.0813122 14.5103 0.0549202 14.8104 0.143734 15.0113C0.158604 15.0447 0.175079 15.0812 0.19236 15.1218C0.361515 15.5226 0.567202 15.907 0.806816 16.2701C1.234 16.909 1.66681 17.4036 2.38937 17.7399C2.76041 17.9154 3.16647 18.0042 3.57689 17.9998Z" fill="white"/>
</svg>
