<svg width="40" height="40" viewBox="0 0 40 40" fill="none" xmlns="http://www.w3.org/2000/svg">
<path d="M34.975 17.2484C34.9572 17.1658 34.931 17.0852 34.8969 17.0078L31.9453 10.1203C31.2649 8.52891 29.6094 7.5 27.7258 7.5H12.2742C10.3922 7.5 8.73517 8.52891 8.05548 10.1203L5.10079 17.0078C5.03364 17.1632 4.99933 17.3307 5.00001 17.5V31.25C5.00001 31.5815 5.13171 31.8995 5.36613 32.1339C5.60055 32.3683 5.91849 32.5 6.25001 32.5H8.75001C9.08153 32.5 9.39947 32.3683 9.63389 32.1339C9.86831 31.8995 10 31.5815 10 31.25V30H30V31.25C30 31.5815 30.1317 31.8995 30.3661 32.1339C30.6005 32.3683 30.9185 32.5 31.25 32.5H33.75C34.0815 32.5 34.3995 32.3683 34.6339 32.1339C34.8683 31.8995 35 31.5815 35 31.25V17.5C35.0001 17.4155 34.9917 17.3312 34.975 17.2484ZM11.25 25C10.7556 25 10.2722 24.8534 9.86108 24.5787C9.44996 24.304 9.12953 23.9135 8.94031 23.4567C8.75109 22.9999 8.70158 22.4972 8.79805 22.0123C8.89451 21.5273 9.13261 21.0819 9.48224 20.7322C9.83187 20.3826 10.2773 20.1445 10.7623 20.048C11.2472 19.9516 11.7499 20.0011 12.2067 20.1903C12.6635 20.3795 13.054 20.7 13.3287 21.1111C13.6034 21.5222 13.75 22.0055 13.75 22.5C13.75 23.163 13.4866 23.7989 13.0178 24.2678C12.5489 24.7366 11.9131 25 11.25 25ZM28.75 25C28.2556 25 27.7722 24.8534 27.3611 24.5787C26.95 24.304 26.6295 23.9135 26.4403 23.4567C26.2511 22.9999 26.2016 22.4972 26.298 22.0123C26.3945 21.5273 26.6326 21.0819 26.9822 20.7322C27.3319 20.3826 27.7773 20.1445 28.2623 20.048C28.7472 19.9516 29.2499 20.0011 29.7067 20.1903C30.1635 20.3795 30.554 20.7 30.8287 21.1111C31.1034 21.5222 31.25 22.0055 31.25 22.5C31.25 23.163 30.9866 23.7989 30.5178 24.2678C30.0489 24.7366 29.413 25 28.75 25ZM8.14532 16.25L10.3508 11.1055C10.6336 10.4445 11.4063 10 12.2742 10H27.7258C28.593 10 29.3664 10.4445 29.6492 11.1055L31.8547 16.25H8.14532Z" fill="#2B2B34"/>
</svg>
