<svg width="40" height="40" viewBox="0 0 40 40" fill="none" xmlns="http://www.w3.org/2000/svg">
<path d="M20 21.875C21.0355 21.875 21.875 21.0355 21.875 20C21.875 18.9645 21.0355 18.125 20 18.125C18.9645 18.125 18.125 18.9645 18.125 20C18.125 21.0355 18.9645 21.875 20 21.875Z" fill="#2B2B34"/>
<path d="M20 3.75C11.0398 3.75 3.75 11.0398 3.75 20C3.75 28.9602 11.0398 36.25 20 36.25C28.9602 36.25 36.25 28.9602 36.25 20C36.25 11.0398 28.9602 3.75 20 3.75ZM28.2086 12.6039L24.5461 21.7602C24.2946 22.389 23.918 22.9602 23.4391 23.4391C22.9602 23.918 22.389 24.2946 21.7602 24.5461L12.6039 28.2086C12.4903 28.2541 12.3659 28.2652 12.2461 28.2406C12.1262 28.216 12.0162 28.1568 11.9297 28.0703C11.8432 27.9838 11.784 27.8738 11.7594 27.7539C11.7348 27.6341 11.7459 27.5097 11.7914 27.3961L15.4539 18.2398C15.7054 17.611 16.082 17.0398 16.5609 16.5609C17.0398 16.082 17.611 15.7054 18.2398 15.4539L27.3961 11.7914C27.5097 11.7459 27.6341 11.7348 27.7539 11.7594C27.8738 11.784 27.9838 11.8432 28.0703 11.9297C28.1568 12.0162 28.216 12.1262 28.2406 12.2461C28.2652 12.3659 28.2541 12.4903 28.2086 12.6039Z" fill="#2B2B34"/>
</svg>
