<svg width="67" height="38" viewBox="0 0 67 38" fill="none" xmlns="http://www.w3.org/2000/svg">
<g filter="url(#filter0_b)">
<path d="M0 19C0 8.50659 8.50659 0 19 0H48C58.4934 0 67 8.50659 67 19C67 29.4934 58.4934 38 48 38H19C8.50659 38 0 29.4934 0 19Z" fill="white" fill-opacity="0.1"/>
<path d="M23.5413 18.12H23.9823C24.1596 18.12 24.3066 18.0967 24.4233 18.05C24.5399 17.9987 24.6403 17.9193 24.7243 17.812L27.5173 14.277C27.6339 14.1277 27.7553 14.025 27.8813 13.969C28.0119 13.9083 28.1753 13.878 28.3713 13.878H29.9953L26.5863 18.085C26.3856 18.3417 26.1779 18.5237 25.9633 18.631C26.1173 18.687 26.2549 18.7663 26.3763 18.869C26.5023 18.967 26.6213 19.0977 26.7333 19.261L30.2473 24H28.5883C28.3643 24 28.1963 23.9697 28.0842 23.909C27.9769 23.8437 27.8859 23.7503 27.8113 23.629L24.9483 19.891C24.8596 19.765 24.7569 19.6763 24.6403 19.625C24.5236 19.5737 24.3556 19.548 24.1363 19.548H23.5413V24H21.6583V13.878H23.5413V18.12ZM38.2279 14.571C38.2279 14.7857 38.1672 14.9817 38.0459 15.159L32.8519 22.495H38.1089V24H30.4089V23.258C30.4089 23.1647 30.4252 23.076 30.4579 22.992C30.4906 22.9033 30.5326 22.8217 30.5839 22.747L35.7919 15.376H30.7379V13.878H38.2279V14.571ZM46.8025 15.425H43.7505V24H41.8675V15.425H38.8155V13.878H46.8025V15.425Z" fill="white"/>
<path d="M19 1H48V-1H19V1ZM48 37H19V39H48V37ZM19 37C9.05888 37 1 28.9411 1 19H-1C-1 30.0457 7.95431 39 19 39V37ZM66 19C66 28.9411 57.9411 37 48 37V39C59.0457 39 68 30.0457 68 19H66ZM48 1C57.9411 1 66 9.05888 66 19H68C68 7.95431 59.0457 -1 48 -1V1ZM19 -1C7.95431 -1 -1 7.95431 -1 19H1C1 9.05888 9.05888 1 19 1V-1Z" fill="white" fill-opacity="0.3"/>
</g>
<defs>
<filter id="filter0_b" x="-80" y="-80" width="227" height="198" filterUnits="userSpaceOnUse" color-interpolation-filters="sRGB">
<feFlood flood-opacity="0" result="BackgroundImageFix"/>
<feGaussianBlur in="BackgroundImage" stdDeviation="40"/>
<feComposite in2="SourceAlpha" operator="in" result="effect1_backgroundBlur"/>
<feBlend mode="normal" in="SourceGraphic" in2="effect1_backgroundBlur" result="shape"/>
</filter>
</defs>
</svg>
