<svg width="36" height="36" viewBox="0 0 36 36" fill="none" xmlns="http://www.w3.org/2000/svg">
<path d="M30.3741 5.63591C28.752 3.99776 26.8222 2.69625 24.6956 1.80616C22.569 0.916073 20.2874 0.454946 17.982 0.449272C15.6767 0.443598 13.3929 0.893488 11.2619 1.7731C9.13093 2.65271 7.19475 3.9447 5.5646 5.57485C3.93445 7.205 2.64245 9.14118 1.76284 11.2722C0.883235 13.4031 0.433344 15.6869 0.439018 17.9923C0.444692 20.2977 0.90582 22.5792 1.79591 24.7058C2.686 26.8324 3.98751 28.7622 5.62566 30.3843C7.24777 32.0225 9.17757 33.324 11.3042 34.2141C13.4308 35.1042 15.7124 35.5653 18.0177 35.571C20.3231 35.5767 22.6069 35.1268 24.7379 34.2472C26.8688 33.3676 28.805 32.0756 30.4352 30.4454C32.0653 28.8153 33.3573 26.8791 34.2369 24.7481C35.1165 22.6171 35.5664 20.3333 35.5608 18.028C35.5551 15.7226 35.094 13.4411 34.2039 11.3144C33.3138 9.18782 32.0123 7.25802 30.3741 5.63591ZM2.99988 18.0101C2.99932 16.6826 3.17534 15.3608 3.52332 14.0797C4.09675 15.314 4.92957 16.3804 5.49597 17.6468C6.22801 19.275 8.19363 18.8234 9.0616 20.25C9.83191 21.5164 9.00926 23.1179 9.58582 24.4429C10.0046 25.4047 10.9921 25.6148 11.6733 26.3179C12.3694 27.0273 12.3546 27.9992 12.4608 28.9242C12.5807 30.011 12.7752 31.0883 13.0429 32.1484C13.0429 32.1562 13.0429 32.1648 13.0491 32.1726C7.20301 30.1195 2.99988 24.5469 2.99988 18.0101ZM17.9999 33.0101C17.1622 33.0099 16.326 32.9398 15.4999 32.8008C15.5085 32.589 15.5124 32.3914 15.5335 32.2539C15.7233 31.0117 16.3452 29.7969 17.1843 28.8672C18.0132 27.95 19.1491 27.3297 19.8491 26.289C20.535 25.2734 20.7405 23.9062 20.4577 22.7195C20.0413 20.9664 17.6593 20.3812 16.3749 19.4304C15.6366 18.8836 14.9796 18.0383 14.01 17.9695C13.5632 17.9383 13.1889 18.0343 12.746 17.9203C12.3397 17.8148 12.021 17.5961 11.5882 17.6531C10.7796 17.7593 10.2694 18.6234 9.40066 18.5062C8.57644 18.3961 7.72723 17.4312 7.53973 16.6461C7.2991 15.6367 8.09754 15.3094 8.95301 15.2195C9.31004 15.182 9.71082 15.1414 10.0538 15.2726C10.5054 15.4398 10.7186 15.882 11.1241 16.1054C11.8843 16.5226 12.0382 15.8562 11.9218 15.1812C11.7475 14.1703 11.5444 13.7586 12.446 13.0625C13.071 12.5828 13.6054 12.2359 13.5054 11.3742C13.446 10.8679 13.1686 10.639 13.4272 10.1351C13.6233 9.75154 14.1616 9.40544 14.5124 9.17654C15.4179 8.58591 18.3913 8.62966 17.1765 6.97654C16.8194 6.49138 16.1608 5.62419 15.5358 5.50544C14.7546 5.35779 14.4077 6.22966 13.8632 6.61404C13.3007 7.01169 12.2054 7.46326 11.6421 6.84841C10.8843 6.02107 12.1444 5.74998 12.4233 5.17185C12.5522 4.90232 12.4233 4.5281 12.2061 4.17576C12.4879 4.05701 12.7744 3.94685 13.0655 3.84529C13.248 3.98005 13.4644 4.06122 13.6905 4.07966C14.2132 4.11404 14.7061 3.83122 15.1624 4.18747C15.6686 4.5781 16.0335 5.07185 16.7054 5.19373C17.3554 5.31169 18.0436 4.93279 18.2046 4.26716C18.3022 3.86247 18.2046 3.43513 18.1108 3.01716C21.0327 3.03397 23.8853 3.90902 26.314 5.53357C26.1577 5.47419 25.971 5.48123 25.7405 5.58826C25.2663 5.80857 24.5944 6.36951 24.539 6.92576C24.4757 7.55701 25.4069 7.64607 25.8491 7.64607C26.5132 7.64607 27.1858 7.34919 26.9718 6.58201C26.8788 6.24919 26.7522 5.9031 26.5483 5.69373C27.0385 6.03385 27.5081 6.40272 27.9546 6.79841C27.9476 6.80544 27.9405 6.81169 27.9335 6.81951C27.4835 7.28826 26.9608 7.65935 26.653 8.22966C26.4358 8.63123 26.1913 8.82185 25.7515 8.92576C25.5093 8.98279 25.2327 9.00388 25.0296 9.16638C24.464 9.61169 24.7858 10.682 25.3218 11.0031C25.9991 11.4086 27.0038 11.2179 27.5147 10.639C27.914 10.1859 28.1491 9.39919 28.8671 9.39997C29.1832 9.39932 29.4868 9.52308 29.7124 9.74451C30.0093 10.0523 29.9507 10.3398 30.014 10.7242C30.1257 11.407 30.728 11.0367 31.0944 10.6922C31.3615 11.1675 31.6025 11.657 31.8163 12.1586C31.4132 12.739 31.0929 13.3719 30.1233 12.6953C29.5429 12.2898 29.1858 11.7015 28.4569 11.5187C27.8202 11.3625 27.1679 11.525 26.539 11.6336C25.8241 11.7578 24.9765 11.8125 24.4343 12.3539C23.91 12.8758 23.6327 13.5742 23.0749 14.0984C21.996 15.114 21.5405 16.2226 22.239 17.6586C22.9108 19.039 24.3163 19.7883 25.8327 19.6898C27.3226 19.5906 28.8702 18.7265 28.8272 20.8914C28.8116 21.6578 28.9718 22.1883 29.2069 22.9C29.4249 23.5562 29.4101 24.1922 29.4601 24.8695C29.5076 25.6627 29.6316 26.4494 29.8304 27.2187C28.43 29.0217 26.6362 30.4807 24.5858 31.4845C22.5354 32.4882 20.2828 33.01 17.9999 33.0101Z" fill="#2B2B34"/>
</svg>
