<svg width="40" height="40" viewBox="0 0 40 40" fill="none" xmlns="http://www.w3.org/2000/svg">
<path d="M26.9087 17.7779C27.6494 17.7799 28.3832 17.637 29.0676 17.3575C29.752 17.078 30.3733 16.6674 30.8956 16.1496L36.3214 10.8043C36.7505 10.3812 36.7899 9.69281 36.3812 9.24893C36.2786 9.13741 36.1541 9.0476 36.0153 8.98495C35.8764 8.92231 35.726 8.88813 35.5734 8.88449C35.4207 8.88085 35.2689 8.90783 35.1271 8.96379C34.9853 9.01975 34.8565 9.10352 34.7486 9.21003L29.9126 13.974C29.7502 14.1338 29.5301 14.2236 29.3006 14.2236C29.0711 14.2236 28.851 14.1338 28.6886 13.974C28.3511 13.6419 28.3694 13.0806 28.7062 12.7486L33.5211 8.00203C33.629 7.89562 33.7139 7.76872 33.7706 7.62902C33.8273 7.48931 33.8546 7.33971 33.8509 7.18929C33.8472 7.03886 33.8126 6.89074 33.7491 6.7539C33.6856 6.61706 33.5946 6.49435 33.4816 6.39321C33.2776 6.21077 33.0116 6.11038 32.7361 6.11188C32.4239 6.11209 32.1246 6.23452 31.9039 6.45226L27.0933 11.194C26.9309 11.3538 26.7108 11.4436 26.4813 11.4436C26.2518 11.4436 26.0317 11.3538 25.8693 11.194C25.5325 10.8619 25.5501 10.3006 25.8869 9.96859L30.7018 5.22342C30.8097 5.11701 30.8946 4.99011 30.9513 4.85041C31.008 4.7107 31.0353 4.5611 31.0316 4.41068C31.028 4.26025 30.9933 4.11213 30.9298 3.97529C30.8664 3.83845 30.7753 3.71574 30.6623 3.6146C30.4583 3.43216 30.1923 3.33177 29.9168 3.33327C29.6046 3.33363 29.3054 3.45604 29.0846 3.67365L23.6624 9.019C23.137 9.53399 22.7205 10.1466 22.437 10.8214C22.1535 11.4962 22.0086 12.2197 22.0107 12.95V13.5217C22.0108 13.6679 21.9816 13.8127 21.9249 13.9477C21.8682 14.0828 21.7851 14.2055 21.6802 14.3088L19.1709 16.7831C19.1448 16.809 19.1137 16.8295 19.0795 16.8434C19.0452 16.8574 19.0086 16.8646 18.9715 16.8646C18.9345 16.8646 18.8978 16.8574 18.8636 16.8434C18.8294 16.8295 18.7983 16.809 18.7721 16.7831L6.56197 4.7455C6.35123 4.53751 6.06549 4.4203 5.7673 4.41952C5.4691 4.41874 5.18273 4.53445 4.97088 4.74133C3.90334 5.784 3.33328 7.25597 3.33328 8.99746C3.32623 11.8733 4.85954 15.1799 7.33497 17.6167L13.3562 23.5525C14.212 24.3945 15.3716 24.8674 16.5807 24.8675C16.9661 24.8676 17.35 24.8191 17.7229 24.723C17.8165 24.6988 17.9129 24.6865 18.0097 24.6862C18.2927 24.6862 18.5653 24.7917 18.7728 24.9814L19.5754 25.7122C19.7824 25.9207 19.8987 26.2006 19.8995 26.4923V26.8771C19.8975 27.752 20.2462 28.5922 20.8698 29.2146L27.2152 35.5756L27.2215 35.5825C27.9258 36.2767 28.881 36.6667 29.8769 36.6666C30.8728 36.6665 31.8279 36.2764 32.5321 35.5822C33.2363 34.8879 33.6319 33.9463 33.6318 32.9645C33.6317 31.9827 33.236 31.0411 32.5318 30.3469L23.0204 20.9705C22.9942 20.9447 22.9734 20.914 22.9592 20.8803C22.9451 20.8466 22.9378 20.8104 22.9378 20.7739C22.9378 20.7374 22.9451 20.7012 22.9592 20.6675C22.9734 20.6338 22.9942 20.6031 23.0204 20.5773L25.5297 18.1037C25.6344 18.0004 25.7587 17.9184 25.8956 17.8625C26.0325 17.8066 26.1792 17.7778 26.3273 17.7779H26.9087Z" fill="#2B2B34"/>
<path d="M17.2389 26.5814C15.4115 26.5776 13.6593 25.8357 12.3623 24.5169L11.3736 23.504C11.2666 23.3947 11.1217 23.3333 10.9706 23.3333C10.8194 23.3333 10.6745 23.3947 10.5675 23.504L4.50389 29.6837C3.42314 30.7909 3.0372 32.4206 3.57223 34.0167C3.60217 34.1066 3.63768 34.1945 3.67852 34.2798C4.39831 35.7896 5.79508 36.6666 7.32311 36.6666C7.8486 36.6679 8.36913 36.5624 8.85453 36.3562C9.33993 36.1499 9.78057 35.8471 10.1509 35.4651L18.2376 27.1412C18.2717 27.1056 18.2977 27.0629 18.314 27.0159C18.3303 26.969 18.3363 26.919 18.3318 26.8694V26.8504C18.3286 26.8048 18.3165 26.7604 18.2961 26.7197C18.2757 26.6791 18.2475 26.6431 18.2132 26.614C18.1788 26.5848 18.1391 26.5631 18.0963 26.5501C18.0536 26.5371 18.0087 26.5331 17.9644 26.5383C17.7235 26.5657 17.4813 26.5801 17.2389 26.5814Z" fill="#2B2B34"/>
</svg>
