<svg width="24" height="24" viewBox="0 0 24 24" fill="none" xmlns="http://www.w3.org/2000/svg">
<path d="M20.0999 18.5999H18.2999C18.0612 18.5999 17.8323 18.5051 17.6635 18.3363C17.4947 18.1675 17.3999 17.9386 17.3999 17.6999V6.2999C17.3999 6.06121 17.4947 5.83229 17.6635 5.66351C17.8323 5.49472 18.0612 5.3999 18.2999 5.3999H20.0999C20.3386 5.3999 20.5675 5.49472 20.7363 5.66351C20.9051 5.83229 20.9999 6.06121 20.9999 6.2999V17.6999C20.9999 17.9386 20.9051 18.1675 20.7363 18.3363C20.5675 18.5051 20.3386 18.5999 20.0999 18.5999Z" fill="white"/>
<path d="M15.3001 18.5999H13.5001C13.2614 18.5999 13.0325 18.5051 12.8637 18.3363C12.6949 18.1675 12.6001 17.9386 12.6001 17.6999V9.2999C12.6001 9.06121 12.6949 8.83229 12.8637 8.66351C13.0325 8.49472 13.2614 8.3999 13.5001 8.3999H15.3001C15.5388 8.3999 15.7677 8.49472 15.9365 8.66351C16.1053 8.83229 16.2001 9.06121 16.2001 9.2999V17.6999C16.2001 17.9386 16.1053 18.1675 15.9365 18.3363C15.7677 18.5051 15.5388 18.5999 15.3001 18.5999Z" fill="white"/>
<path d="M10.5 18.6H8.70005C8.46135 18.6 8.23244 18.5052 8.06365 18.3364C7.89487 18.1677 7.80005 17.9387 7.80005 17.7V11.7C7.80005 11.4614 7.89487 11.2324 8.06365 11.0637C8.23244 10.8949 8.46135 10.8 8.70005 10.8H10.5C10.7387 10.8 10.9677 10.8949 11.1364 11.0637C11.3052 11.2324 11.4 11.4614 11.4 11.7V17.7C11.4 17.9387 11.3052 18.1677 11.1364 18.3364C10.9677 18.5052 10.7387 18.6 10.5 18.6Z" fill="white"/>
<path d="M5.7 18.6H3.9C3.66131 18.6 3.43239 18.5051 3.2636 18.3363C3.09482 18.1676 3 17.9386 3 17.7V14.1C3 13.8613 3.09482 13.6323 3.2636 13.4636C3.43239 13.2948 3.66131 13.2 3.9 13.2H5.7C5.93869 13.2 6.16761 13.2948 6.3364 13.4636C6.50518 13.6323 6.6 13.8613 6.6 14.1V17.7C6.6 17.9386 6.50518 18.1676 6.3364 18.3363C6.16761 18.5051 5.93869 18.6 5.7 18.6Z" fill="white"/>
</svg>
