<svg width="24" height="24" viewBox="0 0 24 24" fill="none" xmlns="http://www.w3.org/2000/svg">
<path d="M21.75 11.7155C21.7437 11.5986 21.6962 11.4876 21.6159 11.4023C21.5356 11.317 21.4277 11.2629 21.3113 11.2496L20.1094 11.0551C20.0553 11.0462 20.0056 11.0201 19.9676 10.9806C19.9296 10.9412 19.9053 10.8905 19.8985 10.8362C19.8755 10.6885 19.8516 10.5352 19.8188 10.3899C19.8082 10.3371 19.8144 10.2822 19.8365 10.2331C19.8586 10.1839 19.8955 10.1429 19.9421 10.1157L21.0099 9.52272C21.1159 9.46867 21.1984 9.37753 21.2416 9.26665C21.2848 9.15576 21.2857 9.03285 21.2442 8.92131L21.0591 8.41037C21.0185 8.29845 20.938 8.20544 20.8331 8.14914C20.7282 8.09283 20.6062 8.0772 20.4905 8.10522L19.2928 8.33959C19.2393 8.34916 19.1841 8.34158 19.1351 8.31793C19.0861 8.29428 19.0458 8.25576 19.02 8.20787C18.9502 8.07709 18.8742 7.94397 18.795 7.81319C18.7662 7.76659 18.7528 7.71217 18.7565 7.65754C18.7602 7.6029 18.7809 7.55079 18.8156 7.5085L19.6125 6.58787C19.6935 6.50096 19.74 6.38754 19.7433 6.26882C19.7467 6.15011 19.7067 6.03423 19.6308 5.94287L19.283 5.52522C19.2073 5.43355 19.1003 5.37321 18.9827 5.35589C18.8651 5.33857 18.7453 5.3655 18.6464 5.43147L17.5978 6.061C17.5513 6.08885 17.4971 6.10102 17.4432 6.0957C17.3893 6.09038 17.3385 6.06787 17.2983 6.03147C17.1825 5.92975 17.0639 5.83178 16.9528 5.74131C16.9102 5.70766 16.8794 5.6613 16.8649 5.60896C16.8504 5.55661 16.853 5.50101 16.8722 5.45022L17.3063 4.30647C17.3535 4.19734 17.3591 4.07464 17.3218 3.9617C17.2846 3.84875 17.2072 3.75342 17.1042 3.69381L16.6313 3.41772C16.5283 3.35833 16.407 3.33903 16.2907 3.36351C16.1743 3.38798 16.0711 3.45452 16.0008 3.55037L15.2344 4.51319C15.2068 4.55504 15.1655 4.58597 15.1176 4.60069C15.0697 4.6154 15.0182 4.61297 14.9719 4.59381C14.9433 4.58209 14.7014 4.48319 14.5135 4.42037C14.4619 4.40357 14.4171 4.37071 14.3855 4.3266C14.354 4.28249 14.3374 4.22944 14.3381 4.17522L14.3564 2.95319C14.363 2.83386 14.3258 2.71625 14.2518 2.62237C14.1779 2.52849 14.0722 2.46479 13.9547 2.44319L13.418 2.34944C13.301 2.32923 13.1807 2.35217 13.0794 2.41399C12.9781 2.4758 12.9027 2.5723 12.8672 2.68553L12.4688 3.8485C12.4507 3.90012 12.4165 3.94459 12.3713 3.97539C12.3261 4.00618 12.2722 4.02167 12.2175 4.01959H11.7605C11.7062 4.02071 11.653 4.00468 11.6084 3.97379C11.5638 3.9429 11.5301 3.89873 11.512 3.84756L11.1155 2.69116C11.0806 2.57709 11.0053 2.47966 10.9038 2.4171C10.8022 2.35455 10.6813 2.33116 10.5638 2.35131L10.0261 2.44506C9.90932 2.46649 9.80428 2.52957 9.73049 2.62259C9.65669 2.71561 9.61916 2.83224 9.62486 2.95084L9.64361 4.17709C9.64398 4.23213 9.62657 4.28582 9.59397 4.33016C9.56137 4.3745 9.51531 4.40713 9.46267 4.42319C9.35533 4.46491 9.12236 4.55397 9.01642 4.59334C8.92267 4.62709 8.82048 4.59006 8.73798 4.49491L7.97579 3.55741C7.90586 3.46097 7.80275 3.39379 7.68628 3.36878C7.56981 3.34377 7.44821 3.3627 7.34486 3.42194L6.87329 3.69522C6.76925 3.75494 6.69099 3.85105 6.6536 3.96504C6.61621 4.07903 6.62233 4.20282 6.67079 4.31256L7.10439 5.4535C7.1233 5.5044 7.12579 5.55994 7.11149 5.61233C7.0972 5.66471 7.06684 5.71129 7.0247 5.74553C6.91079 5.83928 6.79407 5.93303 6.67782 6.03709C6.63791 6.0732 6.58748 6.0956 6.53392 6.101C6.48037 6.10639 6.42649 6.09451 6.38017 6.06709L5.34376 5.42537C5.24424 5.36064 5.12452 5.33444 5.00706 5.3517C4.8896 5.36897 4.78248 5.4285 4.70579 5.51912L4.35938 5.93584C4.28244 6.02657 4.24166 6.1425 4.24486 6.26142C4.24806 6.38035 4.29501 6.49391 4.37673 6.58037L5.17735 7.50006C5.21288 7.5415 5.23412 7.59329 5.23792 7.64774C5.24172 7.7022 5.22788 7.75643 5.19845 7.80241C5.11829 7.9299 5.04189 8.06397 4.97251 8.19803C4.94656 8.24626 4.906 8.28502 4.85665 8.30877C4.8073 8.33252 4.7517 8.34003 4.69782 8.33022L3.50204 8.09912C3.38626 8.07119 3.26425 8.08686 3.15929 8.14314C3.05433 8.19943 2.97377 8.29238 2.93298 8.40428L2.74548 8.91428C2.70403 9.02596 2.705 9.14897 2.7482 9.25999C2.7914 9.37101 2.87382 9.46232 2.97985 9.51662L4.04767 10.1096C4.09569 10.1361 4.13378 10.1775 4.15619 10.2276C4.1786 10.2776 4.18411 10.3336 4.17188 10.3871L4.16063 10.4466C4.13626 10.5774 4.11376 10.7012 4.0922 10.8329C4.08474 10.8865 4.06051 10.9365 4.02296 10.9755C3.98541 11.0146 3.93647 11.0408 3.88313 11.0504L2.67891 11.2449C2.56115 11.2594 2.45267 11.3162 2.37374 11.4048C2.29482 11.4934 2.25083 11.6077 2.25001 11.7263V12.2691C2.24932 12.3882 2.29285 12.5033 2.37218 12.5922C2.4515 12.681 2.56097 12.7373 2.67938 12.7501L3.88313 12.9441C3.93723 12.9529 3.98701 12.979 4.02504 13.0185C4.06307 13.0579 4.08729 13.1086 4.09407 13.163C4.11704 13.3112 4.14095 13.464 4.17376 13.6093C4.18433 13.6621 4.17813 13.717 4.15603 13.7661C4.13393 13.8153 4.09703 13.8563 4.05048 13.8835L2.98313 14.4774C2.8771 14.5315 2.79464 14.6226 2.75142 14.7335C2.70821 14.8444 2.70726 14.9673 2.74876 15.0788L2.93626 15.5897C2.97696 15.7016 3.05743 15.7946 3.16231 15.8508C3.2672 15.9071 3.38914 15.9228 3.50485 15.8949L4.70251 15.6629C4.75607 15.6532 4.81133 15.6607 4.86035 15.6843C4.90937 15.708 4.94962 15.7466 4.97532 15.7946C5.04563 15.9258 5.1211 16.0585 5.20032 16.1893C5.22923 16.2358 5.24279 16.2903 5.23909 16.3449C5.23539 16.3996 5.21462 16.4517 5.1797 16.494L4.38282 17.4141C4.30092 17.5004 4.25334 17.6136 4.24903 17.7324C4.24471 17.8513 4.28396 17.9676 4.35938 18.0596L4.70673 18.4772C4.78233 18.569 4.88933 18.6294 5.00695 18.6467C5.12458 18.6641 5.24444 18.6371 5.34329 18.571L6.39189 17.9415C6.43838 17.9136 6.49259 17.9014 6.54653 17.9068C6.60046 17.9121 6.65126 17.9346 6.69142 17.971C6.80767 18.0727 6.92579 18.1707 7.03689 18.2612C7.07949 18.2948 7.1103 18.3412 7.12487 18.3935C7.13944 18.4458 7.13703 18.5014 7.11798 18.5522L6.68345 19.696C6.63618 19.8051 6.63064 19.9278 6.66789 20.0408C6.70513 20.1537 6.78257 20.249 6.88548 20.3087L7.35939 20.5824C7.46232 20.6418 7.58356 20.6612 7.69989 20.6368C7.81622 20.6124 7.91947 20.546 7.98986 20.4502L8.76564 19.4963C8.83126 19.4152 8.93439 19.3791 9.01079 19.4101C9.17392 19.4776 9.28314 19.5155 9.47673 19.5802C9.5283 19.5971 9.57315 19.6299 9.60476 19.674C9.63637 19.7181 9.6531 19.7711 9.65251 19.8254L9.63376 21.0465C9.62744 21.1657 9.6647 21.2833 9.73861 21.3771C9.81253 21.4709 9.91804 21.5347 10.0355 21.5565L10.5722 21.6502C10.6892 21.6706 10.8096 21.6478 10.9109 21.5859C11.0123 21.5241 11.0876 21.4275 11.123 21.3141L11.5214 20.153C11.5395 20.1014 11.5736 20.0569 11.6188 20.026C11.6641 19.9952 11.718 19.9798 11.7727 19.9819H12.2297C12.284 19.9808 12.3372 19.9967 12.3818 20.0276C12.4265 20.0585 12.4602 20.1028 12.4781 20.154L12.8752 21.3104C12.9059 21.4108 12.968 21.4987 13.0524 21.5612C13.1368 21.6237 13.2389 21.6575 13.3439 21.6577C13.3719 21.6578 13.3998 21.6553 13.4274 21.6502L13.965 21.5565C14.0818 21.535 14.1868 21.472 14.2606 21.3789C14.3344 21.2859 14.372 21.1693 14.3663 21.0507L14.3475 19.8244C14.3472 19.7704 14.364 19.7177 14.3956 19.6739C14.4272 19.63 14.4719 19.5974 14.5233 19.5807C14.7033 19.5202 14.8299 19.4715 14.941 19.4283L14.9691 19.4176C15.1144 19.3674 15.1847 19.4283 15.2255 19.479L16.0106 20.446C16.081 20.5417 16.1842 20.608 16.3004 20.6324C16.4166 20.6568 16.5378 20.6375 16.6406 20.5782L17.1127 20.3049C17.2159 20.2453 17.2936 20.1497 17.3309 20.0364C17.3681 19.9232 17.3624 19.8001 17.3147 19.6908L16.8816 18.5499C16.8625 18.4991 16.8598 18.4435 16.8741 18.3911C16.8883 18.3387 16.9186 18.2921 16.9608 18.2579C17.0747 18.1641 17.1914 18.0704 17.3077 17.9663C17.3478 17.9301 17.3986 17.9077 17.4524 17.9025C17.5063 17.8973 17.5603 17.9094 17.6067 17.9372L18.6563 18.5654C18.7558 18.6302 18.8755 18.6565 18.993 18.6392C19.1105 18.6219 19.2176 18.5623 19.2942 18.4716L19.6411 18.0544C19.7181 17.9637 19.7588 17.8478 19.7556 17.7289C19.7524 17.6099 19.7055 17.4964 19.6238 17.4099L18.8241 16.4879C18.7886 16.4464 18.7673 16.3946 18.7635 16.3402C18.7597 16.2857 18.7736 16.2315 18.803 16.1855C18.8831 16.0585 18.9596 15.9244 19.0289 15.7899C19.055 15.7418 19.0956 15.7031 19.1449 15.6794C19.1942 15.6556 19.2497 15.6481 19.3036 15.6577L20.498 15.8907C20.6138 15.9186 20.7358 15.903 20.8407 15.8467C20.9457 15.7904 21.0263 15.6974 21.0671 15.5855L21.2522 15.0755C21.2936 14.9639 21.2926 14.841 21.2494 14.73C21.2062 14.6191 21.1238 14.5279 21.0178 14.4737L19.9491 13.8797C19.9017 13.853 19.8643 13.8117 19.8422 13.7619C19.8202 13.7122 19.8148 13.6567 19.8267 13.6037L19.838 13.5441C19.8624 13.4133 19.8849 13.2896 19.9064 13.1579C19.9139 13.1042 19.9381 13.0543 19.9757 13.0152C20.0132 12.9761 20.0622 12.9499 20.1155 12.9404L21.3197 12.7463C21.4378 12.7321 21.5466 12.6753 21.6258 12.5866C21.705 12.4979 21.7492 12.3834 21.75 12.2644V11.7155ZM8.51017 16.1218C8.45175 16.2234 8.37007 16.3096 8.27184 16.3735C8.1736 16.4374 8.06161 16.477 7.94507 16.4892C7.82853 16.5013 7.71077 16.4857 7.60146 16.4435C7.49215 16.4013 7.3944 16.3338 7.31626 16.2465C6.26023 15.0788 5.67715 13.5596 5.68079 11.9852C5.68443 10.4109 6.27453 8.89438 7.33595 7.73162C7.4145 7.64435 7.51266 7.57698 7.62235 7.53508C7.73203 7.49318 7.85011 7.47794 7.96684 7.49062C8.08357 7.5033 8.19562 7.54354 8.29375 7.60802C8.39188 7.67249 8.47329 7.75936 8.53126 7.86147L10.6711 11.6279C10.7354 11.7402 10.7692 11.8674 10.7692 11.9968C10.7692 12.1262 10.7354 12.2534 10.6711 12.3657L8.51017 16.1218ZM12 18.3333C11.5539 18.3335 11.1091 18.2863 10.673 18.1927C10.5594 18.1673 10.4533 18.1155 10.3635 18.0415C10.2736 17.9675 10.2024 17.8734 10.1557 17.7667C10.109 17.6601 10.0881 17.544 10.0947 17.4277C10.1012 17.3115 10.1351 17.1984 10.1935 17.0977L12.3497 13.3477C12.4146 13.2347 12.5081 13.1408 12.6209 13.0756C12.7336 13.0103 12.8616 12.976 12.9919 12.976H17.311C17.4273 12.9758 17.542 13.003 17.6459 13.0555C17.7498 13.1079 17.8398 13.1841 17.9087 13.2778C17.9777 13.3715 18.0236 13.4802 18.0427 13.5949C18.0618 13.7097 18.0536 13.8273 18.0188 13.9383C17.1989 16.4846 14.8125 18.3333 12 18.3333ZM12.352 10.6505L10.2188 6.89397C10.161 6.79309 10.1277 6.68003 10.1216 6.56392C10.1156 6.44781 10.137 6.33191 10.184 6.22558C10.2311 6.11926 10.3025 6.0255 10.3925 5.95187C10.4825 5.87825 10.5885 5.82683 10.702 5.80178C11.1288 5.71184 11.5638 5.66659 12 5.66678C14.8125 5.66678 17.1989 7.51553 18.0174 10.0632C18.0522 10.1742 18.0604 10.2918 18.0413 10.4066C18.0221 10.5214 17.9763 10.63 17.9073 10.7237C17.8384 10.8174 17.7484 10.8936 17.6445 10.946C17.5406 10.9985 17.4259 11.0257 17.3096 11.0255H12.997C12.8659 11.0258 12.7371 10.9912 12.6238 10.9253C12.5105 10.8594 12.4167 10.7646 12.352 10.6505Z" fill="white"/>
</svg>
