<svg width="24" height="24" viewBox="0 0 24 24" fill="none" xmlns="http://www.w3.org/2000/svg">
<path d="M11.9824 15.9782C11.8508 15.979 11.7203 15.9537 11.5985 15.904C11.4766 15.8542 11.3658 15.7809 11.2724 15.6882L7.27236 11.6882C7.17912 11.595 7.10516 11.4843 7.0547 11.3625C7.00424 11.2406 6.97827 11.1101 6.97827 10.9782C6.97827 10.8464 7.00424 10.7158 7.0547 10.594C7.10516 10.4721 7.17912 10.3615 7.27236 10.2682C7.3656 10.175 7.47629 10.101 7.59811 10.0506C7.71994 10.0001 7.8505 9.97412 7.98236 9.97412C8.11422 9.97412 8.24479 10.0001 8.36661 10.0506C8.48843 10.101 8.59912 10.175 8.69236 10.2682L11.9824 13.5782L15.2824 10.3982C15.3744 10.2959 15.4865 10.2137 15.6117 10.1567C15.7369 10.0997 15.8725 10.0692 16.0101 10.067C16.1476 10.0648 16.2841 10.0911 16.4111 10.1441C16.5381 10.1971 16.6527 10.2757 16.7479 10.375C16.8431 10.4743 16.9167 10.5922 16.9643 10.7213C17.0118 10.8504 17.0322 10.9879 17.0242 11.1253C17.0162 11.2626 16.9799 11.3968 16.9176 11.5195C16.8554 11.6421 16.7685 11.7507 16.6624 11.8382L12.6624 15.6982C12.4795 15.8745 12.2364 15.9746 11.9824 15.9782Z" fill="white"/>
</svg>
