<svg width="12" height="7" viewBox="0 0 12 7" fill="none" xmlns="http://www.w3.org/2000/svg">
<path d="M5.62774 4.93069L5.9748 5.27987L6.32931 4.93825L9.62931 1.75825L9.64218 1.74585L9.65414 1.73256C9.70013 1.68141 9.75619 1.64031 9.81879 1.61181C9.8814 1.58332 9.94921 1.56805 10.018 1.56696C10.0868 1.56587 10.155 1.57899 10.2185 1.60548C10.282 1.63197 10.3393 1.67128 10.3869 1.72095C10.4345 1.77061 10.4713 1.82956 10.4951 1.89411C10.5189 1.95865 10.5291 2.02741 10.5251 2.09608C10.521 2.16474 10.5029 2.23185 10.4718 2.29318C10.4406 2.35452 10.3972 2.40878 10.3441 2.45256L10.3291 2.46492L10.3152 2.47842L6.31532 6.33826C6.31531 6.33828 6.31529 6.33829 6.31528 6.33831C6.31524 6.33835 6.3152 6.33838 6.31516 6.33842C6.22424 6.426 6.10357 6.47593 5.97739 6.47823C5.91229 6.47833 5.8478 6.46573 5.78752 6.44111C5.72685 6.41633 5.67166 6.37987 5.62506 6.3338C5.62486 6.33361 5.62467 6.33341 5.62447 6.33322L1.62592 2.33466C1.57911 2.28785 1.54198 2.23228 1.51664 2.17112C1.49131 2.10996 1.47827 2.04441 1.47827 1.97821C1.47827 1.91201 1.49131 1.84646 1.51664 1.7853C1.54198 1.72415 1.57911 1.66858 1.62592 1.62177C1.67273 1.57496 1.7283 1.53782 1.78946 1.51249C1.85061 1.48716 1.91616 1.47412 1.98236 1.47412C2.04856 1.47412 2.11411 1.48716 2.17527 1.51249C2.23624 1.53775 2.29165 1.57472 2.33837 1.62133C2.33852 1.62147 2.33866 1.62162 2.33881 1.62177L5.62774 4.93069Z" fill="white" stroke="#72727E"/>
</svg>
