<svg width="24" height="24" viewBox="0 0 24 24" fill="none" xmlns="http://www.w3.org/2000/svg">
<circle cx="12" cy="12" r="11" stroke="black" stroke-opacity="0.1" stroke-width="2"/>
<path d="M12 0.983128C12 0.440161 12.4409 -0.00418829 12.9821 0.0402373C15.4864 0.245833 17.8725 1.23378 19.7954 2.87685C21.9683 4.73356 23.4072 7.30487 23.8531 10.128C24.299 12.9512 23.7225 15.8408 22.2275 18.2768C20.7325 20.7128 18.4171 22.5351 15.6981 23.416C12.979 24.2968 10.0349 24.1782 7.39553 23.0815C4.75615 21.9848 2.59488 19.982 1.30069 17.4337C0.00650428 14.8853 -0.335612 11.9587 0.335917 9.18057C0.93018 6.72208 2.28371 4.52274 4.19183 2.88776C4.60414 2.53447 5.22187 2.63587 5.54024 3.07571C5.85861 3.51554 5.75633 4.12678 5.34975 4.48664C3.8183 5.84211 2.73131 7.63946 2.24713 9.64255C1.68563 11.9655 1.97169 14.4125 3.05382 16.5433C4.13595 18.6741 5.94309 20.3487 8.14999 21.2657C10.3569 22.1827 12.8186 22.2819 15.0921 21.5454C17.3657 20.8089 19.3017 19.2851 20.5517 17.2483C21.8017 15.2115 22.2837 12.7953 21.9109 10.4348C21.5381 8.07419 20.335 5.9242 18.5181 4.37172C16.9514 3.03301 15.017 2.21441 12.9816 2.01437C12.4413 1.96126 12 1.52609 12 0.983128Z" fill="#FF7733"/>
<path d="M10.3949 16.4999C10.2921 16.4996 10.1904 16.4781 10.0962 16.4368C10.0021 16.3956 9.91737 16.3353 9.84744 16.2599L6.20244 12.3824C6.06619 12.2372 5.9932 12.0438 5.99953 11.8448C6.00585 11.6458 6.09099 11.4574 6.23619 11.3212C6.3814 11.1849 6.57478 11.1119 6.77381 11.1183C6.97283 11.1246 7.16119 11.2097 7.29744 11.3549L10.3874 14.6474L16.6949 7.74743C16.759 7.66772 16.8386 7.60194 16.9289 7.55413C17.0193 7.50632 17.1185 7.47748 17.2204 7.46939C17.3223 7.4613 17.4248 7.47413 17.5215 7.5071C17.6183 7.54006 17.7073 7.59245 17.7831 7.66107C17.8589 7.72968 17.9198 7.81306 17.9622 7.90609C18.0046 7.99912 18.0275 8.09983 18.0296 8.20204C18.0316 8.30424 18.0127 8.40579 17.9741 8.50044C17.9355 8.59509 17.8779 8.68084 17.8049 8.75243L10.9499 16.2524C10.8807 16.3292 10.7963 16.3908 10.7021 16.4334C10.6078 16.476 10.5058 16.4986 10.4024 16.4999H10.3949Z" fill="#FF7733"/>
</svg>
