<svg width="71" height="14" viewBox="0 0 71 14" fill="none" xmlns="http://www.w3.org/2000/svg">
<path d="M6.58756 0.601793C6.78617 0.312007 7.21383 0.312007 7.41244 0.601793L9.36818 3.45547C9.4332 3.55033 9.52893 3.61988 9.63924 3.6524L12.9576 4.6306C13.2946 4.72993 13.4267 5.13666 13.2125 5.41509L11.1029 8.15696C11.0327 8.2481 10.9962 8.36064 10.9993 8.47561L11.0944 11.9338C11.1041 12.285 10.7581 12.5364 10.4271 12.4187L7.16752 11.2596C7.05917 11.221 6.94083 11.221 6.83248 11.2596L3.5729 12.4187C3.24189 12.5364 2.8959 12.285 2.90556 11.9338L3.00067 8.47561C3.00384 8.36064 2.96727 8.2481 2.89714 8.15696L0.787494 5.41509C0.573263 5.13666 0.705419 4.72993 1.04239 4.6306L4.36076 3.6524C4.47107 3.61988 4.5668 3.55033 4.63182 3.45547L6.58756 0.601793Z" fill="#595966"/>
<path d="M25.5876 0.601793C25.7862 0.312007 26.2138 0.312007 26.4124 0.601793L28.3682 3.45547C28.4332 3.55033 28.5289 3.61988 28.6392 3.6524L31.9576 4.6306C32.2946 4.72993 32.4267 5.13666 32.2125 5.41509L30.1029 8.15696C30.0327 8.2481 29.9962 8.36064 29.9993 8.47561L30.0944 11.9338C30.1041 12.285 29.7581 12.5364 29.4271 12.4187L26.1675 11.2596C26.0592 11.221 25.9408 11.221 25.8325 11.2596L22.5729 12.4187C22.2419 12.5364 21.8959 12.285 21.9056 11.9338L22.0007 8.47561C22.0038 8.36064 21.9673 8.2481 21.8971 8.15696L19.7875 5.41509C19.5733 5.13666 19.7054 4.72993 20.0424 4.6306L23.3608 3.6524C23.4711 3.61988 23.5668 3.55033 23.6318 3.45547L25.5876 0.601793Z" fill="#595966"/>
<path d="M44.5876 0.601793C44.7862 0.312007 45.2138 0.312007 45.4124 0.601793L47.3682 3.45547C47.4332 3.55033 47.5289 3.61988 47.6392 3.6524L50.9576 4.6306C51.2946 4.72993 51.4267 5.13666 51.2125 5.41509L49.1029 8.15696C49.0327 8.2481 48.9962 8.36064 48.9993 8.47561L49.0944 11.9338C49.1041 12.285 48.7581 12.5364 48.4271 12.4187L45.1675 11.2596C45.0592 11.221 44.9408 11.221 44.8325 11.2596L41.5729 12.4187C41.2419 12.5364 40.8959 12.285 40.9056 11.9338L41.0007 8.47561C41.0038 8.36064 40.9673 8.2481 40.8971 8.15696L38.7875 5.41509C38.5733 5.13666 38.7054 4.72993 39.0424 4.6306L42.3608 3.6524C42.4711 3.61988 42.5668 3.55033 42.6318 3.45547L44.5876 0.601793Z" fill="#595966"/>
<path d="M63.5876 0.601793C63.7862 0.312007 64.2138 0.312007 64.4124 0.601793L66.3682 3.45547C66.4332 3.55033 66.5289 3.61988 66.6392 3.6524L69.9576 4.6306C70.2946 4.72993 70.4267 5.13666 70.2125 5.41509L68.1029 8.15696C68.0327 8.2481 67.9962 8.36064 67.9993 8.47561L68.0944 11.9338C68.1041 12.285 67.7581 12.5364 67.4271 12.4187L64.1675 11.2596C64.0592 11.221 63.9408 11.221 63.8325 11.2596L60.5729 12.4187C60.2419 12.5364 59.8959 12.285 59.9056 11.9338L60.0007 8.47561C60.0038 8.36064 59.9673 8.2481 59.8971 8.15696L57.7875 5.41509C57.5733 5.13666 57.7054 4.72993 58.0424 4.6306L61.3608 3.6524C61.4711 3.61988 61.5668 3.55033 61.6318 3.45547L63.5876 0.601793Z" fill="#595966"/>
</svg>
