<svg width="16" height="16" viewBox="0 0 16 16" fill="none" xmlns="http://www.w3.org/2000/svg">
<path d="M10.3878 9.70604C9.72996 9.12132 8.88043 8.79834 8.00029 8.79834C7.12016 8.79834 6.27063 9.12132 5.61279 9.70604" stroke="#42424E" stroke-width="1.25" stroke-linecap="round" stroke-linejoin="round"/>
<path d="M12.2956 7.79802C11.1305 6.70859 9.59504 6.10254 7.99997 6.10254C6.4049 6.10254 4.86942 6.70859 3.70435 7.79802" stroke="#42424E" stroke-width="1.25" stroke-linecap="round" stroke-linejoin="round"/>
<path d="M13.9912 5.69096C12.3422 4.21994 10.2097 3.40698 7.99992 3.40698C5.79016 3.40698 3.65764 4.21994 2.00867 5.69096" stroke="#42424E" stroke-width="1.25" stroke-linecap="round" stroke-linejoin="round"/>
<path d="M8 13C7.80222 13 7.60888 12.9414 7.44443 12.8315C7.27998 12.7216 7.15181 12.5654 7.07612 12.3827C7.00043 12.2 6.98063 11.9989 7.01922 11.8049C7.0578 11.6109 7.15304 11.4327 7.29289 11.2929C7.43275 11.153 7.61093 11.0578 7.80491 11.0192C7.99889 10.9806 8.19996 11.0004 8.38268 11.0761C8.56541 11.1518 8.72159 11.28 8.83147 11.4444C8.94135 11.6089 9 11.8022 9 12C9 12.2652 8.89464 12.5196 8.70711 12.7071C8.51957 12.8946 8.26522 13 8 13Z" fill="#42424E"/>
</svg>
