<svg width="16" height="16" viewBox="0 0 16 16" fill="none" xmlns="http://www.w3.org/2000/svg">
<path d="M2.51169 2L12.6981 12.2327C12.8914 12.4268 13 12.6902 13 12.9648C13 13.2394 12.8914 13.5027 12.6981 13.6969V13.6969C12.5048 13.891 12.2427 14 11.9693 14C11.696 14 11.4339 13.891 11.2405 13.6969L8.75218 11.1542C8.58934 10.9881 8.49798 10.7644 8.49781 10.5312V10.3776C8.49784 10.2599 8.47458 10.1434 8.4294 10.0348C8.38421 9.92617 8.318 9.82766 8.2346 9.74496L7.91333 9.44695C7.80427 9.34586 7.67164 9.27395 7.52766 9.23784C7.38369 9.20173 7.23298 9.20258 7.08941 9.24032V9.24032C6.86302 9.29967 6.62511 9.29852 6.3993 9.23699C6.17348 9.17546 5.96761 9.05568 5.80211 8.88953L3.44012 6.51655C2.03891 5.10898 1.52327 2.98347 2.51169 2Z" stroke="#42424E" stroke-width="1.25" stroke-linejoin="round"/>
<path d="M12 2L9.9308 3.93125C9.77158 4.07983 9.64527 4.25623 9.5591 4.45037C9.47292 4.64452 9.42857 4.8526 9.42857 5.06275V5.43425C9.42858 5.48681 9.41749 5.53886 9.39593 5.58742C9.37438 5.63598 9.34278 5.6801 9.30295 5.71725L9 6" stroke="#42424E" stroke-width="1.25" stroke-linecap="round" stroke-linejoin="round"/>
<path d="M10 7L10.2827 6.69705C10.3199 6.65722 10.364 6.62562 10.4126 6.60407C10.4611 6.58251 10.5132 6.57142 10.5658 6.57143H10.9372C11.1474 6.57143 11.3555 6.52708 11.5496 6.4409C11.7438 6.35473 11.9202 6.22842 12.0688 6.0692L14 4" stroke="#42424E" stroke-width="1.25" stroke-linecap="round" stroke-linejoin="round"/>
<path d="M13 3L11 5" stroke="#42424E" stroke-width="1.25" stroke-linecap="round" stroke-linejoin="round"/>
<path d="M7 11.0527L4.03199 13.6918C3.80873 13.8891 3.50597 14 3.19028 14C2.87459 14 2.57183 13.8891 2.34857 13.6918V13.6918C2.12538 13.4944 2 13.2267 2 12.9475C2 12.6684 2.12538 12.4007 2.34857 12.2033L4.85703 10" stroke="#42424E" stroke-width="1.25" stroke-linecap="round" stroke-linejoin="round"/>
</svg>
