<svg width="16" height="16" viewBox="0 0 16 16" fill="none" xmlns="http://www.w3.org/2000/svg">
<path d="M14.4063 10.9062L13.3438 10.2925C13.536 10.0945 13.7566 9.92598 13.9982 9.7925C14.1561 9.70345 14.2725 9.55561 14.3219 9.38117C14.3714 9.20673 14.3499 9.01981 14.2623 8.86111C14.1746 8.70241 14.0277 8.58478 13.8537 8.53383C13.6797 8.48287 13.4926 8.50273 13.3332 8.58906C12.8719 8.84438 12.4631 9.18476 12.1285 9.59219L9.37503 8L12.1278 6.41062C12.4624 6.81814 12.8712 7.15853 13.3325 7.41375C13.4116 7.45833 13.4987 7.48681 13.5889 7.49755C13.679 7.50829 13.7704 7.50106 13.8577 7.4763C13.9451 7.45153 14.0266 7.40972 14.0977 7.35327C14.1688 7.29681 14.228 7.22684 14.2719 7.14739C14.3158 7.06793 14.3436 6.98057 14.3535 6.89034C14.3635 6.80011 14.3555 6.7088 14.33 6.62168C14.3045 6.53456 14.2619 6.45335 14.2049 6.38275C14.1478 6.31214 14.0774 6.25354 13.9975 6.21031C13.756 6.07676 13.5355 5.90827 13.3432 5.71031L14.4057 5.09656C14.4869 5.05311 14.5586 4.99376 14.6165 4.92205C14.6744 4.85033 14.7173 4.76771 14.7426 4.67909C14.7679 4.59048 14.7751 4.49768 14.7638 4.40621C14.7526 4.31475 14.723 4.22648 14.677 4.14666C14.6309 4.06684 14.5693 3.99709 14.4957 3.94156C14.4222 3.88604 14.3382 3.84587 14.2488 3.82344C14.1594 3.80102 14.0664 3.79679 13.9754 3.81101C13.8843 3.82524 13.7971 3.85763 13.7188 3.90625L12.6563 4.51969C12.5806 4.25404 12.5446 3.97867 12.5494 3.7025C12.5514 3.61206 12.5355 3.52211 12.5027 3.43781C12.4698 3.35352 12.4207 3.27653 12.358 3.21127C12.2954 3.14601 12.2205 3.09375 12.1376 3.0575C12.0547 3.02125 11.9655 3.00171 11.875 3H11.8622C11.6821 2.99997 11.5091 3.07064 11.3806 3.19681C11.252 3.32299 11.1781 3.49458 11.1747 3.67469C11.165 4.20152 11.2552 4.72543 11.4403 5.21875L8.68753 6.80906V3.63063C9.20765 3.54466 9.70678 3.3609 10.1585 3.08906C10.3147 2.99495 10.4271 2.84265 10.471 2.66566C10.5148 2.48868 10.4866 2.3015 10.3925 2.14531C10.2984 1.98912 10.1461 1.87672 9.96913 1.83282C9.79214 1.78893 9.60497 1.81714 9.44878 1.91125C9.21201 2.05355 8.95548 2.16002 8.68753 2.22719V1.1875C8.68753 1.00516 8.61509 0.830295 8.48616 0.701364C8.35723 0.572433 8.18236 0.5 8.00003 0.5C7.81769 0.5 7.64282 0.572433 7.51389 0.701364C7.38496 0.830295 7.31253 1.00516 7.31253 1.1875V2.22719C7.04458 2.16002 6.78805 2.05355 6.55128 1.91125C6.47394 1.86465 6.38818 1.83374 6.2989 1.82028C6.20962 1.80683 6.11856 1.81109 6.03093 1.83282C5.94329 1.85456 5.8608 1.89334 5.78815 1.94696C5.7155 2.00058 5.65413 2.06798 5.60753 2.14531C5.56093 2.22265 5.53002 2.30841 5.51656 2.39769C5.50311 2.48697 5.50737 2.57803 5.5291 2.66566C5.55084 2.7533 5.58962 2.83579 5.64324 2.90844C5.69685 2.98109 5.76425 3.04246 5.84159 3.08906C6.29328 3.3609 6.7924 3.54466 7.31253 3.63063V6.80906L4.55972 5.21875C4.74519 4.72528 4.83553 4.20115 4.82597 3.67406C4.82261 3.49396 4.7487 3.32236 4.62013 3.19619C4.49156 3.07001 4.3186 2.99934 4.13846 2.99938H4.12503C4.03474 3.00104 3.94566 3.02048 3.86289 3.05658C3.78011 3.09268 3.70526 3.14473 3.64261 3.20976C3.57996 3.2748 3.53073 3.35154 3.49774 3.4356C3.46475 3.51966 3.44864 3.6094 3.45034 3.69969C3.45538 3.97626 3.41947 4.25206 3.34378 4.51813L2.28128 3.90625C2.20304 3.85958 2.1163 3.82892 2.0261 3.81606C1.93591 3.80321 1.84406 3.8084 1.7559 3.83135C1.66773 3.8543 1.585 3.89455 1.51252 3.94975C1.44005 4.00495 1.37926 4.074 1.3337 4.1529C1.28815 4.23179 1.25873 4.31896 1.24715 4.40933C1.23557 4.49969 1.24207 4.59146 1.26627 4.67929C1.29047 4.76712 1.33188 4.84927 1.38811 4.92096C1.44433 4.99264 1.51424 5.05244 1.59378 5.09688L2.65628 5.71063C2.46395 5.90859 2.24344 6.07707 2.0019 6.21063C1.92208 6.25385 1.8516 6.31246 1.79454 6.38306C1.73748 6.45366 1.69497 6.53487 1.66946 6.62199C1.64395 6.70911 1.63595 6.80042 1.64591 6.89065C1.65588 6.98088 1.68361 7.06824 1.72752 7.1477C1.77142 7.22715 1.83063 7.29713 1.90172 7.35358C1.97281 7.41003 2.05438 7.45185 2.14171 7.47661C2.22905 7.50137 2.32042 7.5086 2.41056 7.49786C2.5007 7.48713 2.58783 7.45865 2.6669 7.41406C3.12819 7.15874 3.53696 6.81837 3.87159 6.41094L6.62503 8L3.87222 9.58937C3.53758 9.18194 3.12882 8.84157 2.66753 8.58625C2.58845 8.54167 2.50133 8.51319 2.41119 8.50245C2.32105 8.49172 2.22967 8.49894 2.14234 8.5237C2.055 8.54847 1.97343 8.59028 1.90234 8.64673C1.83125 8.70319 1.77205 8.77316 1.72814 8.85261C1.68424 8.93207 1.6565 9.01943 1.64654 9.10966C1.63657 9.19989 1.64458 9.2912 1.67009 9.37832C1.6956 9.46544 1.73811 9.54665 1.79517 9.61725C1.85222 9.68786 1.9227 9.74646 2.00253 9.78969C2.24407 9.92324 2.46457 10.0917 2.6569 10.2897L1.59378 10.9062C1.51424 10.9507 1.44433 11.0105 1.38811 11.0822C1.33188 11.1539 1.29047 11.236 1.26627 11.3238C1.24207 11.4117 1.23557 11.5034 1.24715 11.5938C1.25873 11.6842 1.28815 11.7713 1.3337 11.8502C1.37926 11.9291 1.44005 11.9982 1.51252 12.0534C1.585 12.1086 1.66773 12.1488 1.7559 12.1718C1.84406 12.1947 1.93591 12.1999 2.0261 12.1871C2.1163 12.1742 2.20304 12.1435 2.28128 12.0969L3.34378 11.4834C3.41945 11.7491 3.45547 12.0245 3.45065 12.3006C3.44747 12.4828 3.51671 12.6587 3.64315 12.7898C3.76959 12.921 3.9429 12.9966 4.12503 13H4.13784C4.31798 13 4.49093 12.9294 4.6195 12.8032C4.74807 12.677 4.82198 12.5054 4.82534 12.3253C4.83502 11.7985 4.74489 11.2746 4.55972 10.7812L7.31253 9.19094V12.3694C6.7924 12.4553 6.29328 12.6391 5.84159 12.9109C5.6854 13.005 5.573 13.1573 5.5291 13.3343C5.48521 13.5113 5.51342 13.6985 5.60753 13.8547C5.70164 14.0109 5.85394 14.1233 6.03093 14.1672C6.20791 14.2111 6.39509 14.1829 6.55128 14.0887C6.78805 13.9464 7.04458 13.84 7.31253 13.7728V14.8125C7.31253 14.9948 7.38496 15.1697 7.51389 15.2986C7.64282 15.4276 7.81769 15.5 8.00003 15.5C8.18236 15.5 8.35723 15.4276 8.48616 15.2986C8.61509 15.1697 8.68753 14.9948 8.68753 14.8125V13.7728C8.95548 13.84 9.21201 13.9464 9.44878 14.0887C9.60497 14.1829 9.79214 14.2111 9.96913 14.1672C10.1461 14.1233 10.2984 14.0109 10.3925 13.8547C10.4866 13.6985 10.5148 13.5113 10.471 13.3343C10.4271 13.1573 10.3147 13.005 10.1585 12.9109C9.70678 12.6391 9.20765 12.4553 8.68753 12.3694V9.19094L11.4403 10.7812C11.2549 11.2747 11.1645 11.7989 11.1741 12.3259C11.1774 12.506 11.2514 12.6776 11.3799 12.8038C11.5085 12.93 11.6815 13.0007 11.8616 13.0006H11.875C11.9653 12.999 12.0544 12.9795 12.1372 12.9434C12.2199 12.9073 12.2948 12.8553 12.3574 12.7902C12.4201 12.7252 12.4693 12.6485 12.5023 12.5644C12.5353 12.4803 12.5514 12.3906 12.5497 12.3003C12.5447 12.0237 12.5806 11.7479 12.6563 11.4819L13.7188 12.0953C13.797 12.1455 13.8846 12.1794 13.9763 12.1948C14.068 12.2102 14.1619 12.2069 14.2522 12.1849C14.3426 12.163 14.4276 12.123 14.502 12.0673C14.5765 12.0116 14.6389 11.9414 14.6854 11.8609C14.732 11.7804 14.7617 11.6913 14.7728 11.599C14.7839 11.5067 14.7762 11.4131 14.7501 11.3239C14.724 11.2346 14.6801 11.1516 14.621 11.0798C14.5619 11.008 14.4889 10.949 14.4063 10.9062Z" fill="#42424E"/>
</svg>
