<svg width="16" height="16" viewBox="0 0 16 16" fill="none" xmlns="http://www.w3.org/2000/svg">
<path d="M6 7.25C6 7.38807 5.88807 7.5 5.75 7.5C5.61193 7.5 5.5 7.38807 5.5 7.25C5.5 7.11193 5.61193 7 5.75 7C5.88807 7 6 7.11193 6 7.25Z" fill="#42424E" stroke="#42424E"/>
<path d="M10.3881 10C9.98424 10.8782 9.07354 11.5 8.00154 11.5C6.9301 11.5 6.01927 10.8786 5.61308 10H10.3881Z" fill="#42424E" stroke="#42424E"/>
<path d="M10.5 7.25C10.5 7.38807 10.3881 7.5 10.25 7.5C10.1119 7.5 10 7.38807 10 7.25C10 7.11193 10.1119 7 10.25 7C10.3881 7 10.5 7.11193 10.5 7.25Z" fill="#42424E" stroke="#42424E"/>
<path d="M8 14.5C11.5899 14.5 14.5 11.5899 14.5 8C14.5 4.41015 11.5899 1.5 8 1.5C4.41015 1.5 1.5 4.41015 1.5 8C1.5 11.5899 4.41015 14.5 8 14.5Z" stroke="#42424E" stroke-width="1.25" stroke-miterlimit="10"/>
</svg>
