<svg width="16" height="16" viewBox="0 0 16 16" fill="none" xmlns="http://www.w3.org/2000/svg">
<path d="M13.6016 1.5H9.76096C9.64154 1.49991 9.52695 1.5471 9.44221 1.63125L1.76409 9.30938C1.59597 9.47832 1.50159 9.70697 1.50159 9.94531C1.50159 10.1837 1.59597 10.4123 1.76409 10.5813L5.42034 14.2375C5.58929 14.4056 5.81793 14.5 6.05628 14.5C6.29462 14.5 6.52327 14.4056 6.69221 14.2375L14.3672 6.5625C14.4514 6.47777 14.4986 6.36317 14.4985 6.24375V2.4C14.499 2.28191 14.4763 2.16488 14.4314 2.05563C14.3866 1.94638 14.3206 1.84707 14.2373 1.76342C14.1539 1.67978 14.0548 1.61344 13.9457 1.56823C13.8366 1.52302 13.7197 1.49983 13.6016 1.5Z" stroke="#42424E" stroke-width="1.25" stroke-linecap="round" stroke-linejoin="round"/>
<path d="M12 5C11.8022 5 11.6089 4.94135 11.4444 4.83147C11.28 4.72159 11.1518 4.56541 11.0761 4.38268C11.0004 4.19996 10.9806 3.99889 11.0192 3.80491C11.0578 3.61093 11.153 3.43275 11.2929 3.29289C11.4327 3.15304 11.6109 3.0578 11.8049 3.01922C11.9989 2.98063 12.2 3.00043 12.3827 3.07612C12.5654 3.15181 12.7216 3.27998 12.8315 3.44443C12.9414 3.60888 13 3.80222 13 4C13 4.26522 12.8947 4.51957 12.7071 4.70711C12.5196 4.89464 12.2652 5 12 5Z" fill="#42424E"/>
</svg>
