<svg width="16" height="16" viewBox="0 0 16 16" fill="none" xmlns="http://www.w3.org/2000/svg">
<path fill-rule="evenodd" clip-rule="evenodd" d="M3.7757 13.8321L3.77625 13.8316L3.78038 13.828L3.79954 13.8113C3.81707 13.7961 3.84393 13.7731 3.87936 13.7433C3.95026 13.6837 4.05519 13.5972 4.18794 13.4929C4.45412 13.2837 4.82853 13.0054 5.26181 12.7283C6.1629 12.1519 7.18811 11.6667 8 11.6667C8.81189 11.6667 9.8371 12.1519 10.7382 12.7283C11.1715 13.0054 11.5459 13.2837 11.8121 13.4929C11.9448 13.5972 12.0497 13.6837 12.1206 13.7433C12.1561 13.7731 12.1829 13.7961 12.2005 13.8113L12.2196 13.828L12.2238 13.8316C12.2238 13.8316 12.2242 13.832 12.2243 13.8321C12.4997 14.0763 12.921 14.0512 13.1653 13.7759C13.4097 13.5005 13.3846 13.0791 13.1092 12.8347L12.6667 13.3333C13.1092 12.8347 13.1093 12.8348 13.1092 12.8347L13.108 12.8336L13.1058 12.8317L13.0985 12.8253L13.0728 12.803C13.0508 12.7839 13.0192 12.7568 12.9788 12.7228C12.898 12.6549 12.7816 12.559 12.636 12.4446C12.3456 12.2163 11.9353 11.9113 11.4566 11.6051C10.5338 11.0148 9.22567 10.3333 8 10.3333C6.77433 10.3333 5.46621 11.0148 4.54336 11.6051C4.06466 11.9113 3.65444 12.2163 3.364 12.4446C3.21843 12.559 3.10204 12.6549 3.0212 12.7228C2.98076 12.7568 2.94916 12.7839 2.92717 12.803L2.9015 12.8253L2.89424 12.8317L2.89205 12.8336L2.89131 12.8343C2.89119 12.8344 2.89081 12.8347 3.33333 13.3333L2.89131 12.8343C2.61593 13.0787 2.59032 13.5005 2.83472 13.7759C3.07905 14.0512 3.50032 14.0763 3.7757 13.8321C3.77572 13.8321 3.77567 13.8321 3.7757 13.8321Z" fill="#72727E"/>
<path fill-rule="evenodd" clip-rule="evenodd" d="M8 12C9.84095 12 11.3333 10.5076 11.3333 8.66667C11.3333 6.82572 9.84095 5.33333 8 5.33333C6.15905 5.33333 4.66667 6.82572 4.66667 8.66667C4.66667 10.5076 6.15905 12 8 12ZM8 13.3333C10.5773 13.3333 12.6667 11.244 12.6667 8.66667C12.6667 6.08934 10.5773 4 8 4C5.42267 4 3.33333 6.08934 3.33333 8.66667C3.33333 11.244 5.42267 13.3333 8 13.3333Z" fill="#72727E"/>
<path fill-rule="evenodd" clip-rule="evenodd" d="M2 2.66667C2 2.29848 2.29848 2 2.66667 2H13.3333C13.7015 2 14 2.29848 14 2.66667C14 3.03486 13.7015 3.33333 13.3333 3.33333H2.66667C2.29848 3.33333 2 3.03486 2 2.66667Z" fill="#72727E"/>
<path fill-rule="evenodd" clip-rule="evenodd" d="M7.33333 4.33333V2.66667H8.66667V4.33333H7.33333Z" fill="#72727E"/>
<path fill-rule="evenodd" clip-rule="evenodd" d="M8 13.3333C10.5773 13.3333 12.6667 11.244 12.6667 8.66667H3.33333C3.33333 11.244 5.42267 13.3333 8 13.3333Z" fill="#72727E"/>
</svg>
