<svg width="24" height="24" viewBox="0 0 24 24" fill="none" xmlns="http://www.w3.org/2000/svg">
<path d="M17.5437 9.61311L17.545 9.61647C18.1762 11.2743 18.5 13.0837 18.5 15C18.5 18.583 15.583 21.5 12 21.5C8.41697 21.5 5.5 18.583 5.5 15C5.5 13.2062 6.51941 11.5885 7.73798 9.72079L7.73803 9.72072C7.76939 9.67264 7.80091 9.62437 7.83255 9.57592C9.13105 7.58746 10.6353 5.28394 10.0691 2.51601C11.5637 2.66165 13.579 3.79518 15.2203 5.69465C16.2179 6.85487 17.0043 8.18113 17.5437 9.61311ZM14.2444 20.3107L14.2446 20.3105C14.9673 19.5406 15.25 18.4256 15.25 17.25C15.25 15.8748 14.6361 14.3377 13.6908 13.0877C13.3139 12.5805 12.8694 12.1273 12.3696 11.7407L12.3593 11.7327L12.3488 11.725C12.167 11.5917 11.9551 11.5052 11.7319 11.4731C11.5087 11.4409 11.2811 11.4642 11.069 11.5407C10.8569 11.6173 10.6669 11.7449 10.5157 11.9122C10.3654 12.0785 10.2581 12.2791 10.2031 12.4963C10.0887 12.9415 9.89296 13.3715 9.65463 13.8886L9.65451 13.8889C9.64761 13.9038 9.64068 13.9189 9.63372 13.934C9.24164 14.7849 8.75 15.8519 8.75 17.25C8.75 18.4242 9.02835 19.5363 9.75557 20.3107C10.4979 21.1011 11.42 21.25 12 21.25C12.58 21.25 13.5021 21.1011 14.2444 20.3107Z" fill="#E4E4EB" stroke="#E4E4EB" stroke-width="2" stroke-miterlimit="10"/>
</svg>
