<svg width="41" height="40" viewBox="0 0 41 40" fill="none" xmlns="http://www.w3.org/2000/svg">
<path d="M0.5 20C0.5 8.95431 9.45431 0 20.5 0C31.5457 0 40.5 8.95431 40.5 20C40.5 31.0457 31.5457 40 20.5 40C9.45431 40 0.5 31.0457 0.5 20Z" fill="#1F1F26"/>
<path d="M22.125 12.5L12.625 12.5C12.1277 12.5 11.6508 12.6975 11.2992 13.0492C10.9475 13.4008 10.75 13.8777 10.75 14.375L10.75 25.625C10.75 26.1223 10.9475 26.5992 11.2992 26.9508C11.6508 27.3025 12.1277 27.5 12.625 27.5C12.625 27.5 20.3676 27.5 22.125 27.5" stroke="white" stroke-width="2" stroke-linecap="round" stroke-linejoin="round"/>
<path d="M26.5 23.75L30.25 20L26.5 16.25" stroke="white" stroke-width="2" stroke-linecap="round" stroke-linejoin="round"/>
<path d="M17.4531 20L30.25 20" stroke="white" stroke-width="2" stroke-linecap="round" stroke-linejoin="round"/>
</svg>
