<svg width="16" height="16" viewBox="0 0 16 16" fill="none" xmlns="http://www.w3.org/2000/svg">
<path d="M7 1.33325V4.66658" stroke="#595966" stroke-width="1.25" stroke-linecap="round" stroke-linejoin="round"/>
<path d="M9 1.33325V4.66658" stroke="#595966" stroke-width="1.25" stroke-linecap="round" stroke-linejoin="round"/>
<path fill-rule="evenodd" clip-rule="evenodd" d="M2 7C2 5.34314 3.34315 4 5 4H11C12.6569 4 14 5.34315 14 7V12.3333C14 13.9902 12.6569 15.3333 11 15.3333H5C3.34315 15.3333 2 13.9902 2 12.3333V7ZM6.66667 6.70833C7.01184 6.70833 7.29167 6.98816 7.29167 7.33333L7.29167 12C7.29167 12.3452 7.01184 12.625 6.66667 12.625C6.32149 12.625 6.04167 12.3452 6.04167 12L6.04167 7.33333C6.04167 6.98816 6.32149 6.70833 6.66667 6.70833ZM9.95833 7.33333C9.95833 6.98816 9.67851 6.70833 9.33333 6.70833C8.98816 6.70833 8.70833 6.98816 8.70833 7.33333L8.70833 12C8.70833 12.3452 8.98816 12.625 9.33333 12.625C9.67851 12.625 9.95833 12.3452 9.95833 12L9.95833 7.33333Z" fill="#595966"/>
<path d="M10.6667 1.33325H5.33337" stroke="#595966" stroke-width="1.25" stroke-linecap="round" stroke-linejoin="round"/>
</svg>
