<svg width="52" height="40" viewBox="0 0 52 40" fill="none" xmlns="http://www.w3.org/2000/svg">
<path d="M0 20C0 8.95431 8.95431 0 20 0H32C43.0457 0 52 8.95431 52 20C52 31.0457 43.0457 40 32 40H20C8.9543 40 0 31.0457 0 20Z" fill="#0078FF"/>
<path d="M26 10C20.475 10 16 14.1417 16 19.2583C16 22.175 17.45 24.775 19.725 26.4667V30L23.1333 28.1333C24.0417 28.3833 25 28.5167 26 28.5167C31.525 28.5167 36 24.375 36 19.2667C36 14.1333 31.525 10 26 10ZM27 22.4667L24.45 19.75L19.475 22.4667L24.9417 16.6667L27.55 19.3833L32.4667 16.6667L26.9917 22.4667H27Z" fill="white"/>
</svg>
