<svg width="20" height="20" viewBox="0 0 20 20" fill="none" xmlns="http://www.w3.org/2000/svg">
<path d="M4.72209 2.10104C6.28435 1.05717 8.12108 0.5 10 0.5C11.2476 0.5 12.4829 0.745725 13.6355 1.22314C14.7881 1.70056 15.8354 2.40033 16.7175 3.28249C17.5997 4.16464 18.2994 5.21191 18.7769 6.36451C19.2543 7.5171 19.5 8.75244 19.5 10C19.5 11.8789 18.9428 13.7157 17.899 15.2779C16.8551 16.8402 15.3714 18.0578 13.6355 18.7769C11.8996 19.4959 9.98947 19.684 8.14665 19.3175C6.30383 18.9509 4.61109 18.0461 3.28249 16.7175C1.95389 15.3889 1.0491 13.6962 0.682544 11.8534C0.315985 10.0105 0.504116 8.1004 1.22315 6.36451C1.94218 4.62861 3.15982 3.14491 4.72209 2.10104ZM7 11.5H13C13.3978 11.5 13.7794 11.342 14.0607 11.0607C14.342 10.7794 14.5 10.3978 14.5 10C14.5 9.60217 14.342 9.22064 14.0607 8.93934C13.7794 8.65804 13.3978 8.5 13 8.5H7C6.60218 8.5 6.22065 8.65804 5.93934 8.93934C5.65804 9.22064 5.5 9.60217 5.5 10C5.5 10.3978 5.65804 10.7794 5.93934 11.0607C6.22065 11.342 6.60218 11.5 7 11.5Z" fill="#72727E" stroke="#72727E"/>
</svg>
