<svg width="40" height="40" viewBox="0 0 40 40" fill="none" xmlns="http://www.w3.org/2000/svg">
<path d="M0 4.77C0 3.11814 0 2.29221 0.316366 1.65906C0.606746 1.07792 1.07792 0.606746 1.65906 0.316366C2.29221 0 3.11814 0 4.77 0H35.23C36.8819 0 37.7078 0 38.3409 0.316366C38.9221 0.606746 39.3933 1.07792 39.6836 1.65906C40 2.29221 40 3.11814 40 4.77V35.23C40 36.8819 40 37.7078 39.6836 38.3409C39.3933 38.9221 38.9221 39.3933 38.3409 39.6836C37.7078 40 36.8819 40 35.23 40H4.77C3.11814 40 2.29221 40 1.65906 39.6836C1.07792 39.3933 0.606746 38.9221 0.316366 38.3409C0 37.7078 0 36.8819 0 35.23V4.77Z" fill="#FAECEC"/>
<path d="M20 10C18.0222 10 16.0888 10.5865 14.4443 11.6853C12.7998 12.7841 11.5181 14.3459 10.7612 16.1732C10.0043 18.0004 9.8063 20.0111 10.1922 21.9509C10.578 23.8907 11.5304 25.6725 12.9289 27.0711C14.3275 28.4696 16.1093 29.422 18.0491 29.8079C19.9889 30.1937 21.9996 29.9957 23.8268 29.2388C25.6541 28.4819 27.2159 27.2002 28.3147 25.5557C29.4135 23.9112 30 21.9778 30 20C30 18.6868 29.7413 17.3864 29.2388 16.1732C28.7363 14.9599 27.9997 13.8575 27.0711 12.9289C26.1425 12.0003 25.0401 11.2638 23.8268 10.7612C22.6136 10.2587 21.3132 10 20 10ZM23 21H17C16.7348 21 16.4804 20.8946 16.2929 20.7071C16.1054 20.5196 16 20.2652 16 20C16 19.7348 16.1054 19.4804 16.2929 19.2929C16.4804 19.1054 16.7348 19 17 19H23C23.2652 19 23.5196 19.1054 23.7071 19.2929C23.8946 19.4804 24 19.7348 24 20C24 20.2652 23.8946 20.5196 23.7071 20.7071C23.5196 20.8946 23.2652 21 23 21Z" fill="#DE4B4B"/>
</svg>
