<svg width="25" height="24" viewBox="0 0 25 24" fill="none" xmlns="http://www.w3.org/2000/svg">
<path d="M18.125 6.75C17.9413 9.22828 16.0625 11.25 14 11.25C11.9375 11.25 10.0555 9.22875 9.87504 6.75C9.68754 4.17188 11.5157 2.25 14 2.25C16.4844 2.25 18.3125 4.21875 18.125 6.75Z" stroke="#E4E4EB" stroke-width="2" stroke-miterlimit="10"/>
<path d="M14 14.25C9.9219 14.25 5.78284 16.5 5.0169 20.7469C4.92315 21.2588 5.21425 21.75 5.7505 21.75H22.25C22.7863 21.75 23.076 21.2588 22.9836 20.7469C22.2172 16.5 18.0782 14.25 14 14.25Z" stroke="#E4E4EB" stroke-width="2" stroke-miterlimit="10"/>
<path d="M4.625 8.25V13.5" stroke="#E4E4EB" stroke-width="2" stroke-linecap="round" stroke-linejoin="round"/>
<path d="M7.25 10.875H2" stroke="#E4E4EB" stroke-width="2" stroke-linecap="round" stroke-linejoin="round"/>
</svg>
