<svg width="20" height="20" viewBox="0 0 20 20" fill="none" xmlns="http://www.w3.org/2000/svg">
<path d="M10 0.25C4.62391 0.25 0.25 4.62391 0.25 10C0.25 15.3761 4.62391 19.75 10 19.75C15.3761 19.75 19.75 15.3761 19.75 10C19.75 4.62391 15.3761 0.25 10 0.25ZM13.75 10.75H10.75V13.75C10.75 13.9489 10.671 14.1397 10.5303 14.2803C10.3897 14.421 10.1989 14.5 10 14.5C9.80109 14.5 9.61032 14.421 9.46967 14.2803C9.32902 14.1397 9.25 13.9489 9.25 13.75V10.75H6.25C6.05109 10.75 5.86032 10.671 5.71967 10.5303C5.57902 10.3897 5.5 10.1989 5.5 10C5.5 9.80109 5.57902 9.61032 5.71967 9.46967C5.86032 9.32902 6.05109 9.25 6.25 9.25H9.25V6.25C9.25 6.05109 9.32902 5.86032 9.46967 5.71967C9.61032 5.57902 9.80109 5.5 10 5.5C10.1989 5.5 10.3897 5.57902 10.5303 5.71967C10.671 5.86032 10.75 6.05109 10.75 6.25V9.25H13.75C13.9489 9.25 14.1397 9.32902 14.2803 9.46967C14.421 9.61032 14.5 9.80109 14.5 10C14.5 10.1989 14.421 10.3897 14.2803 10.5303C14.1397 10.671 13.9489 10.75 13.75 10.75Z" fill="white"/>
</svg>
