<svg width="20" height="20" viewBox="0 0 20 20" fill="none" xmlns="http://www.w3.org/2000/svg">
<path d="M8.75 6.25V8.75H6.25C5.91848 8.75 5.60054 8.8817 5.36612 9.11612C5.1317 9.35054 5 9.66848 5 10C5 10.3315 5.1317 10.6495 5.36612 10.8839C5.60054 11.1183 5.91848 11.25 6.25 11.25H8.75V13.75C8.75 14.0815 8.8817 14.3995 9.11612 14.6339C9.35054 14.8683 9.66848 15 10 15C10.3315 15 10.6495 14.8683 10.8839 14.6339C11.1183 14.3995 11.25 14.0815 11.25 13.75V11.25H13.75C14.0815 11.25 14.3995 11.1183 14.6339 10.8839C14.8683 10.6495 15 10.3315 15 10C15 9.66848 14.8683 9.35054 14.6339 9.11612C14.3995 8.8817 14.0815 8.75 13.75 8.75H11.25V6.25C11.25 5.91848 11.1183 5.60054 10.8839 5.36612C10.6495 5.1317 10.3315 5 10 5C9.66848 5 9.35054 5.1317 9.11612 5.36612C8.8817 5.60054 8.75 5.91848 8.75 6.25ZM0.75 10C0.75 4.90005 4.90005 0.75 10 0.75C15.1 0.75 19.25 4.90005 19.25 10C19.25 15.1 15.1 19.25 10 19.25C4.90005 19.25 0.75 15.1 0.75 10Z" fill="#42424E" stroke="#42424E"/>
</svg>
