<svg width="20" height="20" viewBox="0 0 20 20" fill="none" xmlns="http://www.w3.org/2000/svg">
<rect width="20" height="20" rx="10" fill="#2B2B34"/>
<path d="M8.24945 7.916C8.24945 8.48067 8.39412 8.91233 8.68345 9.211C8.97745 9.505 9.39279 9.652 9.92945 9.652C10.2095 9.652 10.4591 9.60767 10.6785 9.519C10.8978 9.43033 11.0821 9.309 11.2315 9.155C11.3808 9.001 11.4928 8.819 11.5675 8.609C11.6468 8.399 11.6865 8.17267 11.6865 7.93C11.6865 7.65467 11.6445 7.40967 11.5605 7.195C11.4765 6.97567 11.3575 6.79133 11.2035 6.642C11.0495 6.49267 10.8651 6.37833 10.6505 6.299C10.4405 6.21967 10.2095 6.18 9.95745 6.18C9.69612 6.18 9.46045 6.22433 9.25045 6.313C9.04045 6.397 8.86079 6.516 8.71145 6.67C8.56212 6.824 8.44779 7.00833 8.36845 7.223C8.28912 7.433 8.24945 7.664 8.24945 7.916ZM10.5455 11.073C10.6248 10.975 10.6995 10.8793 10.7695 10.786C10.8395 10.6927 10.9071 10.5993 10.9725 10.506C10.7391 10.6553 10.4825 10.7697 10.2025 10.849C9.92245 10.9237 9.62845 10.961 9.32045 10.961C8.97045 10.961 8.62745 10.9003 8.29145 10.779C7.95545 10.6577 7.65679 10.4757 7.39545 10.233C7.13412 9.98567 6.92179 9.68233 6.75845 9.323C6.59979 8.959 6.52045 8.53433 6.52045 8.049C6.52045 7.59633 6.60445 7.17167 6.77245 6.775C6.94045 6.37833 7.17612 6.03067 7.47945 5.732C7.78279 5.43333 8.14679 5.19767 8.57145 5.025C8.99612 4.85233 9.46512 4.766 9.97845 4.766C10.4965 4.766 10.9608 4.84767 11.3715 5.011C11.7868 5.17433 12.1391 5.403 12.4285 5.697C12.7225 5.991 12.9465 6.34333 13.1005 6.754C13.2591 7.16467 13.3385 7.615 13.3385 8.105C13.3385 8.41767 13.3105 8.714 13.2545 8.994C13.2031 9.274 13.1285 9.54467 13.0305 9.806C12.9325 10.0627 12.8135 10.3147 12.6735 10.562C12.5335 10.8093 12.3771 11.0543 12.2045 11.297L9.88745 14.601C9.80812 14.713 9.68912 14.8087 9.53045 14.888C9.37179 14.9627 9.19212 15 8.99145 15H7.40245L10.5455 11.073Z" fill="#FF7733"/>
</svg>
