<svg width="40" height="40" viewBox="0 0 40 40" fill="none" xmlns="http://www.w3.org/2000/svg">
<path d="M14.7221 12.101C16.2844 11.0572 18.1211 10.5 20 10.5C21.2476 10.5 22.4829 10.7457 23.6355 11.2231C24.7881 11.7006 25.8354 12.4003 26.7175 13.2825C27.5997 14.1646 28.2994 15.2119 28.7769 16.3645C29.2543 17.5171 29.5 18.7524 29.5 20C29.5 21.8789 28.9428 23.7157 27.899 25.2779C26.8551 26.8402 25.3714 28.0578 23.6355 28.7769C21.8996 29.4959 19.9895 29.684 18.1466 29.3175C16.3038 28.9509 14.6111 28.0461 13.2825 26.7175C11.9539 25.3889 11.0491 23.6962 10.6825 21.8534C10.316 20.0105 10.5041 18.1004 11.2231 16.3645C11.9422 14.6286 13.1598 13.1449 14.7221 12.101ZM17 21.5H23C23.3978 21.5 23.7794 21.342 24.0607 21.0607C24.342 20.7794 24.5 20.3978 24.5 20C24.5 19.6022 24.342 19.2206 24.0607 18.9393C23.7794 18.658 23.3978 18.5 23 18.5H17C16.6022 18.5 16.2206 18.658 15.9393 18.9393C15.658 19.2206 15.5 19.6022 15.5 20C15.5 20.3978 15.658 20.7794 15.9393 21.0607C16.2206 21.342 16.6022 21.5 17 21.5Z" fill="#72727E" stroke="#72727E"/>
</svg>
