<svg width="25" height="24" viewBox="0 0 25 24" fill="none" xmlns="http://www.w3.org/2000/svg">
<path d="M12.5 4.18059C12.5 3.52857 13.0308 2.99203 13.6772 3.07731C15.2232 3.28128 16.6968 3.88457 17.9487 4.83675C19.5152 6.0283 20.6479 7.70053 21.1733 9.59729C21.6988 11.4941 21.588 13.5108 20.8579 15.3385C20.1278 17.1663 18.8187 18.7044 17.131 19.7171C15.4434 20.7299 13.4703 21.1615 11.5139 20.9458C9.55757 20.7302 7.72585 19.8792 6.29931 18.5231C4.87277 17.1671 3.93008 15.3809 3.61561 13.4379C3.36433 11.8854 3.52528 10.3011 4.0726 8.84103C4.30145 8.23049 5.02464 8.0145 5.6 8.32125C6.17535 8.62801 6.38177 9.3417 6.18164 9.96225C5.86094 10.9567 5.77775 12.0183 5.94646 13.0607C6.17842 14.4939 6.8738 15.8115 7.92608 16.8118C8.97836 17.812 10.3295 18.4398 11.7726 18.5989C13.2157 18.7579 14.6712 18.4396 15.916 17.6925C17.1609 16.9455 18.1266 15.8109 18.6652 14.4627C19.2037 13.1144 19.2855 11.6268 18.8979 10.2276C18.5103 8.82851 17.6747 7.595 16.5192 6.71605C15.6788 6.07678 14.7028 5.65071 13.6744 5.46587C13.0327 5.35052 12.5 4.83261 12.5 4.18059Z" fill="url(#paint0_angular)"/>
<defs>
<radialGradient id="paint0_angular" cx="0" cy="0" r="1" gradientUnits="userSpaceOnUse" gradientTransform="translate(12.5 12) rotate(-90) scale(9)">
<stop stop-color="white"/>
<stop offset="1" stop-color="white" stop-opacity="0"/>
</radialGradient>
</defs>
</svg>
