<svg width="41" height="40" viewBox="0 0 41 40" fill="none" xmlns="http://www.w3.org/2000/svg">
<path d="M0.5 20C0.5 8.95431 9.45431 0 20.5 0C31.5457 0 40.5 8.95431 40.5 20C40.5 31.0457 31.5457 40 20.5 40C9.45431 40 0.5 31.0457 0.5 20Z" fill="#1F1F26"/>
<path d="M30.25 19.7155C30.2437 19.5986 30.1962 19.4876 30.1159 19.4023C30.0356 19.317 29.9277 19.2629 29.8113 19.2496L28.6094 19.0551C28.5553 19.0462 28.5056 19.0201 28.4676 18.9806C28.4296 18.9412 28.4053 18.8905 28.3985 18.8362C28.3755 18.6885 28.3516 18.5352 28.3188 18.3899C28.3082 18.3371 28.3144 18.2822 28.3365 18.2331C28.3586 18.1839 28.3955 18.1429 28.4421 18.1157L29.5099 17.5227C29.6159 17.4687 29.6984 17.3775 29.7416 17.2666C29.7848 17.1558 29.7857 17.0329 29.7442 16.9213L29.5591 16.4104C29.5185 16.2985 29.438 16.2054 29.3331 16.1491C29.2282 16.0928 29.1062 16.0772 28.9905 16.1052L27.7928 16.3396C27.7393 16.3492 27.6841 16.3416 27.6351 16.3179C27.5861 16.2943 27.5458 16.2558 27.52 16.2079C27.4502 16.0771 27.3742 15.944 27.295 15.8132C27.2662 15.7666 27.2528 15.7122 27.2565 15.6575C27.2602 15.6029 27.2809 15.5508 27.3156 15.5085L28.1125 14.5879C28.1935 14.501 28.24 14.3875 28.2433 14.2688C28.2467 14.1501 28.2067 14.0342 28.1308 13.9429L27.783 13.5252C27.7073 13.4335 27.6003 13.3732 27.4827 13.3559C27.3651 13.3386 27.2453 13.3655 27.1464 13.4315L26.0978 14.061C26.0513 14.0889 25.9971 14.101 25.9432 14.0957C25.8893 14.0904 25.8385 14.0679 25.7983 14.0315C25.6825 13.9297 25.5639 13.8318 25.4528 13.7413C25.4102 13.7077 25.3794 13.6613 25.3649 13.609C25.3504 13.5566 25.353 13.501 25.3722 13.4502L25.8063 12.3065C25.8535 12.1973 25.8591 12.0746 25.8218 11.9617C25.7846 11.8487 25.7072 11.7534 25.6042 11.6938L25.1313 11.4177C25.0283 11.3583 24.907 11.339 24.7907 11.3635C24.6743 11.388 24.5711 11.4545 24.5008 11.5504L23.7344 12.5132C23.7068 12.555 23.6655 12.586 23.6176 12.6007C23.5697 12.6154 23.5182 12.613 23.4719 12.5938C23.4433 12.5821 23.2014 12.4832 23.0135 12.4204C22.9619 12.4036 22.9171 12.3707 22.8855 12.3266C22.854 12.2825 22.8374 12.2294 22.8381 12.1752L22.8564 10.9532C22.863 10.8339 22.8258 10.7162 22.7518 10.6224C22.6779 10.5285 22.5722 10.4648 22.4547 10.4432L21.918 10.3494C21.801 10.3292 21.6807 10.3522 21.5794 10.414C21.4781 10.4758 21.4027 10.5723 21.3672 10.6855L20.9688 11.8485C20.9507 11.9001 20.9165 11.9446 20.8713 11.9754C20.8261 12.0062 20.7722 12.0217 20.7175 12.0196H20.2605C20.2062 12.0207 20.153 12.0047 20.1084 11.9738C20.0638 11.9429 20.0301 11.8987 20.012 11.8476L19.6155 10.6912C19.5806 10.5771 19.5053 10.4797 19.4038 10.4171C19.3022 10.3545 19.1813 10.3312 19.0638 10.3513L18.5261 10.4451C18.4093 10.4665 18.3043 10.5296 18.2305 10.6226C18.1567 10.7156 18.1192 10.8322 18.1249 10.9508L18.1436 12.1771C18.144 12.2321 18.1266 12.2858 18.094 12.3302C18.0614 12.3745 18.0153 12.4071 17.9627 12.4232C17.8553 12.4649 17.6224 12.554 17.5164 12.5933C17.4227 12.6271 17.3205 12.5901 17.238 12.4949L16.4758 11.5574C16.4059 11.461 16.3028 11.3938 16.1863 11.3688C16.0698 11.3438 15.9482 11.3627 15.8449 11.4219L15.3733 11.6952C15.2692 11.7549 15.191 11.8511 15.1536 11.965C15.1162 12.079 15.1223 12.2028 15.1708 12.3126L15.6044 13.4535C15.6233 13.5044 15.6258 13.5599 15.6115 13.6123C15.5972 13.6647 15.5668 13.7113 15.5247 13.7455C15.4108 13.8393 15.2941 13.933 15.1778 14.0371C15.1379 14.0732 15.0875 14.0956 15.0339 14.101C14.9804 14.1064 14.9265 14.0945 14.8802 14.0671L13.8438 13.4254C13.7442 13.3606 13.6245 13.3344 13.5071 13.3517C13.3896 13.369 13.2825 13.4285 13.2058 13.5191L12.8594 13.9358C12.7824 14.0266 12.7417 14.1425 12.7449 14.2614C12.7481 14.3803 12.795 14.4939 12.8767 14.5804L13.6774 15.5001C13.7129 15.5415 13.7341 15.5933 13.7379 15.6477C13.7417 15.7022 13.7279 15.7564 13.6984 15.8024C13.6183 15.9299 13.5419 16.064 13.4725 16.198C13.4466 16.2463 13.406 16.285 13.3567 16.3088C13.3073 16.3325 13.2517 16.34 13.1978 16.3302L12.002 16.0991C11.8863 16.0712 11.7643 16.0869 11.6593 16.1431C11.5543 16.1994 11.4738 16.2924 11.433 16.4043L11.2455 16.9143C11.204 17.026 11.205 17.149 11.2482 17.26C11.2914 17.371 11.3738 17.4623 11.4799 17.5166L12.5477 18.1096C12.5957 18.1361 12.6338 18.1775 12.6562 18.2276C12.6786 18.2776 12.6841 18.3336 12.6719 18.3871L12.6606 18.4466C12.6363 18.5774 12.6138 18.7012 12.5922 18.8329C12.5847 18.8865 12.5605 18.9365 12.523 18.9755C12.4854 19.0146 12.4365 19.0408 12.3831 19.0504L11.1789 19.2449C11.0611 19.2594 10.9527 19.3162 10.8737 19.4048C10.7948 19.4934 10.7508 19.6077 10.75 19.7263V20.2691C10.7493 20.3882 10.7929 20.5033 10.8722 20.5922C10.9515 20.681 11.061 20.7373 11.1794 20.7501L12.3831 20.9441C12.4372 20.9529 12.487 20.979 12.525 21.0185C12.5631 21.0579 12.5873 21.1086 12.5941 21.163C12.617 21.3112 12.6409 21.464 12.6738 21.6093C12.6843 21.6621 12.6781 21.717 12.656 21.7661C12.6339 21.8153 12.597 21.8563 12.5505 21.8835L11.4831 22.4774C11.3771 22.5315 11.2946 22.6226 11.2514 22.7335C11.2082 22.8444 11.2073 22.9673 11.2488 23.0788L11.4363 23.5897C11.477 23.7016 11.5574 23.7946 11.6623 23.8508C11.7672 23.9071 11.8891 23.9228 12.0049 23.8949L13.2025 23.6629C13.2561 23.6532 13.3113 23.6607 13.3604 23.6843C13.4094 23.708 13.4496 23.7466 13.4753 23.7946C13.5456 23.9258 13.6211 24.0585 13.7003 24.1893C13.7292 24.2358 13.7428 24.2903 13.7391 24.3449C13.7354 24.3996 13.7146 24.4517 13.6797 24.494L12.8828 25.4141C12.8009 25.5004 12.7533 25.6136 12.749 25.7324C12.7447 25.8513 12.784 25.9676 12.8594 26.0596L13.2067 26.4772C13.2823 26.569 13.3893 26.6294 13.507 26.6467C13.6246 26.6641 13.7444 26.6371 13.8433 26.571L14.8919 25.9415C14.9384 25.9136 14.9926 25.9014 15.0465 25.9068C15.1005 25.9121 15.1513 25.9346 15.1914 25.971C15.3077 26.0727 15.4258 26.1707 15.5369 26.2612C15.5795 26.2948 15.6103 26.3412 15.6249 26.3935C15.6394 26.4458 15.637 26.5014 15.618 26.5522L15.1834 27.696C15.1362 27.8051 15.1306 27.9278 15.1679 28.0408C15.2051 28.1537 15.2826 28.249 15.3855 28.3087L15.8594 28.5824C15.9623 28.6418 16.0836 28.6612 16.1999 28.6368C16.3162 28.6124 16.4195 28.546 16.4899 28.4502L17.2656 27.4963C17.3313 27.4152 17.4344 27.3791 17.5108 27.4101C17.6739 27.4776 17.7831 27.5155 17.9767 27.5802C18.0283 27.5971 18.0731 27.6299 18.1048 27.674C18.1364 27.7181 18.1531 27.7711 18.1525 27.8254L18.1338 29.0465C18.1274 29.1657 18.1647 29.2833 18.2386 29.3771C18.3125 29.4709 18.418 29.5347 18.5355 29.5565L19.0722 29.6502C19.1892 29.6706 19.3096 29.6478 19.4109 29.5859C19.5123 29.5241 19.5876 29.4275 19.623 29.3141L20.0214 28.153C20.0395 28.1014 20.0736 28.0569 20.1188 28.026C20.1641 27.9952 20.218 27.9798 20.2727 27.9819H20.7297C20.784 27.9808 20.8372 27.9967 20.8818 28.0276C20.9265 28.0585 20.9602 28.1028 20.9781 28.154L21.3752 29.3104C21.4059 29.4108 21.468 29.4987 21.5524 29.5612C21.6368 29.6237 21.7389 29.6575 21.8439 29.6577C21.8719 29.6578 21.8998 29.6553 21.9274 29.6502L22.465 29.5565C22.5818 29.535 22.6868 29.472 22.7606 29.3789C22.8344 29.2859 22.872 29.1693 22.8663 29.0507L22.8475 27.8244C22.8472 27.7704 22.864 27.7177 22.8956 27.6739C22.9272 27.63 22.9719 27.5974 23.0233 27.5807C23.2033 27.5202 23.3299 27.4715 23.441 27.4283L23.4691 27.4176C23.6144 27.3674 23.6847 27.4283 23.7255 27.479L24.5106 28.446C24.581 28.5417 24.6842 28.608 24.8004 28.6324C24.9166 28.6568 25.0378 28.6375 25.1406 28.5782L25.6127 28.3049C25.7159 28.2453 25.7936 28.1497 25.8309 28.0364C25.8681 27.9232 25.8624 27.8001 25.8147 27.6908L25.3816 26.5499C25.3625 26.4991 25.3598 26.4435 25.3741 26.3911C25.3883 26.3387 25.4186 26.2921 25.4608 26.2579C25.5747 26.1641 25.6914 26.0704 25.8077 25.9663C25.8478 25.9301 25.8986 25.9077 25.9524 25.9025C26.0063 25.8973 26.0603 25.9094 26.1067 25.9372L27.1563 26.5654C27.2558 26.6302 27.3755 26.6565 27.493 26.6392C27.6105 26.6219 27.7176 26.5623 27.7942 26.4716L28.1411 26.0544C28.2181 25.9637 28.2588 25.8478 28.2556 25.7289C28.2524 25.6099 28.2055 25.4964 28.1238 25.4099L27.3241 24.4879C27.2886 24.4464 27.2673 24.3946 27.2635 24.3402C27.2597 24.2857 27.2736 24.2315 27.303 24.1855C27.3831 24.0585 27.4596 23.9244 27.5289 23.7899C27.555 23.7418 27.5956 23.7031 27.6449 23.6794C27.6942 23.6556 27.7497 23.6481 27.8036 23.6577L28.998 23.8907C29.1138 23.9186 29.2358 23.903 29.3407 23.8467C29.4457 23.7904 29.5263 23.6974 29.5671 23.5855L29.7522 23.0755C29.7936 22.9639 29.7926 22.841 29.7494 22.73C29.7062 22.6191 29.6238 22.5279 29.5178 22.4737L28.4491 21.8797C28.4017 21.853 28.3643 21.8117 28.3422 21.7619C28.3202 21.7122 28.3148 21.6567 28.3267 21.6037L28.338 21.5441C28.3624 21.4133 28.3849 21.2896 28.4064 21.1579C28.4139 21.1042 28.4381 21.0543 28.4757 21.0152C28.5132 20.9761 28.5622 20.9499 28.6155 20.9404L29.8197 20.7463C29.9378 20.7321 30.0466 20.6753 30.1258 20.5866C30.205 20.4979 30.2492 20.3834 30.25 20.2644V19.7155ZM17.0102 24.1218C16.9518 24.2234 16.8701 24.3096 16.7718 24.3735C16.6736 24.4374 16.5616 24.477 16.4451 24.4892C16.3285 24.5013 16.2108 24.4857 16.1015 24.4435C15.9921 24.4013 15.8944 24.3338 15.8163 24.2465C14.7602 23.0788 14.1772 21.5596 14.1808 19.9852C14.1844 18.4109 14.7745 16.8944 15.8359 15.7316C15.9145 15.6443 16.0127 15.577 16.1223 15.5351C16.232 15.4932 16.3501 15.4779 16.4668 15.4906C16.5836 15.5033 16.6956 15.5435 16.7937 15.608C16.8919 15.6725 16.9733 15.7594 17.0313 15.8615L19.1711 19.6279C19.2354 19.7402 19.2692 19.8674 19.2692 19.9968C19.2692 20.1262 19.2354 20.2534 19.1711 20.3657L17.0102 24.1218ZM20.5 26.3333C20.0539 26.3335 19.6091 26.2863 19.173 26.1927C19.0594 26.1673 18.9533 26.1155 18.8635 26.0415C18.7736 25.9675 18.7024 25.8734 18.6557 25.7667C18.609 25.6601 18.5881 25.544 18.5947 25.4277C18.6012 25.3115 18.6351 25.1984 18.6935 25.0977L20.8497 21.3477C20.9146 21.2347 21.0081 21.1408 21.1209 21.0756C21.2336 21.0103 21.3616 20.976 21.4919 20.976H25.811C25.9273 20.9758 26.042 21.003 26.1459 21.0555C26.2498 21.1079 26.3398 21.1841 26.4087 21.2778C26.4777 21.3715 26.5236 21.4802 26.5427 21.5949C26.5618 21.7097 26.5536 21.8273 26.5188 21.9383C25.6989 24.4846 23.3125 26.3333 20.5 26.3333ZM20.852 18.6505L18.7188 14.894C18.661 14.7931 18.6277 14.68 18.6216 14.5639C18.6156 14.4478 18.637 14.3319 18.684 14.2256C18.7311 14.1193 18.8025 14.0255 18.8925 13.9519C18.9825 13.8783 19.0885 13.8268 19.202 13.8018C19.6288 13.7118 20.0638 13.6666 20.5 13.6668C23.3125 13.6668 25.6989 15.5155 26.5174 18.0632C26.5522 18.1742 26.5604 18.2918 26.5413 18.4066C26.5221 18.5214 26.4763 18.63 26.4073 18.7237C26.3384 18.8174 26.2484 18.8936 26.1445 18.946C26.0406 18.9985 25.9259 19.0257 25.8096 19.0255H21.497C21.3659 19.0258 21.2371 18.9912 21.1238 18.9253C21.0105 18.8594 20.9167 18.7646 20.852 18.6505Z" fill="white"/>
</svg>
