<svg width="24" height="24" viewBox="0 0 24 24" fill="none" xmlns="http://www.w3.org/2000/svg">
<path d="M21.75 11.715C21.7437 11.5981 21.6962 11.4871 21.6159 11.4018C21.5356 11.3165 21.4277 11.2624 21.3113 11.2491L20.1094 11.0546C20.0553 11.0457 20.0056 11.0196 19.9676 10.9802C19.9296 10.9407 19.9053 10.89 19.8985 10.8357C19.8755 10.688 19.8516 10.5347 19.8188 10.3894C19.8082 10.3366 19.8144 10.2817 19.8365 10.2326C19.8586 10.1834 19.8955 10.1424 19.9421 10.1152L21.0099 9.52223C21.1159 9.46818 21.1984 9.37705 21.2416 9.26616C21.2848 9.15527 21.2857 9.03237 21.2442 8.92082L21.0591 8.40989C21.0185 8.29796 20.938 8.20495 20.8331 8.14865C20.7282 8.09234 20.6062 8.07671 20.4905 8.10473L19.2928 8.3391C19.2393 8.34868 19.1841 8.3411 19.1351 8.31744C19.0861 8.29379 19.0458 8.25527 19.02 8.20739C18.9502 8.0766 18.8742 7.94348 18.795 7.8127C18.7662 7.76611 18.7528 7.71168 18.7565 7.65705C18.7602 7.60241 18.7809 7.5503 18.8156 7.50801L19.6125 6.58739C19.6935 6.50048 19.74 6.38705 19.7433 6.26833C19.7467 6.14962 19.7067 6.03374 19.6308 5.94239L19.283 5.52473C19.2073 5.43306 19.1003 5.37272 18.9827 5.35541C18.8651 5.33809 18.7453 5.36502 18.6464 5.43098L17.5978 6.06051C17.5513 6.08837 17.4971 6.10053 17.4432 6.09521C17.3893 6.0899 17.3385 6.06738 17.2983 6.03098C17.1825 5.92926 17.0639 5.83129 16.9528 5.74082C16.9102 5.70718 16.8794 5.66081 16.8649 5.60847C16.8504 5.55612 16.853 5.50052 16.8722 5.44973L17.3063 4.30598C17.3535 4.19685 17.3591 4.07415 17.3218 3.96121C17.2846 3.84826 17.2072 3.75293 17.1042 3.69332L16.6313 3.41723C16.5283 3.35784 16.407 3.33854 16.2907 3.36302C16.1743 3.3875 16.0711 3.45403 16.0008 3.54989L15.2344 4.5127C15.2068 4.55455 15.1655 4.58549 15.1176 4.6002C15.0697 4.61491 15.0182 4.61248 14.9719 4.59332C14.9433 4.5816 14.7014 4.4827 14.5135 4.41989C14.4619 4.40308 14.4171 4.37022 14.3855 4.32611C14.354 4.282 14.3374 4.22895 14.3381 4.17473L14.3564 2.9527C14.363 2.83337 14.3258 2.71576 14.2518 2.62188C14.1779 2.528 14.0722 2.4643 13.9547 2.4427L13.418 2.34895C13.301 2.32875 13.1807 2.35168 13.0794 2.4135C12.9781 2.47532 12.9027 2.57181 12.8672 2.68504L12.4688 3.84801C12.4507 3.89964 12.4165 3.94411 12.3713 3.9749C12.3261 4.00569 12.2722 4.02118 12.2175 4.0191H11.7605C11.7062 4.02022 11.653 4.00419 11.6084 3.9733C11.5638 3.94242 11.5301 3.89824 11.512 3.84707L11.1155 2.69067C11.0806 2.57661 11.0053 2.47917 10.9038 2.41662C10.8022 2.35406 10.6813 2.33067 10.5638 2.35082L10.0261 2.44457C9.90932 2.466 9.80428 2.52908 9.73049 2.6221C9.65669 2.71512 9.61916 2.83176 9.62486 2.95035L9.64361 4.1766C9.64398 4.23164 9.62657 4.28533 9.59397 4.32967C9.56137 4.37401 9.51531 4.40664 9.46267 4.4227C9.35533 4.46442 9.12236 4.55348 9.01642 4.59285C8.92267 4.6266 8.82048 4.58957 8.73798 4.49442L7.97579 3.55692C7.90586 3.46048 7.80275 3.3933 7.68628 3.36829C7.56981 3.34328 7.44821 3.36222 7.34486 3.42145L6.87329 3.69473C6.76925 3.75445 6.69099 3.85056 6.6536 3.96455C6.61621 4.07854 6.62233 4.20233 6.67079 4.31207L7.10439 5.45301C7.1233 5.50391 7.12579 5.55945 7.11149 5.61184C7.0972 5.66422 7.06684 5.71081 7.0247 5.74504C6.91079 5.83879 6.79407 5.93254 6.67782 6.0366C6.63791 6.07272 6.58748 6.09511 6.53392 6.10051C6.48037 6.10591 6.42649 6.09403 6.38017 6.0666L5.34376 5.42489C5.24424 5.36015 5.12452 5.33396 5.00706 5.35122C4.8896 5.36848 4.78248 5.42801 4.70579 5.51864L4.35938 5.93535C4.28244 6.02609 4.24166 6.14201 4.24486 6.26093C4.24806 6.37986 4.29501 6.49342 4.37673 6.57989L5.17735 7.49957C5.21288 7.54102 5.23412 7.5928 5.23792 7.64726C5.24172 7.70171 5.22788 7.75594 5.19845 7.80192C5.11829 7.92942 5.04189 8.06348 4.97251 8.19754C4.94656 8.24577 4.906 8.28453 4.85665 8.30828C4.8073 8.33203 4.7517 8.33954 4.69782 8.32973L3.50204 8.09864C3.38626 8.0707 3.26425 8.08637 3.15929 8.14265C3.05433 8.19894 2.97377 8.2919 2.93298 8.40379L2.74548 8.91379C2.70403 9.02548 2.705 9.14848 2.7482 9.2595C2.7914 9.37052 2.87382 9.46183 2.97985 9.51614L4.04767 10.1091C4.09569 10.1356 4.13378 10.177 4.15619 10.2271C4.1786 10.2771 4.18411 10.3331 4.17188 10.3866L4.16063 10.4461C4.13626 10.5769 4.11376 10.7007 4.0922 10.8324C4.08474 10.8861 4.06051 10.936 4.02296 10.9751C3.98541 11.0141 3.93647 11.0403 3.88313 11.0499L2.67891 11.2444C2.56115 11.2589 2.45267 11.3157 2.37374 11.4043C2.29482 11.4929 2.25083 11.6072 2.25001 11.7258V12.2686C2.24932 12.3877 2.29285 12.5029 2.37218 12.5917C2.4515 12.6806 2.56097 12.7368 2.67938 12.7496L3.88313 12.9436C3.93723 12.9524 3.98701 12.9785 4.02504 13.018C4.06307 13.0574 4.08729 13.1082 4.09407 13.1625C4.11704 13.3107 4.14095 13.4635 4.17376 13.6088C4.18433 13.6616 4.17813 13.7165 4.15603 13.7656C4.13393 13.8148 4.09703 13.8558 4.05048 13.883L2.98313 14.4769C2.8771 14.531 2.79464 14.6221 2.75142 14.733C2.70821 14.8439 2.70726 14.9668 2.74876 15.0783L2.93626 15.5893C2.97696 15.7011 3.05743 15.7941 3.16231 15.8504C3.2672 15.9066 3.38914 15.9223 3.50485 15.8944L4.70251 15.6624C4.75607 15.6527 4.81133 15.6602 4.86035 15.6838C4.90937 15.7075 4.94962 15.7461 4.97532 15.7941C5.04563 15.9254 5.1211 16.058 5.20032 16.1888C5.22923 16.2353 5.24279 16.2898 5.23909 16.3445C5.23539 16.3991 5.21462 16.4513 5.1797 16.4935L4.38282 17.4136C4.30092 17.4999 4.25334 17.6131 4.24903 17.7319C4.24471 17.8508 4.28396 17.9671 4.35938 18.0591L4.70673 18.4768C4.78233 18.5685 4.88933 18.6289 5.00695 18.6462C5.12458 18.6636 5.24444 18.6366 5.34329 18.5705L6.39189 17.941C6.43838 17.9131 6.49259 17.901 6.54653 17.9063C6.60046 17.9116 6.65126 17.9341 6.69142 17.9705C6.80767 18.0722 6.92579 18.1702 7.03689 18.2607C7.07949 18.2943 7.1103 18.3407 7.12487 18.393C7.13944 18.4453 7.13703 18.5009 7.11798 18.5518L6.68345 19.6955C6.63618 19.8046 6.63064 19.9273 6.66789 20.0403C6.70513 20.1532 6.78257 20.2486 6.88548 20.3082L7.35939 20.5819C7.46232 20.6414 7.58356 20.6607 7.69989 20.6363C7.81622 20.6119 7.91947 20.5455 7.98986 20.4497L8.76564 19.4958C8.83126 19.4147 8.93439 19.3786 9.01079 19.4096C9.17392 19.4771 9.28314 19.515 9.47673 19.5797C9.5283 19.5966 9.57315 19.6294 9.60476 19.6735C9.63637 19.7176 9.6531 19.7706 9.65251 19.8249L9.63376 21.046C9.62744 21.1653 9.6647 21.2828 9.73861 21.3766C9.81253 21.4704 9.91804 21.5342 10.0355 21.556L10.5722 21.6497C10.6892 21.6701 10.8096 21.6473 10.9109 21.5854C11.0123 21.5236 11.0876 21.427 11.123 21.3136L11.5214 20.1525C11.5395 20.1009 11.5736 20.0564 11.6188 20.0256C11.6641 19.9948 11.718 19.9793 11.7727 19.9814H12.2297C12.284 19.9803 12.3372 19.9963 12.3818 20.0272C12.4265 20.0581 12.4602 20.1023 12.4781 20.1535L12.8752 21.3099C12.9059 21.4103 12.968 21.4982 13.0524 21.5607C13.1368 21.6232 13.2389 21.657 13.3439 21.6572C13.3719 21.6573 13.3998 21.6548 13.4274 21.6497L13.965 21.556C14.0818 21.5345 14.1868 21.4715 14.2606 21.3785C14.3344 21.2854 14.372 21.1688 14.3663 21.0502L14.3475 19.8239C14.3472 19.7699 14.364 19.7172 14.3956 19.6734C14.4272 19.6295 14.4719 19.5969 14.5233 19.5802C14.7033 19.5197 14.8299 19.471 14.941 19.4279L14.9691 19.4171C15.1144 19.3669 15.1847 19.4279 15.2255 19.4785L16.0106 20.4455C16.081 20.5412 16.1842 20.6075 16.3004 20.6319C16.4166 20.6563 16.5378 20.637 16.6406 20.5777L17.1127 20.3044C17.2159 20.2448 17.2936 20.1492 17.3309 20.0359C17.3681 19.9227 17.3624 19.7997 17.3147 19.6904L16.8816 18.5494C16.8625 18.4986 16.8598 18.443 16.8741 18.3906C16.8883 18.3382 16.9186 18.2916 16.9608 18.2574C17.0747 18.1636 17.1914 18.0699 17.3077 17.9658C17.3478 17.9296 17.3986 17.9072 17.4524 17.902C17.5063 17.8968 17.5603 17.909 17.6067 17.9368L18.6563 18.5649C18.7558 18.6297 18.8755 18.656 18.993 18.6387C19.1105 18.6214 19.2176 18.5619 19.2942 18.4711L19.6411 18.0539C19.7181 17.9632 19.7588 17.8473 19.7556 17.7284C19.7524 17.6094 19.7055 17.4959 19.6238 17.4094L18.8241 16.4874C18.7886 16.4459 18.7673 16.3942 18.7635 16.3397C18.7597 16.2852 18.7736 16.231 18.803 16.185C18.8831 16.058 18.9596 15.9239 19.0289 15.7894C19.055 15.7413 19.0956 15.7026 19.1449 15.6789C19.1942 15.6551 19.2497 15.6476 19.3036 15.6572L20.498 15.8902C20.6138 15.9181 20.7358 15.9025 20.8407 15.8462C20.9457 15.7899 21.0263 15.6969 21.0671 15.585L21.2522 15.075C21.2936 14.9634 21.2926 14.8405 21.2494 14.7295C21.2062 14.6186 21.1238 14.5274 21.0178 14.4732L19.9491 13.8793C19.9017 13.8525 19.8643 13.8112 19.8422 13.7615C19.8202 13.7117 19.8148 13.6562 19.8267 13.6032L19.838 13.5436C19.8624 13.4129 19.8849 13.2891 19.9064 13.1574C19.9139 13.1037 19.9381 13.0538 19.9757 13.0147C20.0132 12.9756 20.0622 12.9495 20.1155 12.9399L21.3197 12.7458C21.4378 12.7316 21.5466 12.6748 21.6258 12.5861C21.705 12.4974 21.7492 12.3829 21.75 12.2639V11.715ZM8.51017 16.1213C8.45175 16.2229 8.37007 16.3091 8.27184 16.373C8.1736 16.4369 8.06161 16.4765 7.94507 16.4887C7.82853 16.5009 7.71077 16.4852 7.60146 16.443C7.49215 16.4008 7.3944 16.3333 7.31626 16.246C6.26023 15.0783 5.67715 13.5591 5.68079 11.9848C5.68443 10.4104 6.27453 8.89389 7.33595 7.73114C7.4145 7.64386 7.51266 7.5765 7.62235 7.5346C7.73203 7.49269 7.85011 7.47746 7.96684 7.49014C8.08357 7.50282 8.19562 7.54305 8.29375 7.60753C8.39188 7.672 8.47329 7.75887 8.53126 7.86098L10.6711 11.6274C10.7354 11.7397 10.7692 11.8669 10.7692 11.9963C10.7692 12.1257 10.7354 12.2529 10.6711 12.3652L8.51017 16.1213ZM12 18.3329C11.5539 18.333 11.1091 18.2858 10.673 18.1922C10.5594 18.1668 10.4533 18.1151 10.3635 18.041C10.2736 17.967 10.2024 17.8729 10.1557 17.7663C10.109 17.6596 10.0881 17.5435 10.0947 17.4272C10.1012 17.311 10.1351 17.1979 10.1935 17.0972L12.3497 13.3472C12.4146 13.2342 12.5081 13.1404 12.6209 13.0751C12.7336 13.0098 12.8616 12.9755 12.9919 12.9755H17.311C17.4273 12.9753 17.542 13.0026 17.6459 13.055C17.7498 13.1074 17.8398 13.1836 17.9087 13.2773C17.9777 13.371 18.0236 13.4797 18.0427 13.5944C18.0618 13.7092 18.0536 13.8268 18.0188 13.9379C17.1989 16.4841 14.8125 18.3329 12 18.3329ZM12.352 10.65L10.2188 6.89348C10.161 6.7926 10.1277 6.67954 10.1216 6.56343C10.1156 6.44732 10.137 6.33142 10.184 6.22509C10.2311 6.11877 10.3025 6.02501 10.3925 5.95139C10.4825 5.87776 10.5885 5.82635 10.702 5.80129C11.1288 5.71135 11.5638 5.6661 12 5.66629C14.8125 5.66629 17.1989 7.51504 18.0174 10.0627C18.0522 10.1737 18.0604 10.2914 18.0413 10.4061C18.0221 10.5209 17.9763 10.6295 17.9073 10.7232C17.8384 10.817 17.7484 10.8931 17.6445 10.9456C17.5406 10.998 17.4259 11.0252 17.3096 11.025H12.997C12.8659 11.0253 12.7371 10.9907 12.6238 10.9248C12.5105 10.8589 12.4167 10.7641 12.352 10.65Z" fill="white"/>
</svg>
