<svg width="53" height="40" viewBox="0 0 53 40" fill="none" xmlns="http://www.w3.org/2000/svg">
<path d="M0 20C0 8.95431 8.95431 0 20 0H33C44.0457 0 53 8.95431 53 20C53 31.0457 44.0457 40 33 40H20C8.95431 40 0 31.0457 0 20Z" fill="#00AFF0"/>
<path d="M36.425 22.1249C36.7476 20.6047 36.6914 19.0285 36.2612 17.5352C35.8311 16.0419 35.0402 14.6773 33.9584 13.5617C32.8765 12.4461 31.5369 11.6137 30.0575 11.1379C28.5781 10.6621 27.0044 10.5574 25.475 10.8332C24.6405 10.3186 23.6848 10.0338 22.7048 10.0078C21.7248 9.98181 20.7553 10.2155 19.8947 10.6851C19.0341 11.1547 18.3131 11.8436 17.8047 12.6819C17.2963 13.5202 17.0187 14.478 17 15.4582C17 16.4582 17.275 17.3999 17.7583 18.2082C17.457 19.7316 17.5347 21.3056 17.9846 22.7919C18.4345 24.2781 19.2428 25.631 20.3383 26.7315C21.4339 27.8321 22.7832 28.6464 24.2674 29.103C25.7516 29.5596 27.3253 29.6443 28.85 29.3499C29.6333 29.7665 30.5167 29.9999 31.4667 29.9999C32.9239 30.0087 34.3251 29.4389 35.3626 28.4155C36.4001 27.3921 36.989 25.9988 37 24.5415C37 23.6749 36.7917 22.8499 36.425 22.1249ZM32 24.5999C31.5038 25.258 30.8303 25.761 30.0583 26.0499C29.225 26.3915 28.225 26.5665 27.0833 26.5665C25.9042 26.6075 24.7324 26.3645 23.6667 25.8582C23.025 25.5249 22.5 25.0582 22.0917 24.4832C21.7172 23.9935 21.5046 23.3993 21.4833 22.7832C21.4833 22.4499 21.6167 22.1415 21.8833 21.8999C22.1417 21.6499 22.475 21.5332 22.8833 21.5332C23.2083 21.5332 23.4917 21.6332 23.7167 21.8165C23.9417 22.0082 24.125 22.2749 24.275 22.6249C24.4417 23.0082 24.6333 23.3332 24.825 23.5832C25.0167 23.8332 25.2833 24.0332 25.625 24.1915C26.0631 24.3723 26.5347 24.4575 27.0083 24.4415C27.8 24.4415 28.45 24.2749 28.925 23.9415C29.4083 23.6249 29.6417 23.2415 29.6417 22.7749C29.6417 22.3999 29.5167 22.1082 29.2667 21.8832C28.9733 21.6241 28.6261 21.4334 28.25 21.3249C27.8167 21.1915 27.2333 21.0499 26.5 20.8999C25.6456 20.73 24.8088 20.4818 24 20.1582C23.366 19.905 22.8048 19.4984 22.3667 18.9749C21.9446 18.4394 21.7235 17.7731 21.7417 17.0915C21.7417 16.3832 21.9667 15.7415 22.3917 15.1915C22.8771 14.5983 23.5218 14.1559 24.25 13.9165C25.1511 13.6107 26.0986 13.4641 27.05 13.4832C27.9083 13.4832 28.65 13.5749 29.275 13.7665C29.9083 13.9582 30.4417 14.2249 30.8583 14.5415C31.275 14.8665 31.5833 15.2082 31.775 15.5749C31.975 15.9332 32.075 16.2915 32.075 16.6415C32.075 16.9749 31.95 17.2832 31.6917 17.5582C31.425 17.8165 31.1 17.9582 30.7083 17.9582C30.3583 17.9582 30.075 17.8749 29.8833 17.7082C29.6572 17.4886 29.4661 17.2357 29.3167 16.9582C29.1109 16.5496 28.8179 16.1912 28.4583 15.9082C28.1417 15.6665 27.6083 15.5499 26.875 15.5499C26.1833 15.5499 25.625 15.6832 25.2083 15.9499C24.8167 16.2082 24.625 16.4999 24.625 16.8499C24.625 17.0665 24.6833 17.2415 24.8167 17.3999C24.95 17.5665 25.15 17.7082 25.3833 17.8249C25.6287 17.9471 25.8855 18.0448 26.15 18.1165C26.4167 18.1999 26.8583 18.2999 27.4667 18.4415C28.2417 18.6082 28.95 18.7832 29.5833 18.9832C30.2167 19.1832 30.7667 19.4332 31.2083 19.7165C31.6667 20.0082 32.0333 20.3832 32.2917 20.8332C32.5417 21.2915 32.675 21.8499 32.675 22.4999C32.675 23.2665 32.45 23.9749 32.0083 24.5915L32 24.5999Z" fill="white"/>
</svg>
