<svg width="80" height="16" viewBox="0 0 80 16" fill="none" xmlns="http://www.w3.org/2000/svg">
<path d="M6.10402 4.53538L8 1.76891L9.89598 4.53538L10.6951 3.98774L9.89599 4.53538C10.091 4.81997 10.3782 5.02863 10.7092 5.12618L13.9261 6.07449L11.8809 8.73256C11.6706 9.006 11.5609 9.34362 11.5703 9.68851L11.6625 13.0411L8.50257 11.9174L8.16752 12.8596L8.50257 11.9174C8.17749 11.8018 7.82251 11.8018 7.49743 11.9174L4.33746 13.0411L4.42966 9.68851C4.43915 9.34362 4.32945 9.006 4.11906 8.73256L2.07388 6.07449L5.29084 5.12618C5.62178 5.02863 5.90897 4.81997 6.10402 4.53538Z" fill="#FF7733" stroke="#FF7733" stroke-width="2" stroke-linecap="round" stroke-linejoin="round"/>
<path d="M22.104 4.53538L24 1.76891L25.896 4.53538L26.6951 3.98774L25.896 4.53538C26.091 4.81997 26.3782 5.02863 26.7092 5.12618L29.9261 6.07449L27.8809 8.73256C27.6706 9.006 27.5609 9.34362 27.5703 9.68851L27.6625 13.0411L24.5026 11.9174L24.1675 12.8596L24.5026 11.9174C24.1775 11.8018 23.8225 11.8018 23.4974 11.9174L20.3375 13.0411L20.4297 9.68851C20.4391 9.34362 20.3295 9.006 20.1191 8.73256L18.0739 6.07449L21.2908 5.12618C21.6218 5.02863 21.909 4.81997 22.104 4.53538Z" fill="#FF7733" stroke="#FF7733" stroke-width="2" stroke-linecap="round" stroke-linejoin="round"/>
<path d="M38.104 4.53538L40 1.76891L41.896 4.53538L42.6951 3.98774L41.896 4.53538C42.091 4.81997 42.3782 5.02863 42.7092 5.12618L45.9261 6.07449L43.8809 8.73256C43.6706 9.006 43.5609 9.34362 43.5703 9.68851L43.6625 13.0411L40.5026 11.9174L40.1675 12.8596L40.5026 11.9174C40.1775 11.8018 39.8225 11.8018 39.4974 11.9174L36.3375 13.0411L36.4297 9.68851C36.4391 9.34362 36.3295 9.006 36.1191 8.73256L34.0739 6.07449L37.2908 5.12618C37.6218 5.02863 37.909 4.81997 38.104 4.53538Z" fill="#FF7733" stroke="#FF7733" stroke-width="2" stroke-linecap="round" stroke-linejoin="round"/>
<path d="M54.104 4.53538L56 1.76891L57.896 4.53538L58.6951 3.98774L57.896 4.53538C58.091 4.81997 58.3782 5.02863 58.7092 5.12618L61.9261 6.07449L59.8809 8.73256C59.6706 9.006 59.5609 9.34362 59.5703 9.68851L59.6625 13.0411L56.5026 11.9174L56.1675 12.8596L56.5026 11.9174C56.1775 11.8018 55.8225 11.8018 55.4974 11.9174L52.3375 13.0411L52.4297 9.68851C52.4391 9.34362 52.3295 9.006 52.1191 8.73256L50.0739 6.07449L53.2908 5.12618C53.6218 5.02863 53.909 4.81997 54.104 4.53538Z" fill="#FF7733" stroke="#FF7733" stroke-width="2" stroke-linecap="round" stroke-linejoin="round"/>
<path d="M70.104 4.53538L72 1.76891L73.896 4.53538L74.6951 3.98774L73.896 4.53538C74.091 4.81997 74.3782 5.02863 74.7092 5.12618L77.9261 6.07449L75.8809 8.73256C75.6706 9.006 75.5609 9.34362 75.5703 9.68851L75.6625 13.0411L72.5026 11.9174L72.1675 12.8596L72.5026 11.9174C72.1775 11.8018 71.8225 11.8018 71.4974 11.9174L68.3375 13.0411L68.4297 9.68851C68.4391 9.34362 68.3295 9.006 68.1191 8.73256L66.0739 6.07449L69.2908 5.12618C69.6218 5.02863 69.909 4.81997 70.104 4.53538Z" stroke="#FF7733" stroke-width="2" stroke-linecap="round" stroke-linejoin="round"/>
<path d="M70.0473 13.4944L70.6701 13.2729C71.4675 12.9894 72.0001 12.2347 72.0001 11.3885V3.22803C72.0001 2.24523 70.7308 1.85203 70.1752 2.66271L69.5807 3.53007C69.3207 3.90953 68.9378 4.18774 68.4965 4.31781L67.1908 4.70272C65.8429 5.10006 65.3142 6.72699 66.1712 7.84072L67.0013 8.91962C67.2818 9.28421 67.4281 9.73436 67.4154 10.1942L67.378 11.555C67.3394 12.9597 68.7233 13.9652 70.0473 13.4944Z" fill="#FF7733"/>
</svg>
