<svg width="220" height="32" viewBox="0 0 220 32" fill="none" xmlns="http://www.w3.org/2000/svg">
<path d="M15.1751 1.20359C15.5723 0.624015 16.4277 0.624014 16.8249 1.20359L21.4417 7.94011C21.5717 8.12984 21.7632 8.26895 21.9838 8.33398L29.8173 10.6432C30.4913 10.8418 30.7556 11.6553 30.3271 12.2122L25.347 18.6847C25.2067 18.867 25.1336 19.0921 25.1399 19.322L25.3644 27.4857C25.3838 28.1881 24.6918 28.6908 24.0298 28.4554L16.335 25.7191C16.1183 25.6421 15.8817 25.6421 15.665 25.7191L7.97022 28.4554C7.30821 28.6908 6.61623 28.1881 6.63555 27.4857L6.86008 19.322C6.86641 19.0921 6.79327 18.867 6.65301 18.6847L1.67288 12.2122C1.24441 11.6553 1.50872 10.8418 2.18267 10.6432L10.0162 8.33398C10.2368 8.26895 10.4283 8.12984 10.5583 7.94011L15.1751 1.20359Z" fill="#E4E4EB"/>
<path d="M62.1751 1.20359C62.5723 0.624015 63.4277 0.624014 63.8249 1.20359L68.4417 7.94011C68.5717 8.12984 68.7632 8.26895 68.9838 8.33398L76.8173 10.6432C77.4913 10.8418 77.7556 11.6553 77.3271 12.2122L72.347 18.6847C72.2067 18.867 72.1336 19.0921 72.1399 19.322L72.3644 27.4857C72.3838 28.1881 71.6918 28.6908 71.0298 28.4554L63.335 25.7191C63.1183 25.6421 62.8817 25.6421 62.665 25.7191L54.9702 28.4554C54.3082 28.6908 53.6162 28.1881 53.6356 27.4857L53.8601 19.322C53.8664 19.0921 53.7933 18.867 53.653 18.6847L48.6729 12.2122C48.2444 11.6553 48.5087 10.8418 49.1827 10.6432L57.0162 8.33398C57.2368 8.26895 57.4283 8.12984 57.5583 7.94011L62.1751 1.20359Z" fill="#E4E4EB"/>
<path d="M109.175 1.20359C109.572 0.624015 110.428 0.624014 110.825 1.20359L115.442 7.94011C115.572 8.12984 115.763 8.26895 115.984 8.33398L123.817 10.6432C124.491 10.8418 124.756 11.6553 124.327 12.2122L119.347 18.6847C119.207 18.867 119.134 19.0921 119.14 19.322L119.364 27.4857C119.384 28.1881 118.692 28.6908 118.03 28.4554L110.335 25.7191C110.118 25.6421 109.882 25.6421 109.665 25.7191L101.97 28.4554C101.308 28.6908 100.616 28.1881 100.636 27.4857L100.86 19.322C100.866 19.0921 100.793 18.867 100.653 18.6847L95.6729 12.2122C95.2444 11.6553 95.5087 10.8418 96.1827 10.6432L104.016 8.33398C104.237 8.26895 104.428 8.12984 104.558 7.94011L109.175 1.20359Z" fill="#E4E4EB"/>
<path d="M156.175 1.20359C156.572 0.624015 157.428 0.624014 157.825 1.20359L162.442 7.94011C162.572 8.12984 162.763 8.26895 162.984 8.33398L170.817 10.6432C171.491 10.8418 171.756 11.6553 171.327 12.2122L166.347 18.6847C166.207 18.867 166.134 19.0921 166.14 19.322L166.364 27.4857C166.384 28.1881 165.692 28.6908 165.03 28.4554L157.335 25.7191C157.118 25.6421 156.882 25.6421 156.665 25.7191L148.97 28.4554C148.308 28.6908 147.616 28.1881 147.636 27.4857L147.86 19.322C147.866 19.0921 147.793 18.867 147.653 18.6847L142.673 12.2122C142.244 11.6553 142.509 10.8418 143.183 10.6432L151.016 8.33398C151.237 8.26895 151.428 8.12984 151.558 7.94011L156.175 1.20359Z" fill="#E4E4EB"/>
<path d="M203.175 1.20359C203.572 0.624015 204.428 0.624014 204.825 1.20359L209.442 7.94011C209.572 8.12984 209.763 8.26895 209.984 8.33398L217.817 10.6432C218.491 10.8418 218.756 11.6553 218.327 12.2122L213.347 18.6847C213.207 18.867 213.134 19.0921 213.14 19.322L213.364 27.4857C213.384 28.1881 212.692 28.6908 212.03 28.4554L204.335 25.7191C204.118 25.6421 203.882 25.6421 203.665 25.7191L195.97 28.4554C195.308 28.6908 194.616 28.1881 194.636 27.4857L194.86 19.322C194.866 19.0921 194.793 18.867 194.653 18.6847L189.673 12.2122C189.244 11.6553 189.509 10.8418 190.183 10.6432L198.016 8.33398C198.237 8.26895 198.428 8.12984 198.558 7.94011L203.175 1.20359Z" fill="#E4E4EB"/>
</svg>
