<svg width="24" height="20" viewBox="0 0 24 20" fill="none" xmlns="http://www.w3.org/2000/svg">
<path d="M22.3402 8.64284L22.3327 8.63956L2.31328 0.336123C2.1449 0.265646 1.96167 0.238005 1.77999 0.255675C1.59831 0.273344 1.42384 0.335771 1.27219 0.437373C1.11197 0.542358 0.980359 0.68553 0.889207 0.854006C0.798055 1.02248 0.750218 1.21098 0.75 1.40253V6.713C0.750089 6.97487 0.841528 7.2285 1.00856 7.43018C1.17558 7.63186 1.40774 7.76896 1.665 7.81784L12.5836 9.83675C12.6265 9.84488 12.6652 9.86774 12.6931 9.90137C12.7209 9.935 12.7362 9.9773 12.7362 10.021C12.7362 10.0646 12.7209 10.1069 12.6931 10.1406C12.6652 10.1742 12.6265 10.1971 12.5836 10.2052L1.66547 12.2241C1.40828 12.2728 1.17614 12.4098 1.00903 12.6113C0.841932 12.8128 0.750328 13.0662 0.75 13.328V18.6394C0.749876 18.8223 0.795166 19.0024 0.881807 19.1635C0.968448 19.3246 1.09373 19.4616 1.24641 19.5624C1.43006 19.6844 1.6456 19.7496 1.86609 19.7499C2.01938 19.7497 2.1711 19.719 2.31234 19.6594L22.3313 11.4033L22.3402 11.3991C22.6096 11.2833 22.8392 11.091 23.0006 10.8461C23.1619 10.6011 23.2479 10.3143 23.2479 10.021C23.2479 9.72767 23.1619 9.4408 23.0006 9.19586C22.8392 8.95092 22.6096 8.75865 22.3402 8.64284Z" fill="#EEEEF2"/>
</svg>
