<svg width="280" height="236" viewBox="0 0 280 236" fill="none" xmlns="http://www.w3.org/2000/svg">
<path d="M0 8C0 5.19974 0 3.79961 0.544967 2.73005C1.02433 1.78924 1.78924 1.02433 2.73005 0.544967C3.79961 0 5.19974 0 8 0H272C274.8 0 276.2 0 277.27 0.544967C278.211 1.02433 278.976 1.78924 279.455 2.73005C280 3.79961 280 5.19974 280 8V228C280 230.8 280 232.2 279.455 233.27C278.976 234.211 278.211 234.976 277.27 235.455C276.2 236 274.8 236 272 236H8C5.19974 236 3.79961 236 2.73005 235.455C1.78924 234.976 1.02433 234.211 0.544967 233.27C0 232.2 0 230.8 0 228V8Z" fill="#1F1F26"/>
<g filter="url(#filter0_b)">
<path d="M0 160H280V227.95C280 230.797 280 232.221 279.437 233.305C278.963 234.218 278.218 234.963 277.305 235.437C276.221 236 274.797 236 271.95 236H8.04998C5.20254 236 3.77882 236 2.69513 235.437C1.78191 234.963 1.03731 234.218 0.562933 233.305C0 232.221 0 230.797 0 227.95V160Z" fill="#2B2B34"/>
<rect opacity="0.5" x="10" y="173" width="88" height="15" rx="2" fill="#42424E"/>
<rect opacity="0.5" x="10" y="201" width="120" height="20" rx="2" fill="#42424E"/>
<rect opacity="0.5" x="140" y="201" width="120" height="20" rx="2" fill="#42424E"/>
<rect opacity="0.5" x="110" y="178" width="106" height="10" rx="2" fill="#42424E"/>
</g>
<path d="M140 81.5C143.314 81.5 146 78.8137 146 75.5C146 72.1863 143.314 69.5 140 69.5C136.686 69.5 134 72.1863 134 75.5C134 78.8137 136.686 81.5 140 81.5Z" fill="#42424E"/>
<path d="M156.5 63.5H150.969C150.688 63.5 150.339 63.3181 150.067 63.0312L147.635 59.1931C147.597 59.1322 147.554 59.0742 147.507 59.0197C146.667 58.04 145.531 57.5 144.312 57.5H135.688C134.469 57.5 133.333 58.04 132.493 59.0197C132.446 59.0742 132.403 59.1322 132.365 59.1931L129.933 63.0369C129.725 63.2637 129.432 63.5056 129.125 63.5056V62.7556C129.125 62.3578 128.967 61.9763 128.686 61.695C128.404 61.4137 128.023 61.2556 127.625 61.2556H125.375C124.977 61.2556 124.596 61.4137 124.314 61.695C124.033 61.9763 123.875 62.3578 123.875 62.7556V63.5056H123.5C122.307 63.5069 121.163 63.9814 120.319 64.825C119.476 65.6687 119.001 66.8125 119 68.0056V86C119.001 87.1931 119.476 88.337 120.319 89.1806C121.163 90.0243 122.307 90.4988 123.5 90.5H156.5C157.693 90.4988 158.837 90.0243 159.681 89.1806C160.524 88.337 160.999 87.1931 161 86V68C160.999 66.8069 160.524 65.663 159.681 64.8194C158.837 63.9757 157.693 63.5012 156.5 63.5ZM140 84.5C138.22 84.5 136.48 83.9722 135 82.9832C133.52 81.9943 132.366 80.5887 131.685 78.9442C131.004 77.2996 130.826 75.49 131.173 73.7442C131.52 71.9984 132.377 70.3947 133.636 69.136C134.895 67.8774 136.498 67.0202 138.244 66.6729C139.99 66.3257 141.8 66.5039 143.444 67.1851C145.089 67.8663 146.494 69.0198 147.483 70.4999C148.472 71.9799 149 73.72 149 75.5C148.997 77.8861 148.048 80.1737 146.361 81.8609C144.674 83.5482 142.386 84.4973 140 84.5Z" fill="#42424E"/>
<defs>
<filter id="filter0_b" x="-60" y="100" width="400" height="196" filterUnits="userSpaceOnUse" color-interpolation-filters="sRGB">
<feFlood flood-opacity="0" result="BackgroundImageFix"/>
<feGaussianBlur in="BackgroundImage" stdDeviation="30"/>
<feComposite in2="SourceAlpha" operator="in" result="effect1_backgroundBlur"/>
<feBlend mode="normal" in="SourceGraphic" in2="effect1_backgroundBlur" result="shape"/>
</filter>
</defs>
</svg>
