<svg width="16" height="14" viewBox="0 0 16 14" fill="none" xmlns="http://www.w3.org/2000/svg">
<path d="M5.83204 13.5H5.00017C4.91658 13.5 4.83433 13.479 4.76095 13.439C4.68757 13.399 4.62539 13.3412 4.58009 13.2709C4.5348 13.2007 4.50785 13.1202 4.50169 13.0368C4.49554 12.9535 4.51037 12.8699 4.54485 12.7937L6.55923 8.34844L3.53454 8.28125L2.43142 9.61781C2.2211 9.88219 2.05329 10 1.62517 10H1.06517C0.976502 10.0029 0.888456 9.98429 0.808489 9.94589C0.728523 9.90748 0.658993 9.85036 0.605792 9.77938C0.531417 9.67906 0.458292 9.50906 0.529542 9.26656L1.14892 7.04781C1.1536 7.03125 1.15923 7.01469 1.16548 6.99844C1.16579 6.99689 1.16579 6.9953 1.16548 6.99375C1.15903 6.97751 1.1535 6.96092 1.14892 6.94406L0.528917 4.71125C0.46173 4.47344 0.535167 4.30719 0.608917 4.20937C0.658441 4.14366 0.722692 4.09049 0.796506 4.05412C0.87032 4.01776 0.951636 3.99922 1.03392 4H1.62517C1.94485 4 2.25517 4.14344 2.43767 4.375L3.51798 5.68906L6.55923 5.64406L4.54548 1.20656C4.51095 1.13045 4.49605 1.0469 4.50215 0.963551C4.50824 0.880199 4.53513 0.799703 4.58035 0.729423C4.62558 0.659143 4.6877 0.601321 4.76104 0.561243C4.83438 0.521165 4.91659 0.500109 5.00017 0.5H5.8411C5.95843 0.502358 6.07371 0.531113 6.17839 0.584131C6.28307 0.637149 6.37447 0.713068 6.44579 0.80625L10.3536 5.55625L12.1589 5.50875C12.2911 5.50156 12.6574 5.49906 12.742 5.49906C14.4689 5.5 15.5002 6.06063 15.5002 7C15.5002 7.29563 15.382 7.84375 14.5917 8.1925C14.1252 8.39875 13.5027 8.50313 12.7414 8.50313C12.6577 8.50313 12.2924 8.50063 12.1583 8.49344L10.3533 8.44531L6.43579 13.1953C6.36441 13.2881 6.2731 13.3636 6.16859 13.4164C6.06409 13.4691 5.94907 13.4977 5.83204 13.5Z" fill="#595966"/>
</svg>
