<svg width="140" height="40" viewBox="0 0 140 40" fill="none" xmlns="http://www.w3.org/2000/svg">
<path d="M0 4.83C0 3.12153 0 2.26729 0.33776 1.61708C0.622386 1.06915 1.06915 0.622386 1.61708 0.33776C2.26729 0 3.12153 0 4.83 0H135.17C136.878 0 137.733 0 138.383 0.33776C138.931 0.622386 139.378 1.06915 139.662 1.61708C140 2.26729 140 3.12153 140 4.83V35.17C140 36.8785 140 37.7327 139.662 38.3829C139.378 38.9309 138.931 39.3776 138.383 39.6622C137.733 40 136.878 40 135.17 40H4.83C3.12153 40 2.26729 40 1.61708 39.6622C1.06915 39.3776 0.622386 38.9309 0.33776 38.3829C0 37.7327 0 36.8785 0 35.17V4.83Z" fill="#1F1F26"/>
<rect opacity="0.5" x="20" y="13" width="100" height="14" rx="1" fill="#42424E"/>
</svg>
