<svg width="20" height="18" viewBox="0 0 20 18" fill="none" xmlns="http://www.w3.org/2000/svg">
<path d="M10 18C9.69895 17.9996 9.40495 17.9086 9.15628 17.7389C5.47238 15.2381 3.87722 13.5234 2.99738 12.4514C1.12238 10.1663 0.22472 7.82016 0.250032 5.27953C0.279563 2.36813 2.61534 0 5.45691 0C7.52316 0 8.95425 1.16391 9.78769 2.13328C9.81409 2.16368 9.84671 2.18805 9.88334 2.20476C9.91998 2.22146 9.95977 2.23011 10 2.23011C10.0403 2.23011 10.0801 2.22146 10.1167 2.20476C10.1534 2.18805 10.186 2.16368 10.2124 2.13328C11.0458 1.16297 12.4769 0 14.5432 0C17.3847 0 19.7205 2.36812 19.75 5.28C19.7753 7.82109 18.8768 10.1672 17.0027 12.4519C16.1228 13.5239 14.5277 15.2386 10.8438 17.7394C10.5951 17.9089 10.3011 17.9998 10 18Z" fill="#72727E"/>
</svg>
