<svg width="16" height="16" viewBox="0 0 16 16" fill="none" xmlns="http://www.w3.org/2000/svg">
<path d="M8.00016 7.33333C8.52758 7.33333 9.04315 7.17694 9.48168 6.88392C9.92021 6.5909 10.262 6.17443 10.4638 5.68716C10.6657 5.19989 10.7185 4.66371 10.6156 4.14643C10.5127 3.62914 10.2587 3.15399 9.88578 2.78105C9.51284 2.40811 9.03769 2.15413 8.5204 2.05124C8.00312 1.94835 7.46694 2.00116 6.97967 2.20299C6.4924 2.40482 6.07593 2.74662 5.78291 3.18515C5.48989 3.62368 5.3335 4.13925 5.3335 4.66667C5.3335 5.37391 5.61445 6.05219 6.11454 6.55229C6.61464 7.05238 7.29292 7.33333 8.00016 7.33333Z" fill="#595966"/>
<path d="M12.0002 13.9998C12.177 13.9998 12.3465 13.9296 12.4716 13.8046C12.5966 13.6796 12.6668 13.51 12.6668 13.3332C12.6668 12.0955 12.1752 10.9085 11.3 10.0333C10.4248 9.15817 9.23784 8.6665 8.00016 8.6665C6.76249 8.6665 5.5755 9.15817 4.70033 10.0333C3.82516 10.9085 3.3335 12.0955 3.3335 13.3332C3.3335 13.51 3.40373 13.6796 3.52876 13.8046C3.65378 13.9296 3.82335 13.9998 4.00016 13.9998H12.0002Z" fill="#595966"/>
</svg>
