<svg width="14" height="13" viewBox="0 0 14 13" fill="none" xmlns="http://www.w3.org/2000/svg">
<path d="M6.58756 0.601793C6.78617 0.312007 7.21383 0.312007 7.41244 0.601793L9.36818 3.45547C9.4332 3.55033 9.52893 3.61988 9.63924 3.6524L12.9576 4.6306C13.2946 4.72993 13.4267 5.13666 13.2125 5.41509L11.1029 8.15696C11.0327 8.2481 10.9962 8.36064 10.9993 8.47561L11.0944 11.9338C11.1041 12.285 10.7581 12.5364 10.4271 12.4187L7.16752 11.2596C7.05917 11.221 6.94083 11.221 6.83248 11.2596L3.5729 12.4187C3.24189 12.5364 2.8959 12.285 2.90556 11.9338L3.00067 8.47561C3.00384 8.36064 2.96727 8.2481 2.89714 8.15696L0.787494 5.41509C0.573263 5.13666 0.705419 4.72993 1.04239 4.6306L4.36076 3.6524C4.47107 3.61988 4.5668 3.55033 4.63182 3.45547L6.58756 0.601793Z" fill="white"/>
</svg>
