<svg width="52" height="40" viewBox="0 0 52 40" fill="none" xmlns="http://www.w3.org/2000/svg">
<path d="M0 20C0 8.95431 8.95431 0 20 0H32C43.0457 0 52 8.95431 52 20C52 31.0457 43.0457 40 32 40H20C8.9543 40 0 31.0457 0 20Z" fill="#0ABA08"/>
<path d="M34.9166 19.9334C35.7073 20.8896 36.0924 22.1173 35.9897 23.3538C35.8869 24.5903 35.3043 25.7375 34.3666 26.55C33.7833 27.05 33.5833 27.4667 33.95 28.1417C34.0166 28.2667 34.0333 28.425 34.0666 28.575C33.4833 28.3167 32.9416 27.925 32.3666 27.8667C31.7916 27.8084 31.1916 28.1334 30.5916 28.2C29.7249 28.3081 28.845 28.2229 28.0151 27.9506C27.1852 27.6783 26.4258 27.2256 25.7916 26.625C23.2333 24.2584 23.6 20.625 26.5583 18.6917C29.1916 16.9667 33.0583 17.5417 34.9083 19.9334H34.9166ZM28.7416 14.075C29.4007 14.921 29.8002 15.9399 29.8916 17.0084C28.0416 17.1 26.425 17.6667 25.1166 18.9334C24.4646 19.5411 23.9648 20.2939 23.6579 21.1307C23.351 21.9675 23.2455 22.8649 23.35 23.75C22.625 23.6584 21.9666 23.5584 21.3 23.5C21.0666 23.4834 20.8 23.5084 20.6 23.6167C19.9583 23.9834 19.3416 24.3917 18.6 24.85C18.7416 24.2417 18.825 23.7084 18.9833 23.2C19.0916 22.825 19.0416 22.6167 18.6916 22.3667C16.4666 20.7917 15.525 18.4417 16.2333 16.0167C16.8833 13.7667 18.4833 12.4084 20.65 11.7C22.0791 11.228 23.6181 11.2023 25.0621 11.6266C26.5061 12.0509 27.7867 12.9049 28.7333 14.075H28.7416ZM27.3833 20.7167C26.9916 20.7167 26.6666 21.05 26.6833 21.4334C26.7021 21.6048 26.7835 21.7633 26.9119 21.8784C27.0403 21.9935 27.2067 22.0571 27.3791 22.0571C27.5516 22.0571 27.7179 21.9935 27.8464 21.8784C27.9748 21.7633 28.0562 21.6048 28.075 21.4334C28.0772 21.3408 28.061 21.2486 28.0273 21.1623C27.9936 21.076 27.9432 20.9972 27.8788 20.9306C27.8145 20.8639 27.7376 20.8107 27.6525 20.774C27.5674 20.7372 27.4759 20.7178 27.3833 20.7167ZM31.6916 20.7167C31.325 20.7167 31.0166 21.0084 31 21.3834C30.9833 21.775 31.2916 22.0917 31.6833 22.0917C31.7708 22.0939 31.858 22.0789 31.9397 22.0474C32.0214 22.0159 32.0962 21.9687 32.1596 21.9083C32.2231 21.8479 32.274 21.7757 32.3096 21.6956C32.3451 21.6155 32.3645 21.5293 32.3666 21.4417C32.3723 21.3492 32.3591 21.2566 32.3278 21.1693C32.2965 21.0821 32.2478 21.0022 32.1847 20.9344C32.1216 20.8666 32.0453 20.8123 31.9605 20.7749C31.8758 20.7375 31.7843 20.7177 31.6916 20.7167ZM25.8083 15.3917C25.35 15.4 24.9666 15.7917 24.975 16.2334C24.9771 16.3435 25.0011 16.4522 25.0455 16.553C25.0899 16.6538 25.1539 16.7449 25.2337 16.8208C25.3135 16.8968 25.4076 16.9561 25.5105 16.9955C25.6135 17.0348 25.7232 17.0534 25.8333 17.05C26.3 17.05 26.6666 16.6834 26.6583 16.2167C26.6572 16.1066 26.6343 15.9977 26.5909 15.8965C26.5475 15.7952 26.4844 15.7036 26.4054 15.6269C26.3263 15.5502 26.2329 15.4899 26.1304 15.4495C26.0279 15.4092 25.9184 15.3895 25.8083 15.3917ZM20.525 15.3917C20.4148 15.3873 20.3049 15.4047 20.2016 15.443C20.0982 15.4813 20.0035 15.5398 19.9229 15.615C19.8423 15.6901 19.7774 15.7806 19.732 15.881C19.6865 15.9814 19.6615 16.0899 19.6583 16.2C19.65 16.6667 20.0083 17.0334 20.475 17.05C20.9416 17.0584 21.3333 16.7 21.35 16.25C21.3501 16.0281 21.2643 15.8146 21.1105 15.6546C20.9566 15.4946 20.7468 15.4003 20.525 15.3917Z" fill="white"/>
</svg>
