<svg width="53" height="40" viewBox="0 0 53 40" fill="none" xmlns="http://www.w3.org/2000/svg">
<path d="M0 20C0 8.95431 8.95431 0 20 0H33C44.0457 0 53 8.95431 53 20C53 31.0457 44.0457 40 33 40H20C8.95431 40 0 31.0457 0 20Z" fill="#25D366"/>
<path d="M37 19.75C37 25.125 32.6083 29.4833 27.1833 29.4833C25.4583 29.4833 23.85 29.0417 22.4333 28.275L17 30L18.775 24.775C17.8482 23.2597 17.3579 21.5179 17.3583 19.7417C17.3667 14.3583 21.7667 10 27.1917 10C32.6 10 37 14.3583 37 19.75ZM27.1833 11.5417C22.6333 11.5417 18.9333 15.2167 18.9333 19.7333C18.9333 21.525 19.5167 23.1833 20.5 24.5333L19.4667 27.5833L22.6333 26.5833C23.985 27.4693 25.5672 27.9387 27.1833 27.9333C31.7333 27.9333 35.4333 24.2667 35.4333 19.7417C35.4223 17.5624 34.5477 15.4764 33.0013 13.9409C31.4548 12.4053 29.3626 11.5456 27.1833 11.55V11.5417ZM32.1417 21.9833C32.075 21.8833 31.9167 21.825 31.675 21.7083C31.4417 21.5917 30.2583 21.0083 30.0333 20.9333C29.8167 20.85 29.65 20.8083 29.4917 21.05C29.325 21.2917 28.8667 21.825 28.7333 21.9833C28.5917 22.15 28.45 22.1667 28.2083 22.05C27.9667 21.925 27.1917 21.675 26.275 20.8583C25.7515 20.3772 25.3022 19.8212 24.9417 19.2083C24.7917 18.9667 24.9167 18.8417 25.0417 18.725C25.15 18.6167 25.2833 18.4417 25.4 18.3083C25.525 18.1667 25.5667 18.0583 25.6417 17.9083C25.725 17.7417 25.6833 17.6083 25.625 17.4917C25.5583 17.3667 25.0833 16.1917 24.875 15.7167C24.675 15.2333 24.475 15.3167 24.3417 15.3167C24.2 15.3167 24.0333 15.2917 23.875 15.2917C23.7083 15.2917 23.4583 15.3583 23.2333 15.5917C23.0167 15.8333 22.4 16.4083 22.4 17.5917C22.4 18.7583 23.2583 19.8917 23.375 20.0583C23.4917 20.2167 25.0417 22.7 27.4833 23.6583C29.9333 24.6167 29.9333 24.3 30.375 24.2583C30.8167 24.2167 31.7917 23.675 32 23.125C32.2 22.5667 32.2 22.0833 32.1417 21.9833Z" fill="white"/>
</svg>
