<svg width="56" height="56" fill="none" xmlns="http://www.w3.org/2000/svg"><path fill-rule="evenodd" clip-rule="evenodd" d="M7.102.102C6.224.37 5.375 1.074 4.96 1.88c-.25.483-.33 1.706-.152 2.341.103.368 1.132 1.876 3.788 5.553 2.006 2.777 3.647 5.086 3.648 5.131.001.045-2.275.083-5.059.083l-5.06.002-.555.258a2.75 2.75 0 00-1.42 1.62c-.142.425-.167.96-.139 2.956.033 2.263.053 2.47.275 2.886.273.51.9 1.099 1.388 1.304l.332.14 2.086 9.994c1.531 7.335 2.157 10.133 2.353 10.52.34.672 1.051 1.327 1.843 1.699l.62.29h20.534l.264-.306c.345-.402.344-.882-.004-1.23l-.269-.269-9.824-.002c-5.502-.002-10.014-.047-10.254-.102a1.798 1.798 0 01-1.195-.865c-.126-.215-.939-3.88-2.157-9.725-1.076-5.159-1.983-9.49-2.016-9.626l-.06-.246h5.71l.32-.32c.176-.176.32-.42.32-.542 0-.342-.219-.742-.478-.876-.153-.078-1.477-.13-3.827-.148l-3.592-.028-.27-.315-.27-.314.033-2.239c.033-2.202.038-2.243.292-2.448.246-.2.508-.209 5.908-.206l5.65.003.985 1.377c1.305 1.825 1.977 2.284 3.337 2.278.877-.004 1.616-.314 2.264-.948.566-.554.925-1.362.947-2.129l.016-.582H34.73l.016.588c.022.754.365 1.528.936 2.111.607.62 1.377.944 2.276.955 1.351.017 2.029-.445 3.337-2.273l.984-1.377 5.65-.003c5.4-.003 5.662.006 5.908.206.254.205.26.246.292 2.448l.034 2.24-.27.313-.27.315-19.601.054-19.6.055-.21.273c-.31.403-.272.836.104 1.212l.32.32H33.36c17.782 0 18.722.01 18.668.191a204.35 204.35 0 00-.736 3.465c-.621 2.993-.666 3.297-.52 3.555.215.384.71.613 1.06.489.149-.053.36-.22.47-.37.127-.177.461-1.55.94-3.866l.743-3.593.337-.14c.491-.206 1.119-.794 1.393-1.307.222-.416.242-.623.275-2.886.028-1.996.003-2.532-.138-2.957a2.75 2.75 0 00-1.421-1.62l-.555-.258h-5.072c-4.055-.002-5.061-.03-5.019-.14.03-.077 1.66-2.364 3.625-5.082s3.645-5.148 3.733-5.4c.214-.605.205-1.576-.022-2.242-.26-.766-1.208-1.689-1.99-1.938C48.808.084 48.337 0 48.084 0c-.74 0-1.518.289-2.057.763-.29.255-2.484 3.196-5.285 7.084-2.634 3.656-4.888 6.759-5.01 6.894l-.22.246H20.488l-.22-.246c-.122-.135-2.326-3.175-4.9-6.755-2.572-3.58-4.934-6.757-5.249-7.06C9.73.547 9.366.315 8.97.186c-.6-.194-1.393-.23-1.868-.085zm1.534 2.004c.439.298 10.68 14.433 10.78 14.877.096.428-.13 1.014-.513 1.337-.255.215-.45.277-.87.277-.459 0-.596-.053-.915-.355-.327-.31-9.827-13.374-10.361-14.249-.232-.38-.259-.975-.062-1.364.193-.38.813-.77 1.228-.77.193 0 .514.111.713.247zm40.162.003c.203.137.431.371.507.52.197.39.17.985-.062 1.364-.534.875-10.034 13.94-10.36 14.249-.32.302-.457.355-.917.355-.418 0-.614-.062-.87-.277-.383-.322-.607-.908-.512-1.337.098-.444 10.34-14.578 10.78-14.877.2-.136.52-.246.713-.246.193 0 .517.112.72.25zm-35.07 24.193c-.569.212-.917.479-1.336 1.025-.656.854-.656.862.129 7.633.78 6.73.776 6.715 1.618 7.435.558.478 1.454.758 2.128.665.268-.036.734-.2 1.035-.365.91-.495 1.398-1.327 1.398-2.381 0-.335-.296-3.174-.659-6.31-.688-5.96-.762-6.342-1.343-6.965-.133-.142-.452-.382-.71-.534-.587-.345-1.627-.438-2.26-.203zm13.348 0a3.491 3.491 0 00-.71.368c-.51.377-.971 1.091-1.098 1.7-.083.403-.112 2.45-.09 6.484.031 5.713.04 5.911.26 6.39.48 1.037 1.443 1.661 2.562 1.661 1.119 0 2.081-.624 2.561-1.662.224-.482.229-.636.229-6.729 0-6.893.03-6.577-.714-7.426a3.264 3.264 0 00-.804-.635c-.572-.292-1.622-.364-2.196-.15zm13.506-.06c-.8.262-1.517.893-1.81 1.595-.078.186-.272 1.47-.43 2.852-.217 1.892-.33 2.54-.455 2.622-.091.06-.47.303-.842.54-.976.623-2.565 2.251-3.303 3.385-1.779 2.735-2.385 5.927-1.733 9.132.446 2.194 1.787 4.614 3.422 6.175 2.05 1.958 4.424 3.066 7.236 3.379.94.104 1.454.104 2.395 0 2.034-.227 3.808-.851 5.494-1.936.442-.284 1.299-1.015 1.904-1.625 1.645-1.658 2.564-3.28 3.195-5.64.247-.924.28-1.262.28-2.853 0-1.59-.033-1.93-.28-2.852-.63-2.361-1.55-3.983-3.195-5.641-.605-.61-1.462-1.342-1.904-1.626-1.688-1.085-3.46-1.709-5.5-1.936l-1.203-.133.058-.388c.032-.213.111-.868.177-1.455.102-.907.093-1.16-.056-1.673a2.938 2.938 0 00-1.415-1.713c-.479-.244-1.583-.358-2.035-.21zm-25.336 2.02c.14.14.286.448.323.683.123.787 1.271 10.904 1.271 11.205 0 .163-.102.427-.227.585-.176.224-.322.289-.656.289-.473 0-.824-.261-.917-.681-.083-.374-1.276-10.787-1.298-11.335-.017-.397.03-.517.287-.738.395-.34.882-.344 1.217-.009zm13.353.005c.144.143.292.426.33.629.036.202.052 2.886.034 5.965l-.033 5.598-.265.282a.903.903 0 01-1.33 0l-.265-.282-.034-5.488c-.018-3.019-.002-5.704.037-5.967.132-.911.955-1.309 1.526-.737zm13.324-.044c.152.119.303.328.335.464.033.137-.023.909-.124 1.716l-.184 1.467-.957.24c-.628.157-.957.198-.955.119.01-.58.436-3.583.532-3.764.263-.49.894-.604 1.353-.242zm3.258 5.476c1.232.152 2.86.72 3.947 1.376 1.853 1.118 3.513 3.055 4.245 4.954.577 1.495.71 2.214.71 3.839.002 1.158-.05 1.684-.239 2.44a11.165 11.165 0 01-1.365 3.162c-.507.792-1.684 2.036-2.524 2.668-.912.685-2.461 1.415-3.574 1.683-1.92.463-3.77.402-5.632-.184-1.557-.491-2.778-1.227-4.034-2.432-1.359-1.303-2.427-3.198-2.858-5.069a10.423 10.423 0 01-.13-3.749c.345-2.254 1.298-4.135 2.91-5.744 1.043-1.041 2.221-1.828 3.456-2.308.742-.288 1.853-.562 2.732-.675.664-.086 1.451-.072 2.355.039z" fill="#E9AAA6"/></svg>