<svg width="55" height="56" fill="none" xmlns="http://www.w3.org/2000/svg"><path fill-rule="evenodd" clip-rule="evenodd" d="M8.58.227c-.35.273-.563.94-.798 2.495-.329 2.177-.13 4.614.492 6.01.13.292.224.541.208.553-.016.011-.393.213-.838.45-1.645.87-3.184 2.449-4.01 4.11a8.171 8.171 0 00-.667 5.229c.195.927.89 2.375 1.452 3.026l.403.467-.312.188c-1.67 1.008-2.382 1.777-3.18 3.438C.555 27.805 0 30.127 0 31.753c0 .516.042.628.32.86.44.369 2.423.838 4.122.975 1.461.117 2.638.027 3.724-.286.816-.235 2.03-.853 2.524-1.283.22-.192.415-.33.431-.307l.515.796c.591.918 1.899 2.156 2.741 2.594.62.322 1.105.868 1.909 2.147.256.409.273.475.1.404-1.365-.565-2.973-.754-3.965-.467-.82.237-1.49.748-1.79 1.365-.136.277-.27.813-.3 1.192-.041.51.003.86.172 1.354.126.367.22.669.208.672-.01.002-.305.189-.655.413-.349.225-.784.624-.965.886-.357.516-.694 1.388-.694 1.796 0 .14.08.52.177.847.332 1.11 1.734 2.187 3.408 2.618 1.84.474 3.8.292 5.42-.503.49-.24.906-.42.926-.401.02.02-.064.356-.186.748-.379 1.218-1.264 2.393-2.356 3.129-.639.43-.784.611-.784.981 0 .404.339.802 1.144 1.346 1.515 1.022 3.507 1.708 6.3 2.168.942.155 1.84.203 3.807.203 1.953 0 2.872-.048 3.807-.2 1.281-.21 2.624-.515 3.582-.816.686-.215 2.177-.946 2.792-1.369.809-.555 1.07-.855 1.07-1.229 0-.19-.049-.437-.109-.549-.06-.112-.326-.33-.591-.484-.586-.34-1.391-1.178-1.8-1.87-.373-.634-.78-1.807-.965-2.791l-.14-.748.403-.378c.27-.253.404-.478.404-.678 0-.43-.166-.68-.556-.84-.301-.124-.34-.193-.34-.6.002-.639.368-2.08.782-3.071.418-1.005 1.055-2.192 1.734-3.235l.502-.771h.88c1.694 0 3.54-.67 5.02-1.822a9.24 9.24 0 001.313-1.288c.533-.675 1.312-2.043 1.436-2.524.06-.233.078-.235.719-.085.882.206 2.676.197 3.968-.02 1.282-.217 3.292-.844 3.81-1.19.451-.3.516-.644.326-1.729-.294-1.672-1.181-3.858-2.132-5.25-.63-.923-1.768-1.922-2.724-2.391l-.834-.41.377-.794c.54-1.139.72-1.95.72-3.248 0-1.435-.269-2.506-.97-3.863-.44-.85-.725-1.219-1.656-2.145-1.179-1.174-2.076-1.778-3.432-2.311-1.232-.485-1.997-.646-3.346-.706-1.82-.081-3.115.192-4.718.994l-1.193.597-.132-.452c-.207-.703-.978-2.058-1.548-2.721-1.191-1.386-3.142-2.43-5.451-2.92-.37-.077-1.276-.137-2.015-.13-1.065.008-1.575.07-2.457.3-1.261.329-2.632.966-3.517 1.634-.33.248-.61.436-.625.417l-.37-.541c-.19-.279-.679-.817-1.087-1.196C15.85 1.33 13.566.441 10.863.112 9.419-.063 8.92-.038 8.582.227zm3.343 1.953c1.348.27 2.503.71 3.361 1.281.454.301.972.734 1.153.961.366.461.804 1.236.804 1.421 0 .125-.81 1.73-.924 1.83-.035.03-.27-.253-.523-.63-.54-.802-1.791-2.002-2.316-2.22-.408-.17-.65-.118-1.023.215-.169.151-.252.352-.252.61 0 .334.11.485.854 1.176.469.436.993.995 1.164 1.242l.311.45-1.64-.005c-.902-.003-1.849.033-2.103.078l-.462.083-.237-.547a9.14 9.14 0 01-.404-1.25c-.194-.818-.221-2.82-.053-3.875.19-1.187.147-1.136.872-1.051.35.04.987.145 1.418.231zm15.203 1.917c.752.328 1.277.753 1.587 1.284.352.602.45 1.18.283 1.679l-.134.403-.272-.368c-.384-.522-1.123-1.053-1.777-1.28-.384-.132-.884-.19-1.592-.186-.926.006-1.107.044-1.756.361-.45.22-.912.563-1.222.905-.465.513-.503.534-.566.302-.124-.46-.071-1.202.11-1.56.39-.77 1.15-1.353 2.227-1.71.673-.222 2.433-.126 3.112.17zM19.924 7.84c.233.705.884 1.595 1.504 2.055.835.62 1.593.963 2.56 1.162 1.053.216 1.705.219 2.685.013 1.635-.345 3.087-1.347 3.755-2.591.362-.674.59-1.702.497-2.228l-.054-.302.414.39c.506.475 1.251 1.945 1.42 2.798.118.596.11.65-.156 1.001-.655.867-1.223 2.372-1.368 3.626-.076.662-.109.722-.652 1.194-.74.643-2.138 1.336-3.258 1.615-.996.249-2.447.29-3.488.1a10.48 10.48 0 01-1.509-.444l-.844-.323-.175-.918c-.33-1.738-1.365-3.457-2.728-4.535-.668-.528-.714-.593-.655-.923.21-1.178.568-1.986 1.313-2.97l.463-.611.064.723c.036.398.13.923.212 1.168zm6.232-.225c.307.091.677.29.822.444.22.233.244.322.144.54-.2.435-.868.687-1.82.687-.64 0-.93-.053-1.219-.222-.208-.123-.453-.335-.545-.472-.154-.233-.142-.271.19-.579.336-.312.945-.524 1.581-.55.158-.007.54.062.846.152zm16.469 1.292c1.012.344 2.001 1.156 2.444 2.006.098.19.207.61.24.934.05.468.01.695-.187 1.1-.136.28-.282.51-.324.51-.042 0-.167-.255-.279-.568-.297-.833-.957-1.48-2.039-2-1.13-.543-2.044-.665-2.975-.396-.34.098-.803.303-1.03.456l-.41.277v-.42c0-.271.113-.598.322-.925.575-.901 1.642-1.353 2.924-1.238.4.036.991.155 1.314.264zm-6.262.796c-.179.465-.215.77-.178 1.495.04.777.11 1.037.472 1.765.945 1.899 2.808 3.069 5.296 3.325a5.457 5.457 0 002.682-.454c.678-.319 1.597-1.106 1.945-1.666.134-.215.332-.621.44-.903l.195-.511.244.648c.481 1.278.504 3.03.053 4.184-.294.753-1.12 1.935-1.701 2.434-.67.576-2.07 1.28-2.874 1.446l-.624.128-.79-.502a12.303 12.303 0 00-3.083-1.36c-.36-.1-1.224-.206-1.919-.238l-1.263-.058-.55-.614c-1.122-1.25-1.782-3.207-1.622-4.809.087-.865.402-1.848.797-2.483.422-.68 1.234-1.488 1.988-1.98.363-.237.673-.43.689-.43.015 0-.074.262-.197.583zm-23.08 1.15c.678.416 1.227 1.127 1.327 1.716.043.252.05.486.016.52-.034.034-.22-.069-.41-.229-.192-.16-.632-.373-.98-.473-1.203-.347-2.931-.01-3.975.777-.535.403-1.185 1.3-1.278 1.763-.034.17-.102.31-.15.31-.049 0-.2-.23-.337-.51-.2-.41-.236-.63-.185-1.118.14-1.352 1.312-2.493 3.08-2.998.306-.087.907-.137 1.441-.118.788.027.992.078 1.452.36zm4.464 1.436c.725.718 1.332 1.739 1.577 2.655.202.755.197 2.203-.011 2.997-.092.35-.292.883-.445 1.183-.265.518-.31.552-.906.675-2.246.463-4.15 1.569-5.625 3.265-.368.424-.371.425-1.208.417-1.054-.011-1.993-.247-3.068-.77-.593-.288-1.07-.637-1.627-1.188-1.208-1.197-1.728-2.436-1.73-4.121-.002-.967.204-1.932.553-2.587.168-.316.22-.358.224-.18.01.452.68 1.575 1.274 2.132 1.088 1.023 2.298 1.435 3.888 1.323 1.181-.082 2.178-.38 3.112-.931.887-.523 1.905-1.59 2.318-2.429.243-.492.325-.842.362-1.54.043-.823-.024-1.304-.264-1.892-.08-.193-.044-.188.407.056.272.147.798.568 1.17.935zm23.547.117c.387.114.753.333 1.084.648.275.262.5.552.5.645 0 .093-.106.264-.236.38-.183.165-.403.212-.98.21-.608-.002-.851-.062-1.339-.328-.644-.352-1.027-.787-1.027-1.166 0-.162.115-.288.364-.395.477-.206.92-.205 1.635.006zm-28.307 1.862c.154.077.295.245.313.373.05.339-.498.922-1.148 1.223-1.012.468-2.412.299-2.412-.291 0-.438.778-1.106 1.567-1.344.447-.135 1.375-.114 1.68.04zm18.584 2.64c0 .292.53 1.438.962 2.078.272.401.493.762.493.8 0 .04-.264.162-.587.273-1.476.509-3.082 1.783-3.972 3.153l-.448.69-.35-.535c-.483-.741-1.753-1.904-2.667-2.441-.905-.532-2.49-1.08-3.507-1.211-.553-.072-.717-.133-.683-.256.247-.896.418-1.437.47-1.49.036-.034.355.036.71.158.99.338 2.337.558 3.406.557 1.822-.003 3.886-.601 5.333-1.546.626-.41.84-.468.84-.23zm16.585 4.621c1.048.362 2.149 1.38 2.896 2.677.5.87 1.167 2.645 1.294 3.448l.073.46-.712.233a17.93 17.93 0 01-1.552.412c-1.044.221-3.114.235-3.806.026l-.504-.153-.072-.774a9.004 9.004 0 00-.71-2.761l-.28-.63.418.174c.482.2 1.295.705 1.887 1.173.526.415 1.064.434 1.45.051a.876.876 0 00.101-1.146c-.27-.384-1.506-1.212-2.507-1.679l-.913-.426.73-.424c.4-.233.839-.54.973-.683.26-.273.383-.271 1.234.022zm-27.109.3c1.052.382 1.789 1.341 1.791 2.328 0 .165-.043.326-.095.358-.053.033-.216-.07-.364-.226-.588-.627-1.824-.998-2.999-.9-1.449.12-2.774.857-3.352 1.863l-.323.562-.156-.366c-.22-.52-.172-1.402.106-1.944.472-.918 1.741-1.73 3-1.919a4.742 4.742 0 012.392.243zm17.165-.197c.862.224 1.453.536 2.054 1.087.608.556.998 1.204 1.098 1.821.083.512-.063 1.184-.343 1.58l-.184.26-.262-.65c-.182-.449-.44-.812-.839-1.18-.673-.623-1.196-.908-2.084-1.138-1.171-.303-2.397-.157-3.151.377-.184.13-.37.236-.413.236-.136 0 .066-.816.311-1.25.43-.762 1.497-1.284 2.662-1.301.28-.004.798.067 1.151.159zm-5.8.943c-.224.631-.216 1.94.016 2.626.27.799.806 1.576 1.566 2.274 1.185 1.088 2.742 1.66 4.526 1.665.938.002 1.824-.217 2.525-.625.691-.401 1.585-1.403 1.933-2.166l.31-.677.18.483c.328.883.417 1.365.417 2.268.001 1.036-.216 1.968-.645 2.768-.166.31-.655.92-1.087 1.353-.567.569-1.02.901-1.626 1.194-1.2.582-2.087.781-3.47.782-.878 0-1.403-.063-2.07-.25-1.242-.345-2.157-.803-3.115-1.56-1.27-1.002-2.224-2.399-2.601-3.806-.088-.328-.16-1.005-.162-1.503a5.758 5.758 0 011.755-4.172c.51-.49 1.6-1.247 1.68-1.167.02.02-.039.251-.132.513zm-7.32.682c.618.486 1.43 1.66 1.749 2.531a5.846 5.846 0 01-.149 4.33c-.407.915-1.206 1.958-1.983 2.588-.815.662-2.19 1.351-3.207 1.61-1.146.29-2.501.335-3.575.119-1.12-.226-1.867-.508-2.743-1.037a6.172 6.172 0 01-2.895-4.348c-.114-.785-.107-1.056.047-1.795.235-1.129.57-1.872.897-1.995.23-.087.271-.053.383.311.48 1.554 1.58 2.624 3.29 3.195.451.151.942.206 1.846.205.997 0 1.39-.051 2.057-.268 1.495-.486 2.866-1.578 3.438-2.739.377-.767.554-1.859.41-2.532-.062-.286-.087-.52-.058-.52.03 0 .252.156.493.345zM7.252 24.4c.414.207.967.44 1.229.518.261.078.475.172.474.208 0 .036-.314.266-.698.51-.872.558-2.072 1.503-2.911 2.294-.582.548-.644.651-.644 1.067 0 .366.061.509.295.692.529.413.838.313 1.857-.603.983-.884 2.25-1.825 3.154-2.342l.548-.313-.09.437c-.05.24-.095 1.006-.1 1.7l-.01 1.265-.56.505c-1.134 1.024-2.9 1.547-4.814 1.425-1.355-.087-2.97-.389-3.04-.569-.092-.239.282-1.993.647-3.03.693-1.97 1.585-3.14 2.887-3.785.394-.195.786-.355.87-.355.084 0 .492.17.906.376zm30.42 1.001c.758.356 1.204.84 1.157 1.252-.03.26-.118.345-.477.461-1.088.353-2.974-.542-2.974-1.412 0-.597 1.301-.768 2.295-.301zm-16.76.08c.137.085.279.245.314.355.167.523-.827 1.17-1.952 1.27-.508.047-.766.009-1.174-.17-.412-.181-.523-.287-.523-.495 0-.386.556-.841 1.337-1.095.414-.134 1.704-.047 1.997.135zm7.686 6.404c.182.285.522.738.756 1.007.234.269.426.53.426.579 0 .049-.226.423-.5.831a12.483 12.483 0 00-1.955 5.12c-.215 1.54-.14 2.13.318 2.48.316.24.788.164 1.138-.184.289-.286.327-.403.327-.99 0-.857.237-2.079.607-3.132.277-.786.958-2.083 1.391-2.65l.197-.258.872.467c.48.257 1.233.583 1.673.724.441.14.793.298.782.349-.01.05-.233.441-.495.868-.599.977-1.272 2.396-1.626 3.428-.319.929-.602 2.432-.602 3.195 0 .413-.045.548-.196.593-.108.032-.775.147-1.483.256-1.796.276-6.128.275-7.95-.002-.707-.108-1.375-.222-1.482-.254-.16-.047-.197-.189-.198-.746-.003-.764-.213-1.87-.566-2.968-.265-.826-1.18-2.783-1.674-3.581a8.382 8.382 0 01-.333-.565c0-.014.617-.031 1.371-.038.786-.007 1.667-.083 2.063-.178l.69-.165.334.734c.596 1.313.788 2.08.909 3.617.078 1.01.111 1.127.388 1.363.406.347.895.335 1.263-.03.287-.285.29-.307.225-1.474-.037-.652-.166-1.565-.287-2.029-.178-.68-.644-1.977-.98-2.73-.031-.07.27-.307.67-.529.964-.536 2.358-1.86 2.982-2.83.277-.432.529-.788.56-.791.03-.004.204.227.385.513zM15.161 39.2c.399.149.992.44 1.318.649.998.634 2.105 1.989 2.105 2.574 0 .138-.134.091-.587-.207a8.885 8.885 0 00-1.372-.691c-.712-.277-.932-.308-2.407-.328l-1.623-.023-.196-.371a2.097 2.097 0 01-.196-.824c0-.778.373-1.041 1.48-1.047a3.91 3.91 0 011.478.268zm.925 4.11c1.03.362 1.715 1.006 1.715 1.616 0 .346-.625.973-1.267 1.272-.74.343-1.575.518-2.484.518s-1.745-.175-2.483-.518c-.643-.3-1.267-.926-1.267-1.272 0-.881 1.3-1.695 2.974-1.862.91-.09 2.164.02 2.812.246zm6.249 3.144c1.007.146 2.016.194 4.03.188 2.13-.006 2.989-.055 4.142-.235.8-.125 1.492-.204 1.539-.175.047.028.085.186.085.351 0 .596.572 2.436 1.067 3.44.318.641.736 1.271 1.117 1.68l.61.655-.753.344c-.415.19-.977.423-1.249.518-.494.173-.497.172-1.103-.19a7.638 7.638 0 01-1.204-.96c-.628-.626-1.288-1.746-1.503-2.552-.17-.632-.464-.912-.962-.912-.47 0-.946.407-.946.81 0 .443.337 1.431.766 2.249.225.428.727 1.113 1.115 1.522l.706.743-.538.091c-.703.12-5.052.118-5.893-.001l-.653-.093.718-.741c.395-.408.898-1.067 1.119-1.465.434-.781.757-1.74.757-2.25 0-.446-.448-.864-.927-.864-.485 0-.777.314-1.032 1.112a5.92 5.92 0 01-1.513 2.44c-.348.34-.888.757-1.198.925-.551.297-.578.3-1.055.134a18.383 18.383 0 01-1.24-.515l-.753-.344.66-.715a7.472 7.472 0 001.115-1.642c.416-.845.886-2.355 1.07-3.436.063-.37.106-.42.318-.368.134.033.849.148 1.588.256z" fill="#E9AAA6"/></svg>