<svg width="56" height="54" fill="none" xmlns="http://www.w3.org/2000/svg"><path fill-rule="evenodd" clip-rule="evenodd" d="M23.35.133c-.181.065-1.141.692-2.134 1.394-.993.702-3.16 2.215-4.815 3.361-1.655 1.147-3.21 2.275-3.457 2.507-.828.781-.81.607-.81 8.232v6.748h-.36c-.198 0-.568.11-.821.246-.782.416-9.679 6.679-10.16 7.152-.852.836-.812.265-.78 11.383.028 9.514.037 9.889.241 10.299.251.505.802 1.077 1.295 1.346.33.18 1.056.195 10.925.222l10.572.03.606-.319.606-.318.628.316.628.316 10.407-.002c10.202-.002 10.417-.007 10.9-.223.367-.164 1.527-1.25 4.576-4.282 2.245-2.234 4.19-4.258 4.322-4.498l.239-.437.03-9.434c.032-10.375.054-10.004-.633-10.835-.18-.218-.583-.524-.896-.68l-.569-.282h-9.784l.345-.628.345-.627v-9.497c0-10.526.048-9.818-.724-10.695a3.308 3.308 0 00-.916-.674L42.608 0l-9.465.008c-6.483.005-9.569.044-9.794.125zM27.841 4.2l-3.03 2.347h-3.658c-2.012 0-3.656-.037-3.653-.082.004-.045 1.469-1.1 3.256-2.345l3.249-2.264 3.433-.001 3.433-.002-3.03 2.347zM41.35 1.896c0 .024-1.234 1.117-2.742 2.429-2.11 1.836-2.797 2.376-2.982 2.344-.132-.023-1.914-.072-3.96-.11l-3.719-.066 2.954-2.314 2.953-2.313 3.748-.006c2.061-.004 3.748.013 3.748.036zm1.582 18.623c-.056.319-.528.844-2.822 3.142l-2.754 2.759-.06-8.981c-.034-4.94-.083-9.062-.11-9.16-.035-.125.816-.934 2.85-2.711l2.9-2.533.031 8.551c.017 4.703.002 8.723-.035 8.933zm-7.76-11.848l.269.268v19.34l-.269.268-.268.268H14.53l-.269-.268-.268-.267V8.939l.268-.268.269-.268h20.374l.268.268zm-18.17 12.876c-.407.182-.878.675-1.032 1.08-.064.17-.116.887-.116 1.594 0 1.134.03 1.342.254 1.767.158.297.419.575.684.727.416.24.507.247 2.911.219 2.312-.027 2.503-.044 2.784-.254.71-.529.753-.673.753-2.485 0-1.574-.013-1.675-.263-2.024-.491-.687-.873-.774-3.403-.772-1.634.002-2.332.042-2.571.148zm12.251.114a.867.867 0 00-.268.66c0 .27.083.474.268.66.263.262.306.267 2.03.267 1.723 0 1.766-.005 2.029-.268.295-.294.358-.862.128-1.16-.282-.367-.603-.427-2.265-.427-1.61 0-1.66.007-1.922.268zm-7.818 2.515v.928h-3.72v-1.856h3.72v.928zm-9.28 2.32c.018 1.246.029 2.278.023 2.294-.006.016-1.537.016-3.4 0l-3.39-.03 3.181-2.253c1.75-1.24 3.265-2.26 3.367-2.265.167-.01.188.207.219 2.254zm37.816.054a345.454 345.454 0 01-2.83 2.452c-.133.104-.28.099-.7-.027-.425-.128-1.359-.16-4.698-.16h-4.167l2.296-2.292 2.296-2.292H52.63l-2.66 2.32zm-20.494-1.32c-.355.194-.492.436-.492.87 0 .31.069.461.288.633.264.208.434.227 2.03.227 1.702 0 1.746-.006 2.009-.268.395-.395.367-.94-.068-1.305-.33-.277-.372-.283-1.942-.28-.95.002-1.695.053-1.825.123zm24.675 9.066v8.864l-2.763 2.764-2.763 2.764-.066-8.872c-.036-4.88-.085-8.992-.11-9.14-.037-.232.334-.596 2.802-2.755 1.565-1.368 2.858-2.488 2.873-2.489.015 0 .027 3.988.027 8.864zm-31.14-3.306l.283.265v19.402l-.269.268-.268.268H12.69c-7.145 0-10.144-.035-10.334-.121a.91.91 0 01-.388-.388c-.086-.188-.121-3.044-.121-9.797 0-9.398.003-9.535.22-9.812.122-.154.332-.302.466-.328.134-.026 4.733-.042 10.22-.035l9.976.014.282.264zm23.082-.169c.213.089.414.28.49.464.099.236.124 2.672.102 9.847l-.03 9.534-.306.263-.308.264H25.823l-.306-.264-.307-.263-.033-9.424c-.023-6.677.003-9.546.089-9.842.22-.755-.302-.72 10.643-.725 8.103-.003 9.888.022 10.185.146zm-41.237 13.1c-.41.187-.88.68-1.033 1.084-.146.386-.151 2.51-.007 3.027.122.439.671 1.017 1.13 1.19.18.067 1.234.115 2.548.115 2.51 0 2.834-.077 3.344-.789.232-.325.258-.492.29-1.842.041-1.721-.056-2.077-.698-2.567l-.413-.314-2.417-.027c-1.855-.02-2.492.01-2.744.124zm12.25.117c-.33.33-.357.908-.06 1.275.2.247.28.26 1.82.294.886.02 1.729.006 1.873-.03a.913.913 0 00.426-1.539c-.263-.262-.306-.268-2.03-.268-1.723 0-1.766.006-2.029.268zm11.052-.114c-.398.172-.893.731-1.007 1.137-.045.16-.081.881-.08 1.602.003 1.487.108 1.8.782 2.314l.402.305 2.252.035c2.58.038 2.83.01 3.304-.39.586-.491.748-1.007.748-2.373 0-1.608-.332-2.327-1.233-2.668-.467-.176-4.747-.146-5.168.038zm12.255.114c-.376.376-.356.861.052 1.269l.32.319h1.657c.977 0 1.747-.049 1.877-.118.319-.17.555-.789.428-1.121-.21-.551-.458-.617-2.334-.617-1.692 0-1.737.006-2 .268zM9.29 46.554v.927H5.57v-1.855h3.72v.928zm23.416 0v.927h-3.72v-1.855h3.72v.928zm-15.598 1.195a.867.867 0 00-.268.66c0 .27.083.475.268.66.263.262.306.268 2.03.268 1.723 0 1.766-.006 2.029-.268a.867.867 0 00.269-.66.867.867 0 00-.27-.66c-.262-.262-.305-.268-2.028-.268-1.724 0-1.767.006-2.03.268zm23.516-.14c-.52.251-.62 1.01-.189 1.44.288.287.296.288 2.019.288 1.662 0 1.741-.01 2.03-.259a.865.865 0 000-1.338c-.289-.248-.366-.258-1.963-.251-.915.004-1.768.058-1.897.12z" fill="#E9AAA6"/></svg>