<svg width="56" height="44" fill="none" xmlns="http://www.w3.org/2000/svg"><path fill-rule="evenodd" clip-rule="evenodd" d="M1.275.358C.858.535.4.896.258 1.161.08 1.494.002 6.916.005 18.591.01 34.287.041 35.576.425 36.05c.697.861 1.367 1.045 3.81 1.045H6.59l.43 1.212c.465 1.309 1.8 2.817 3.078 3.478 1.042.54 3.695.72 4.886.332 1.888-.614 3.88-2.638 4.295-4.364l.159-.658 2.606-.005c1.434-.002-2.904-.004 1.769-.004s9.386.002 10.474.005l1.978.004.404 1.139c.457 1.286 1.945 2.917 3.257 3.57 1.217.605 4.617.605 5.737 0 1.3-.702 2.619-2.199 3.08-3.497l.43-1.212h2.349c2.488 0 3.524-.307 3.993-1.183.147-.275.247-2.535.247-5.608 0-6.14.131-5.854-3.336-7.273l-2.26-.925-1.46-5.792c-1.333-5.294-1.525-5.859-2.231-6.566l-.773-.773-5.722-.071-5.723-.072-.077-3.561c-.068-3.157-.133-3.637-.571-4.223-.272-.364-.802-.744-1.176-.845-.375-.1-.134-.178-10.873-.173C5.785.036 1.889.099 1.275.358zm30.51 7.605l-.076 5.57-.768 1.562c-1.338 2.715-3.66 4.6-6.65 5.4-.94.25-.958.323-7 .323l-15.137.002V2.393H31.86l-.076 5.57zM5.875 5.885c-.458.458-.479 1.146-.045 1.506.236.197 4.607.254 15.945.209l6.286-.062c.376-.566.784-.95.202-1.531-.483-.484-.846-.492-6.586-.492-13.633-.002-15.472.041-15.801.37zm-.009 4.254c-.261.191-.375.543-.322 1l.08.707 14.888.062c5.738-.241 5.561.05 5.802-.402.328-.61.078-1.201-.618-1.466-.923-.351-19.343-.257-19.83.1zm39.085 1.079c.39.246 2.965 10.379 2.683 10.554-.11.07-2.12.072-4.467.006-5.168-.145-4.868.115-4.873-4.223-.004-3.074-.05-3.196-1.211-3.196-.749 0-.901.698-.863 3.95.04 3.38.245 4.043 1.552 5.024.581.436 1.13.49 6.142.611l5.505.133 2.034.862 2.034.862.065 4.57.065 4.57h-2.166c-1.854 0-2.186-.061-2.3-.42-1.324-4.19-5.412-6.225-9.075-4.519-1.44.67-3.063 2.428-3.526 3.82l-.334.998H19.504l-.318-1.004c-.455-1.44-2.051-3.147-3.57-3.818-3.728-1.649-7.683.338-9.007 4.523-.113.359-.445.42-2.294.42H2.154V22.993l15.855-.073c5.324 0 6.53-.077 7.937-.61 3.814-1.442 6.508-4.32 7.651-8.175.212-.715.386-1.71.386-2.214v-.913l5.325.003c2.928.002 5.468.095 5.643.206zm-39.3 3.518c-.267.693-.152 1.278.297 1.519.608.325 17.192.314 17.8-.012.326-.174.43-.451.377-1.002 0 0 .016-.7-.074-.762-.09-.062-4.46-.062-4.46-.062-12.424-.056-13.81-.024-13.94.319zm30.964 11.828c-.56.561-.583.723-.174 1.282.251.344.616.404 2.094.345 1.786-.071 1.79-.073 1.87-.778.109-.954-.466-1.328-2.04-1.328-.952 0-1.391.12-1.75.48zm-21.525 5.63c.947.49 1.832 1.729 2.106 2.947.396 1.766-.394 3.537-1.996 4.476-3.17 1.858-7.052-.772-6.373-4.318.225-1.178.526-1.75 1.3-2.473 1.285-1.203 3.35-1.465 4.963-.631zm28.757-.354c1.9.527 3.078 2.102 3.127 4.176.074 3.196-3.554 5.267-6.387 3.647-1.336-.764-1.878-1.611-2.004-3.13-.19-2.297.756-3.888 2.732-4.593 1.132-.403 1.403-.414 2.532-.1zm-31.922 2.27c-1.289.7-1.38 2.704-.16 3.558 2.194 1.537 4.625-1.58 2.575-3.305-.826-.695-1.476-.763-2.415-.253zm29.495.253c-2.049 1.724.382 4.842 2.576 3.305 1.246-.872 1.128-2.878-.21-3.57-.975-.504-1.525-.442-2.366.265z" fill="#E9AAA6"/></svg>