<svg width="56" height="56" fill="none" xmlns="http://www.w3.org/2000/svg"><g clip-path="url(#clip0)" fill="#E9AAA6"><path d="M55.318 27.863a4.539 4.539 0 00-.684-5.639l-2.183-2.15a2.37 2.37 0 01-.702-1.86l.22-3.071a4.535 4.535 0 00-3.233-4.69l-2.891-.872a2.369 2.369 0 01-1.492-1.328l-1.21-2.792a4.587 4.587 0 00-5.063-2.66l-2.933.575c-.69.135-1.4-.04-1.947-.483l-2.335-1.885a4.585 4.585 0 00-5.73 0L22.8 2.893a2.368 2.368 0 01-1.947.483L17.919 2.8a4.588 4.588 0 00-5.062 2.66l-1.21 2.793a2.369 2.369 0 01-1.493 1.328l-2.89.872a4.535 4.535 0 00-3.232 4.69l.218 3.071a2.37 2.37 0 01-.701 1.86l-2.184 2.15a4.54 4.54 0 00-.683 5.639l1.614 2.623c.364.591.45 1.31.238 1.97l-.944 2.937a4.538 4.538 0 002.013 5.317l2.617 1.554c.6.356 1.01.954 1.127 1.641l.515 3.021a4.533 4.533 0 004.27 3.788l2.996.15a2.367 2.367 0 011.772.933l1.827 2.404a4.583 4.583 0 005.56 1.373l2.709-1.265a2.368 2.368 0 012.008 0l2.709 1.265a4.586 4.586 0 005.56-1.373l1.827-2.403c.425-.56 1.07-.9 1.771-.935l2.998-.149a4.533 4.533 0 004.269-3.788l.515-3.02a2.37 2.37 0 011.128-1.642l2.616-1.553a4.538 4.538 0 002.013-5.318l-.944-2.937a2.37 2.37 0 01.238-1.97l1.614-2.623zm-3.477 1.476a4.555 4.555 0 00-.458 3.786l.945 2.937a2.362 2.362 0 01-1.048 2.768l-2.616 1.553a4.553 4.553 0 00-2.168 3.155l-.514 3.02a2.359 2.359 0 01-2.222 1.971l-2.997.15a4.55 4.55 0 00-3.405 1.795l-1.826 2.404a2.387 2.387 0 01-2.894.714l-2.709-1.265a4.55 4.55 0 00-3.859 0l-2.709 1.265a2.386 2.386 0 01-2.893-.714l-1.827-2.404a4.55 4.55 0 00-3.404-1.795l-2.997-.15a2.359 2.359 0 01-2.222-1.97l-.515-3.021a4.553 4.553 0 00-2.167-3.155L4.72 38.83a2.361 2.361 0 01-1.048-2.767l.944-2.938a4.555 4.555 0 00-.457-3.785l-1.615-2.624a2.362 2.362 0 01.356-2.934l2.183-2.15a4.554 4.554 0 001.349-3.573l-.219-3.072a2.36 2.36 0 011.682-2.44l2.89-.872a4.552 4.552 0 002.868-2.552l1.21-2.792a2.39 2.39 0 012.635-1.385l2.933.576a4.55 4.55 0 003.743-.927L26.51 2.71a2.386 2.386 0 012.981 0l2.335 1.885a4.55 4.55 0 003.743.927l2.933-.576a2.387 2.387 0 012.635 1.385l1.21 2.791a4.552 4.552 0 002.868 2.553l2.89.871a2.36 2.36 0 011.683 2.44l-.219 3.072a4.554 4.554 0 001.349 3.573l2.183 2.15c.792.781.938 1.988.355 2.935l-1.614 2.623z"/><path d="M14.874 13.295a1.093 1.093 0 00-1.546-.007l-.016.015a1.094 1.094 0 101.539 1.555l.016-.016a1.094 1.094 0 00.007-1.547zm33.551 10.887a20.663 20.663 0 00-5.734-10.874 20.755 20.755 0 00-25.296-3.181 1.094 1.094 0 101.117 1.88 18.57 18.57 0 0122.633 2.847 18.522 18.522 0 013.978 20.397 1.093 1.093 0 102.014.852 20.762 20.762 0 001.288-11.921zm-5.729 16.966a1.094 1.094 0 00-1.547-.008l-.016.016a1.093 1.093 0 101.54 1.555l.015-.017c.43-.424.433-1.117.008-1.546zm-3.71 3.225c-.308-.52-.98-.69-1.499-.382A18.518 18.518 0 0128.01 46.6a18.582 18.582 0 01-13.154-5.455 18.522 18.522 0 01-3.978-20.396 1.093 1.093 0 10-2.014-.853 20.762 20.762 0 00-1.288 11.922 20.664 20.664 0 005.733 10.874 20.766 20.766 0 0014.702 6.095 20.7 20.7 0 0010.595-2.915c.519-.308.69-.98.381-1.498z"/><path d="M32.52 19.048a1.093 1.093 0 00-1.49.414L20.89 37.42a1.093 1.093 0 101.905 1.075l10.138-17.958a1.093 1.093 0 00-.415-1.49zm2.068 11.624a4.598 4.598 0 00-4.593 4.593 4.598 4.598 0 004.593 4.593 4.598 4.598 0 004.593-4.593 4.598 4.598 0 00-4.593-4.593zm0 6.999a2.408 2.408 0 01-2.406-2.406 2.408 2.408 0 012.406-2.406 2.408 2.408 0 012.406 2.406 2.408 2.408 0 01-2.406 2.406zM21.412 16.14a4.598 4.598 0 00-4.593 4.593 4.598 4.598 0 004.593 4.593 4.598 4.598 0 004.593-4.593 4.598 4.598 0 00-4.593-4.593zm0 6.999a2.408 2.408 0 01-2.406-2.406 2.408 2.408 0 012.406-2.406 2.408 2.408 0 012.405 2.406 2.408 2.408 0 01-2.405 2.406z"/></g><defs><clipPath id="clip0"><path fill="#fff" d="M0 0h56v56H0z"/></clipPath></defs></svg>