<svg width="56" height="57" fill="none" xmlns="http://www.w3.org/2000/svg"><path d="M54.284 10.76c-1.017-1.433-2.727-2.228-4.871-2.319.297-4.039-1.053-7.178-3.59-8.146-2.043-.78-4.485.008-6.682 2.093C38.145 1.503 37 .997 35.774.997c-3.925 0-7 5.051-7 11.5 0 4.787 1.73 8.886 4.292 10.612-2.195 2.244-2.707 7.291-2.81 14.039-1.188-1.844-2.75-3.234-4.795-3.82 1.391-2.365 1.901-5.933 1.216-9.744-1.142-6.348-5.061-10.767-8.924-10.081-1.208.217-2.245.918-3.069 1.966-2.53-1.663-5.074-2.008-6.947-.878-2.32 1.399-3.08 4.722-2.082 8.635-2.038.458-3.623 1.524-4.394 3.162-1.79 3.806 1.577 9.031 7.665 11.896 2.407 1.133 4.926 1.733 7.216 1.733.392 0 .776-.018 1.152-.053 2.769-.261 4.787-1.453 5.684-3.357.158-.336.262-.686.341-1.041a5.18 5.18 0 00.705-.495c7.364.969 7.955 15.412 7.955 19.946a1 1 0 102 0c0-3.359-.273-8.979-1.81-13.698a.984.984 0 00.061-.302c0-6.161.008-14.383 2.354-16.581.047.074.084.153.135.225 1.082 1.523 2.937 2.337 5.278 2.337.296 0 .599-.013.909-.039 2.581-.217 5.399-1.33 7.938-3.134 2.539-1.804 4.519-4.1 5.573-6.465 1.133-2.541 1.086-4.884-.133-6.6zm-36.177 4.711c2.679-.48 5.689 3.398 6.602 8.465.665 3.696.043 7.262-1.428 9.062-.004-.016-.012-.033-.016-.049a8.428 8.428 0 00-.979-2.324 12.22 12.22 0 00-1.643-2.145l-.088-.09a14.939 14.939 0 00-1.019-.964l-.052-.046a17.077 17.077 0 00-1.206-.939c-.047-.034-.097-.065-.145-.098a18.217 18.217 0 00-.9-.59c-.001 0-.002 0-.003-.002-.07-.043-.145-.084-.217-.126-.106-.063-.211-.126-.318-.188-.131-.075-.26-.15-.395-.223-.003-.002-.005-.005-.009-.006a20.888 20.888 0 00-.98-.497h-.001a19.359 19.359 0 00-.611-.273c-.012-.116-.027-.232-.036-.348l-.024-.305a15.85 15.85 0 01-.033-.866l-.003-.105a15.18 15.18 0 01.029-.984c.003-.052.009-.102.012-.153.019-.269.046-.535.079-.794l.026-.193a11.9 11.9 0 01.149-.839l.006-.033c.203-.924.506-1.756.902-2.448.007-.012.007-.026.014-.038.593-1.022 1.372-1.697 2.287-1.861zm-9.337.832c1.191-.717 3.021-.376 4.895.878v.001c-.196.438-.365.908-.508 1.403l-.018.064c-.14.492-.256 1.007-.341 1.548v.001a16.515 16.515 0 00-.169 3.336c.002.051-.002.099 0 .15l-.034-.009c-1.736-.52-3.424-.755-4.955-.701-.855-3.104-.429-5.732 1.13-6.671zm8.337 21.668c-2.224.209-4.83-.323-7.329-1.499-4.904-2.308-7.976-6.537-6.706-9.234.6-1.278 2.091-2.017 4.009-2.203.432-.043.882-.056 1.346-.042.073.002.146.007.22.01.448.022.907.066 1.374.138.078.012.158.029.236.042.484.083.972.186 1.465.322l.088.027c.508.143 1.018.313 1.524.51l.101.037c.342.135.684.28 1.026.44.29.137.573.282.849.431.109.059.215.122.322.183.153.087.305.173.454.263.139.085.274.173.409.261a14.571 14.571 0 011.008.71c.155.119.308.239.456.362l.171.145c.159.135.315.272.464.411l.094.09c.432.41.818.833 1.159 1.262.1.126.201.252.292.379.101.14.196.28.287.421.02.031.043.062.062.093.083.133.156.266.23.4.037.068.077.137.112.205.061.119.114.237.166.356.036.082.072.163.104.244a6.557 6.557 0 01.194.592 4.5 4.5 0 01.147.872c.006.096.004.189.002.283-.001.086-.001.173-.008.258a3.026 3.026 0 01-.268 1.015c-.582 1.237-2.024 2.025-4.06 2.216zM45.11 2.164c1.703.651 2.588 3.169 2.293 6.382l-.056.011a14.835 14.835 0 00-3.509.996l-.06.026c-.353.148-.705.31-1.055.485-.035.017-.07.03-.104.048-.006-.046-.018-.088-.024-.134-.235-1.78-.711-3.387-1.371-4.736l-.026-.053a10.87 10.87 0 00-.75-1.293l-.001-.001c1.637-1.591 3.341-2.235 4.663-1.731zM30.774 12.497c0-5.149 2.29-9.5 5-9.5.929 0 1.816.526 2.578 1.427.008.011.011.024.02.035.512.609.956 1.373 1.318 2.244l.022.055c.102.249.196.508.285.773l.065.202c.077.242.147.491.212.744.015.057.031.112.045.17.075.311.143.628.2.952.008.043.013.089.02.132a15.707 15.707 0 01.148 1.149c.011.112.016.226.025.339-.185.121-.369.247-.553.377-.154.109-.299.226-.448.338-.143.108-.291.214-.43.324v.001c-.11.088-.213.179-.32.268a18.605 18.605 0 00-1.249 1.136c-.067.067-.136.133-.202.201a17.46 17.46 0 00-1.166 1.34c-.149.19-.291.382-.429.575l-.055.075-.065.094c-.081.117-.168.233-.245.351-.146.225-.278.453-.407.681l-.025.042c-.048.086-.097.171-.143.257-.079.147-.149.293-.221.44-.018.038-.041.076-.059.114-.003.005-.001.011-.003.017-.033.071-.073.141-.105.211-.049.111-.084.219-.129.329-.066.162-.134.324-.19.486a9.32 9.32 0 00-.309 1.051c-.01.044-.013.087-.022.131-.07.336-.112.665-.136.988-.003.038-.014.078-.016.115-1.769-1.51-3.011-4.909-3.011-8.664zm21.817 4.048c-.911 2.043-2.652 4.049-4.904 5.648-2.251 1.6-4.719 2.584-6.948 2.771-2.04.172-3.597-.348-4.389-1.463a3.027 3.027 0 01-.434-.909c-.027-.094-.043-.192-.062-.289-.015-.075-.034-.147-.045-.224-.014-.103-.017-.21-.023-.316-.004-.078-.012-.153-.012-.233 0-.108.01-.22.018-.331.006-.082.009-.163.019-.247.014-.115.036-.233.057-.35.015-.083.029-.166.048-.25.028-.125.064-.253.1-.38a7.957 7.957 0 01.295-.842 9.17 9.17 0 01.21-.47c.067-.142.146-.286.222-.429a12.891 12.891 0 011.473-2.158 15.916 15.916 0 011.043-1.125l.166-.16c.146-.139.295-.278.448-.414.109-.095.22-.19.332-.283.117-.099.233-.199.354-.295.164-.131.336-.257.508-.384.083-.061.162-.126.247-.186.317-.225.637-.434.958-.632.052-.032.105-.061.157-.092 1.202-.723 2.452-1.278 3.668-1.629l.068-.019c.229-.065.457-.122.683-.172l.128-.027c.212-.045.423-.085.631-.116.052-.008.103-.013.154-.019a9.39 9.39 0 01.61-.067l.004-.001c.214-.015.425-.027.628-.027 1.675 0 2.954.521 3.647 1.496.796 1.113.774 2.756-.059 4.624z" fill="#E9AAA6"/><path d="M43.018 41.514c3.7-2.581 6.142-6.948 6.151-11.896a1.002 1.002 0 00-1.218-.978c-3.653.046-7.079 1.534-9.665 4.204-2.596 2.679-4.035 6.235-4.072 10.024-.001.006-.004.012-.004.018-.001.008.002.016.002.024 0 .028-.004.054-.004.082 0 .054.016.104.024.156.004.022.005.045.01.067a.95.95 0 00.16.351c1.975 4.643 6.579 7.445 11.491 7.445 1.621 0 3.275-.305 4.879-.949a1 1 0 00.457-1.486c-1.484-3.533-4.538-6.092-8.211-7.062zm-3.296-7.279c2.009-2.074 4.606-3.314 7.4-3.554-.404 4.794-3.453 8.807-7.615 10.466-.007.003-.015.001-.022.004-.981.388-1.989.633-3.008.745-.058.006-.114.018-.172.023l-.053.003c.244-2.909 1.454-5.606 3.47-7.687zm-2.939 9.647a13.37 13.37 0 001.583-.286c.063-.015.125-.035.188-.051.467-.118.924-.261 1.371-.427.035-.013.071-.02.107-.033 3.851.106 7.26 2.209 8.979 5.473-4.774 1.408-9.845-.556-12.228-4.676z" fill="#E9AAA6"/></svg>