<svg width="56" height="56" fill="none" xmlns="http://www.w3.org/2000/svg"><path d="M54.133 25.908l-3.236 3.235c-.205.205-.32.483-.32.773a8.617 8.617 0 01-2.54 6.134L30.754 53.332a1.647 1.647 0 01-2.808-1.163c0-.383.13-.745.368-1.038l10.007-10.007a1.094 1.094 0 000-1.547l-.003-.003-.003-.003a1.094 1.094 0 00-1.547 0L24.702 51.65c-.31.31-.723.481-1.163.481-.439 0-.852-.17-1.163-.481a1.65 1.65 0 01-.114-2.2l12.194-12.194a1.094 1.094 0 00-1.547-1.547L18.715 49.905c-.311.31-.724.482-1.163.482-.44 0-.853-.172-1.163-.482a1.634 1.634 0 01-.482-1.163c0-.44.17-.853.482-1.163l14.204-14.192a1.094 1.094 0 00-1.547-1.547l-12.68 12.667a1.647 1.647 0 01-2.68-1.277c0-.44.17-.852.481-1.163l4.15-4.15a1.094 1.094 0 00-1.547-1.547l-2.123 2.123-4.216-4.217a21.166 21.166 0 01-5.508-9.61 1.093 1.093 0 00-.285-.497l-2.77-2.771A1.094 1.094 0 00.32 22.945l2.564 2.564a23.36 23.36 0 006 10.314L13.1 40.04l-.48.48a3.807 3.807 0 00-1.123 2.71c0 1.024.399 1.986 1.123 2.71a3.81 3.81 0 001.575.949 3.81 3.81 0 00-.477 1.853c0 1.023.399 1.986 1.123 2.71a3.807 3.807 0 002.71 1.122c.87 0 1.697-.29 2.37-.822a3.81 3.81 0 00.907 1.445 3.807 3.807 0 002.71 1.123c.9 0 1.753-.309 2.437-.875.188.533.494 1.022.906 1.433a3.82 3.82 0 002.71 1.12 3.82 3.82 0 002.71-1.12L33.7 53.48l.978.979a3.82 3.82 0 002.71 1.12 3.82 3.82 0 002.71-1.12c.61-.61.987-1.389 1.091-2.23a3.82 3.82 0 003.36-1.064 3.807 3.807 0 001.122-2.71v-.044h.04a3.82 3.82 0 002.71-1.12 3.808 3.808 0 001.084-3.26 3.802 3.802 0 002.302-1.1 3.807 3.807 0 001.123-2.71 3.807 3.807 0 00-1.123-2.71l-1.157-1.156a10.764 10.764 0 002.103-5.975l2.925-2.924a1.094 1.094 0 00-1.546-1.547zM38.553 52.91a1.647 1.647 0 01-2.327 0l-.968-.968 2.326-2.327.554.554.414.415c.31.31.482.723.482 1.163 0 .44-.171.852-.482 1.163zm4.932-4.458a1.647 1.647 0 01-2.808 1.163l-.578-.578-.968-.968 2.326-2.326 1.546 1.546c.311.31.482.724.482 1.163zm3.391-2.71a1.647 1.647 0 01-2.326 0l-1.546-1.546 2.326-2.326 1.546 1.546c.31.31.482.724.482 1.163 0 .44-.171.853-.482 1.163zm3.386-4.36c-.31.311-.724.482-1.163.482-.44 0-.852-.171-1.163-.482l-1.06-1.059 2.327-2.326 1.059 1.06c.31.31.482.723.482 1.162 0 .44-.172.853-.482 1.163z" fill="#E9AAA6"/><path d="M12.978 14.526c.205.205.483.32.774.32h5.645a17.88 17.88 0 0111.24 3.99l8.888 7.218c-2.173 1.518-5.091 1.725-7.472.436l-6.048-3.275a1.094 1.094 0 00-.838-.085 20.294 20.294 0 01-11.686.03l-.107-.032a1.094 1.094 0 10-.622 2.097l.107.032a22.473 22.473 0 0012.5.095l1.576.854-3.206 3.206a1.094 1.094 0 001.546 1.547l3.667-3.666 2.069 1.12a9.224 9.224 0 005.767 1.025 9.232 9.232 0 005.236-2.627 1.094 1.094 0 00-.084-1.622l-8.827-7.169a16.783 16.783 0 018.75-2.521c.288-.002.563-.117.767-.32l13.06-13.06A1.094 1.094 0 0054.133.57L41.385 13.32a18.964 18.964 0 00-10.086 3.263 20.084 20.084 0 00-11.902-3.923h-5.192L1.867.32A1.094 1.094 0 00.32 1.868l12.658 12.658zm7.27 18.366a1.099 1.099 0 000 1.546c.204.204.486.321.774.321.288 0 .569-.117.773-.32a1.1 1.1 0 00.32-.774c0-.287-.116-.57-.32-.773a1.102 1.102 0 00-.773-.32c-.289 0-.57.117-.774.32z" fill="#E9AAA6"/></svg>