<svg width="56" height="56" fill="none" xmlns="http://www.w3.org/2000/svg"><path d="M53.476 40.792l-8.304-7.061a1.11 1.11 0 00-.121-.09 5.435 5.435 0 00-6.802.747l-4.528 4.527a1.091 1.091 0 01-1.191.238c-5.113-2.115-9.313-5.299-12.483-9.462-2.418-3.175-3.29-5.698-3.405-6.054a1.08 1.08 0 00-.066-.225c-.17-.41-.077-.877.238-1.191l4.527-4.528a5.435 5.435 0 00.712-6.854l-5.997-8.334c-1.887-2.927-5.997-3.369-8.463-.903l-.907.907-.002.002-3.237 3.237c-3.86 3.86-4.49 9.66-1.825 16.775 2.283 6.094 6.854 12.764 12.87 18.78C20.65 47.46 27.5 52.116 33.78 54.41c6.215 2.27 12.827 2.55 17.507-2.13l3.052-3.052c2.456-2.456 2.027-6.538-.863-8.437zm-9.659-5.343l8.297 7.056c.038.032.078.062.12.089a3.282 3.282 0 01.558 5.089l-.226.227-14.151-10.595 1.38-1.38a3.26 3.26 0 014.022-.486zM14.23 3.707a.58.58 0 00.034.052l5.995 8.33a3.26 3.26 0 01-.464 4.057l-1.337 1.338L8.883 3.405l.257-.256a3.282 3.282 0 015.089.558zm20.301 48.65c-5.986-2.188-12.554-6.663-18.492-12.601-5.8-5.8-10.192-12.193-12.368-18C2.036 17.395.94 11.347 4.994 7.294L7.308 4.98l9.574 14.078-1.614 1.616a3.268 3.268 0 00-.75 3.482c.346 1.417 1.934 4.357 3.537 6.524 2.358 3.19 6.639 7.598 13.639 10.494a3.27 3.27 0 003.574-.712l1.585-1.585 14.15 10.595-1.263 1.263c-4.346 4.346-10.67 3.28-15.21 1.621z" fill="#E9AAA6"/></svg>