<svg width="48" height="56" fill="none" xmlns="http://www.w3.org/2000/svg"><path d="M42.91 43.817c.222-1.175.34-2.372.34-3.567 0-3.336-.871-6.624-2.52-9.51-1.214-2.127-1.855-4.61-1.855-7.182V15.75C38.875 7.548 32.202.875 24 .875S9.125 7.548 9.125 15.75v7.808c0 2.55-.657 5.06-1.9 7.259A19.193 19.193 0 004.761 40.87c.03.97.158 1.953.345 2.933A13.845 13.845 0 00.375 54.25v.875h47.25v-.875c0-4.086-1.767-7.844-4.715-10.433zm-36.4-3.003a17.46 17.46 0 012.24-9.136 16.534 16.534 0 002.126-8.12V15.75c0-7.237 5.888-13.125 13.125-13.125S37.125 8.513 37.125 15.75v7.808c0 2.876.721 5.66 2.086 8.05A17.45 17.45 0 0141.5 40.25c0 .792-.06 1.585-.167 2.37a14.02 14.02 0 00-2.35-1.243l-8.977-3.673a2.612 2.612 0 01-1.631-2.43v-.627a16.196 16.196 0 006.996-13.258 3.487 3.487 0 001.754-3.014c0-1.406-.83-2.618-2.042-3.173.19-.367.292-.777.292-1.202 0-.583-.188-1.136-.535-1.59a2.61 2.61 0 00-.747-1.504 2.603 2.603 0 00-1.503-.745c-.908-.695-2.273-.695-3.18 0a2.601 2.601 0 00-1.504.746c-.412.412-.67.936-.746 1.503a2.608 2.608 0 00-.535 1.59c0 .583.188 1.136.535 1.59a2.61 2.61 0 00.747 1.504c.412.411.935.67 1.503.745a2.596 2.596 0 001.59.536c.583 0 1.137-.188 1.59-.536a2.601 2.601 0 001.763-1.051 1.741 1.741 0 011.022 1.587c0 .965-.785 1.75-1.75 1.75h-.875c-5.215 0-6.419-3.114-6.871-5.455A1.913 1.913 0 0024 13.125a1.91 1.91 0 00-1.878 1.544c-.453 2.342-1.657 5.456-6.872 5.456h-.875c-.965 0-1.75-.785-1.75-1.75s.785-1.75 1.75-1.75 1.75.785 1.75 1.75h1.75c0-1.93-1.57-3.5-3.5-3.5s-3.5 1.57-3.5 3.5c0 1.29.71 2.408 1.754 3.015a16.199 16.199 0 006.996 13.257v.629c0 1.07-.64 2.023-1.631 2.43l-8.977 3.672c-.832.34-1.61.761-2.343 1.238a16.933 16.933 0 01-.165-1.802zm3.172 2.183l2.944-1.205V45.5a2.628 2.628 0 002.625 2.625h17.5a2.628 2.628 0 002.625-2.625v-3.707l2.944 1.205c.19.077.372.164.556.25v10.127H9.125V43.247c.184-.086.367-.172.556-.25zM24 34.949a14.452 14.452 0 01-9.603-13.074h.853c4.82 0 7.71-2.313 8.589-6.874.029-.147.293-.146.321 0 .88 4.561 3.77 6.874 8.59 6.874h.853A14.452 14.452 0 0124 34.949zm-.276 1.756l.276.092.276-.092a16.265 16.265 0 002.38-1.008 4.343 4.343 0 001.065 2.474A4.378 4.378 0 0124 40.25c-1.53 0-2.932-.8-3.721-2.079a4.351 4.351 0 001.065-2.474c.755.393 1.55.732 2.38 1.008zm6.313 2.903c.052.209.088.422.088.642a2.628 2.628 0 01-2.625 2.625 2.62 2.62 0 01-2.095-1.054 6.12 6.12 0 003.723-2.604c.072.034.14.077.216.107l.693.284zm-11.38-.284c.076-.03.144-.073.216-.107a6.12 6.12 0 003.723 2.604 2.62 2.62 0 01-2.096 1.054 2.628 2.628 0 01-2.625-2.625c0-.22.037-.433.09-.642l.692-.284zm-2.521 1.032a4.375 4.375 0 004.364 4.269 4.363 4.363 0 003.5-1.768 4.363 4.363 0 003.5 1.768 4.375 4.375 0 004.364-4.27l1.761.721V45.5a.876.876 0 01-.875.875h-17.5a.876.876 0 01-.875-.875v-4.424l1.76-.72zM28.63 14.619a.869.869 0 01-.256-.619c0-.234.091-.453.256-.619l.257-.256v-.363c0-.234.09-.454.256-.619a.867.867 0 01.619-.256h.363l.256-.257a.895.895 0 011.236 0l.256.257h.363a.87.87 0 01.875.875v.363l.257.256a.869.869 0 01.256.619.869.869 0 01-.256.619l-.257.256v.363a.868.868 0 01-.256.619.867.867 0 01-.619.256h-.363l-.256.257a.895.895 0 01-1.236 0l-.256-.257h-.363a.87.87 0 01-.875-.875v-.363l-.257-.256zM7.375 44.243v9.132h-5.22a12.102 12.102 0 015.22-9.132zm33.25 9.132v-9.132a12.1 12.1 0 015.22 9.132h-5.22z" fill="#E9AAA6"/></svg>