<svg width="52" height="56" fill="none" xmlns="http://www.w3.org/2000/svg"><path d="M8.267 23.333H6.4a.933.933 0 000 1.867h1.867a.933.933 0 000-1.867zm5.6 0H12a.933.933 0 100 1.867h1.867a.933.933 0 000-1.867zm5.6 0H17.6a.933.933 0 000 1.867h1.867a.933.933 0 000-1.867zm5.6 0H23.2a.933.933 0 100 1.867h1.867a.933.933 0 000-1.867zM28.8 25.2h1.867a.933.933 0 000-1.867H28.8a.933.933 0 100 1.867zm5.6 0h1.867a.933.933 0 000-1.867H34.4a.933.933 0 100 1.867zM8.267 50.4H6.4a.933.933 0 000 1.867h1.867a.933.933 0 100-1.867zm5.6 0H12a.933.933 0 100 1.867h1.867a.933.933 0 100-1.867zm5.6 0H17.6a.933.933 0 000 1.867h1.867a.933.933 0 100-1.867zm5.6 0H23.2a.933.933 0 100 1.867h1.867a.933.933 0 100-1.867zm5.6 0H28.8a.933.933 0 100 1.867h1.867a.933.933 0 100-1.867zm5.6 0H34.4a.933.933 0 100 1.867h1.867a.933.933 0 100-1.867zM31.6 38.267a.933.933 0 100-1.867.933.933 0 000 1.867z" fill="#E9AAA6"/><path d="M40.503 5.668a4.684 4.684 0 00-6.517-1.06L32 6.04 21.4.525a4.675 4.675 0 00-6.298 1.995L6.224 19.6h-.758A4.672 4.672 0 00.8 24.267v27.066A4.672 4.672 0 005.467 56h38.266a4.672 4.672 0 004.667-4.667V26.44l.862-.622a4.667 4.667 0 001.063-6.51l-9.823-13.64zM24.356 19.6L40.077 8.275l2.185 3.03L30.748 19.6h-6.392zm10.72-13.476a2.817 2.817 0 013.912.635L21.163 19.6h-4.788l5.498-3.961.013-.01 13.19-9.505zM22.19 3.044l3.318 1.723-4.942 9.513-6.742 4.853 8.366-16.09zm1.737 8.816l3.237-6.231 3.142 1.632-6.379 4.599zM16.76 3.38a2.808 2.808 0 013.776-1.2L11.48 19.6H8.328L16.76 3.38zm19.507 50.753h-30.8a2.8 2.8 0 01-2.8-2.8V24.267a2.8 2.8 0 012.8-2.8H37.2a2.8 2.8 0 012.8 2.8v8.4h-8.4a4.667 4.667 0 100 9.333H40v9.333a2.8 2.8 0 01-2.8 2.8h-.933zm10.266-14h-4.666v-5.6h4.666v5.6zm-6.533 0h-8.4a2.8 2.8 0 110-5.6H40v5.6zm3.733 14H40.91a4.618 4.618 0 00.958-2.8V42h4.666v9.333a2.8 2.8 0 01-2.8 2.8zm2.8-21.466h-4.666v-1.52l4.666-3.36v4.88zm1.64-8.366l-6.306 4.546v-4.58A4.672 4.672 0 0037.2 19.6h-3.258l9.411-6.78 5.457 7.577a2.8 2.8 0 01-.637 3.904z" fill="#E9AAA6"/></svg>