<svg width="22" height="21" fill="none" xmlns="http://www.w3.org/2000/svg"><path d="M4.265 19.197l.671-.335-.67.335zm13.47 0l.67.336-.67-.336zM1.938 8.083h18.124v-1.5H1.938v1.5zm17.645-.479v.585h1.5v-.585h-1.5zm-2.068 10.98H4.485v1.5h13.03v-1.5zM2.417 8.188v-.585h-1.5v.585h1.5zm2.52 10.673a23.865 23.865 0 01-2.52-10.673h-1.5c0 3.938.916 7.822 2.678 11.344l1.341-.671zm-.452-.279c.191 0 .366.108.451.279l-1.341.67a.994.994 0 00.89.551v-1.5zm12.579.279a.504.504 0 01.45-.279v1.5a.996.996 0 00.892-.55l-1.342-.671zm2.52-10.673c0 3.705-.863 7.36-2.52 10.673l1.341.67A25.365 25.365 0 0021.084 8.19h-1.5zm.478-.106a.479.479 0 01-.479-.479h1.5a1.02 1.02 0 00-1.02-1.02v1.5zm-18.124-1.5A1.02 1.02 0 00.917 7.604h1.5a.48.48 0 01-.48.48v-1.5zM6.31 7.72l4-6.666L9.024.28l-4 6.666 1.286.772zm5.38-6.666l4 6.666 1.287-.772-4-6.666-1.287.772z" fill="#866663"/></svg>