<svg width="56" height="56" viewBox="0 0 56 56" fill="none" xmlns="http://www.w3.org/2000/svg">
<path fill-rule="evenodd" clip-rule="evenodd" d="M7.1024 0.102285C6.22437 0.370306 5.37501 1.07449 4.95859 1.87964C4.70836 2.36339 4.62948 3.58579 4.80738 4.22127C4.91034 4.58873 5.9387 6.09654 8.59521 9.77444C10.6008 12.5512 12.2424 14.8602 12.2432 14.9052C12.2441 14.9503 9.96767 14.9877 7.18446 14.9884L2.12417 14.9895L1.56935 15.2477C0.910035 15.5547 0.385516 16.1523 0.148093 16.8671C0.00684271 17.2925 -0.0181031 17.8283 0.0104533 19.8243C0.0428391 22.0868 0.0626426 22.2944 0.285076 22.7101C0.558167 23.2204 1.18455 23.8089 1.67318 24.0143L2.00503 24.1538L4.09118 34.1476C5.62239 41.4831 6.24822 44.2815 6.44407 44.6683C6.78423 45.3402 7.49519 45.9954 8.28678 46.3665L8.90769 46.6575H19.1744H29.4413L29.7053 46.3505C30.0504 45.9494 30.0486 45.4688 29.7008 45.121L29.4323 44.8524L19.6076 44.8498C14.1056 44.8484 9.59414 44.8034 9.35376 44.7477C8.8241 44.6249 8.42332 44.3349 8.15866 43.8831C8.03273 43.6681 7.22002 40.0038 6.00161 34.1582C4.92631 28.9992 4.01929 24.6675 3.98592 24.5321L3.92531 24.2859H6.78051H9.63571L9.95552 23.9662C10.1315 23.7903 10.2753 23.5464 10.2753 23.4243C10.2753 23.0823 10.0573 22.6819 9.7983 22.5484C9.64512 22.4695 8.32081 22.4181 5.9713 22.3996L2.37856 22.3715L2.10842 22.0574L1.83839 21.7434L1.87187 19.5041C1.9048 17.3017 1.90962 17.2614 2.16367 17.056C2.4105 16.8562 2.67156 16.8471 8.07189 16.85L13.7218 16.8528L14.7065 18.2297C16.0119 20.0549 16.6844 20.5141 18.0436 20.5076C18.9208 20.5036 19.6595 20.1944 20.3075 19.5601C20.8739 19.0057 21.2333 18.198 21.2549 17.4311L21.2712 16.8488H28H34.7288L34.7454 17.437C34.7669 18.1906 35.1101 18.9655 35.6806 19.5482C36.288 20.1686 37.058 20.4916 37.9565 20.5029C39.3081 20.5198 39.9858 20.0582 41.2935 18.2297L42.2782 16.8528L47.9281 16.85C53.3284 16.8471 53.5895 16.8562 53.8363 17.056C54.0904 17.2614 54.0952 17.3017 54.1281 19.5041L54.1616 21.7434L53.8915 22.0574L53.6212 22.3715L34.0208 22.4262L14.4205 22.4809L14.2103 22.7544C13.9013 23.1566 13.9388 23.5899 14.3151 23.9662L14.6349 24.2859H33.3601C51.1424 24.2859 52.0824 24.2956 52.0282 24.4774C51.9968 24.5827 51.6655 26.1416 51.2921 27.9417C50.6709 30.9353 50.6265 31.2387 50.7713 31.4971C50.9866 31.8812 51.4829 32.11 51.8314 31.9857C51.9807 31.9325 52.1921 31.7659 52.3012 31.6155C52.4291 31.4391 52.7633 30.0659 53.2423 27.7495L53.9852 24.1572L54.3215 24.0164C54.8135 23.8105 55.4406 23.2225 55.7149 22.7101C55.9374 22.2944 55.9572 22.0868 55.9896 19.8243C56.0181 17.8283 55.9932 17.2925 55.8519 16.8671C55.6145 16.1523 55.09 15.5547 54.4307 15.2477L53.8758 14.9895L48.8038 14.9884C44.7491 14.9875 43.7426 14.9594 43.7851 14.8483C43.8145 14.772 45.4458 12.4854 47.4103 9.76722C49.3747 7.04894 51.0547 4.61925 51.1434 4.36786C51.3573 3.76159 51.3478 2.79113 51.1213 2.12535C50.8608 1.35947 49.9129 0.436272 49.1312 0.187067C48.8084 0.084235 48.3373 0 48.0843 0C47.3443 0 46.5664 0.288587 46.0271 0.763257C45.7374 1.01826 43.5434 3.95905 40.7424 7.8471C38.1083 11.5034 35.8537 14.6057 35.7322 14.7411L35.5112 14.9873H28H20.4888L20.2683 14.7411C20.1471 14.6057 17.9428 11.5659 15.3699 7.98592C12.7969 4.40593 10.4346 1.22874 10.1202 0.925491C9.72871 0.547856 9.36591 0.315061 8.9694 0.187067C8.36949 -0.00667316 7.57725 -0.0426645 7.1024 0.102285ZM8.63569 2.10588C9.07465 2.40431 19.3168 16.5389 19.416 16.9834C19.5116 17.4115 19.2868 17.9974 18.9032 18.3202C18.6481 18.5349 18.4521 18.5973 18.0336 18.5973C17.574 18.5973 17.4372 18.5443 17.1178 18.2418C16.7909 17.9323 7.29124 4.86824 6.75666 3.99296C6.52503 3.61379 6.49823 3.01813 6.69528 2.62879C6.88784 2.24842 7.50832 1.85973 7.92299 1.85973C8.11577 1.85973 8.43656 1.97044 8.63569 2.10588ZM48.7978 2.10916C49.0013 2.24634 49.2295 2.48023 49.3047 2.62879C49.5018 3.01813 49.475 3.61379 49.2433 3.99296C48.7088 4.86824 39.2091 17.9323 38.8822 18.2418C38.5628 18.5443 38.426 18.5973 37.9664 18.5973C37.5479 18.5973 37.352 18.5349 37.0968 18.3202C36.7133 17.9976 36.4885 17.4117 36.5837 16.9834C36.6824 16.5394 46.9248 2.40453 47.3642 2.10588C47.5634 1.97044 47.8842 1.85973 48.077 1.85973C48.2698 1.85973 48.5942 1.97198 48.7978 2.10916ZM13.7281 26.3022C13.1592 26.5137 12.8112 26.7806 12.3916 27.3272C11.736 28.1812 11.7361 28.1895 12.5207 34.9599C13.3005 41.6899 13.2972 41.6745 14.1388 42.3947C14.6971 42.8726 15.5927 43.1528 16.2665 43.0605C16.5345 43.0238 17.0008 42.8593 17.3025 42.6951C18.2117 42.2003 18.7 41.3682 18.7 40.3136C18.7 39.9794 18.4036 37.1398 18.0414 34.0033C17.3532 28.0445 17.2793 27.6618 16.6979 27.0391C16.5655 26.8973 16.2459 26.657 15.9877 26.5052C15.4012 26.1602 14.3613 26.0668 13.7281 26.3022ZM27.0763 26.3022C26.8391 26.3904 26.5191 26.5558 26.3652 26.6698C25.8552 27.0474 25.3949 27.7612 25.2684 28.3704C25.1848 28.7729 25.1564 30.8196 25.1782 34.8544C25.209 40.5673 25.2171 40.7654 25.4385 41.2435C25.9187 42.2807 26.8813 42.9052 28 42.9052C29.1187 42.9052 30.0813 42.2807 30.5615 41.2435C30.7847 40.7613 30.79 40.6073 30.79 34.5145C30.79 27.6207 30.8204 27.9367 30.0755 27.0885C29.8782 26.8636 29.5164 26.5777 29.2718 26.4529C28.6995 26.161 27.65 26.0889 27.0763 26.3022ZM40.5817 26.2413C39.7814 26.5038 39.0649 27.1355 38.7719 27.8367C38.6939 28.0235 38.5004 29.3069 38.342 30.689C38.1251 32.5815 38.0128 33.2288 37.8874 33.3111C37.7958 33.3713 37.4169 33.6143 37.0455 33.8511C36.0687 34.4739 34.4796 36.1022 33.7419 37.2362C31.9632 39.9708 31.3574 43.1631 32.0091 46.3681C32.4551 48.562 33.7961 50.9822 35.4305 52.5428C37.4808 54.5006 39.8545 55.6088 42.6672 55.9216C43.6079 56.0261 44.1215 56.0261 45.0622 55.9216C47.0957 55.6954 48.8699 55.0705 50.5563 53.9862C50.998 53.7024 51.8546 52.9709 52.4599 52.361C54.1054 50.703 55.0241 49.0812 55.6553 46.7203C55.902 45.7973 55.9353 45.4586 55.9353 43.8679C55.9353 42.2771 55.902 41.9384 55.6553 41.0155C55.0241 38.6545 54.1054 37.0327 52.4599 35.3747C51.8546 34.7648 50.998 34.0334 50.5563 33.7495C48.8684 32.6642 47.0958 32.0403 45.0564 31.8135L43.8531 31.6797L43.9107 31.2921C43.9425 31.0789 44.0222 30.4239 44.0881 29.8368C44.1897 28.9305 44.1812 28.6777 44.0319 28.1639C43.827 27.4595 43.2689 26.7839 42.6172 26.4514C42.1381 26.2071 41.0336 26.0931 40.5817 26.2413ZM15.2459 28.2614C15.3867 28.4021 15.5321 28.7098 15.569 28.9451C15.6924 29.7316 16.84 39.8486 16.84 40.1499C16.84 40.3134 16.7379 40.5768 16.6132 40.7353C16.4371 40.9593 16.2907 41.0236 15.9567 41.0236C15.4843 41.0236 15.133 40.7626 15.0398 40.3426C14.9571 39.9694 13.7642 29.5561 13.7415 29.0079C13.725 28.6107 13.7717 28.4906 14.0288 28.2695C14.4239 27.9296 14.9109 27.9263 15.2459 28.2614ZM28.5995 28.2667C28.7432 28.4104 28.8912 28.6934 28.9281 28.8957C28.9652 29.098 28.9808 31.7825 28.9628 34.8613L28.93 40.4591L28.6648 40.7413C28.2992 41.1302 27.7008 41.1302 27.3352 40.7413L27.07 40.4592L27.0365 34.9707C27.0181 31.9521 27.0344 29.2669 27.0726 29.0035C27.205 28.0928 28.0282 27.6955 28.5995 28.2667ZM41.9229 28.2225C42.0747 28.3418 42.2257 28.5511 42.2583 28.6874C42.291 28.8237 42.235 29.5957 42.1338 30.4028L41.95 31.8704L40.9926 32.1103C40.3653 32.2675 40.036 32.3084 40.0376 32.229C40.0485 31.6491 40.4736 28.646 40.5704 28.4653C40.833 27.9748 41.464 27.8615 41.9229 28.2225ZM45.1805 33.699C46.4132 33.8512 48.041 34.4184 49.1284 35.0746C50.9809 36.1928 52.6406 38.13 53.3731 40.0293C53.9496 41.5237 54.0827 42.2433 54.0838 43.8679C54.0845 45.0264 54.0328 45.5522 53.8442 46.3075C53.5781 47.3731 53.0756 48.5368 52.4786 49.4698C51.9717 50.2621 50.7946 51.5064 49.9547 52.1377C49.043 52.8229 47.494 53.5525 46.3811 53.8208C44.4606 54.2838 42.6113 54.2233 40.7491 53.6365C39.1923 53.1459 37.9713 52.4099 36.715 51.2049C35.3562 49.9017 34.2876 48.0068 33.8566 46.1364C33.5897 44.9781 33.5424 43.5997 33.7277 42.387C34.0721 40.1333 35.0249 38.252 36.6369 36.6426C37.6796 35.6017 38.8584 34.8148 40.0934 34.3353C40.8346 34.0475 41.946 33.7726 42.8253 33.6596C43.4892 33.5742 44.2762 33.5875 45.1805 33.699Z" fill="#E9AAA6"/>
</svg>
