<svg width="55" height="56" viewBox="0 0 55 56" fill="none" xmlns="http://www.w3.org/2000/svg">
<path fill-rule="evenodd" clip-rule="evenodd" d="M8.58061 0.226691C8.23064 0.500217 8.01737 1.16663 7.78226 2.72214C7.45334 4.89867 7.65284 7.33572 8.27419 8.73138C8.40462 9.02415 8.49799 9.27321 8.48187 9.28466C8.46574 9.29612 8.08857 9.49846 7.64367 9.73427C5.99928 10.6059 4.46014 12.184 3.63381 13.8456C2.84442 15.4326 2.60125 17.3384 2.96667 19.0737C3.16203 20.0009 3.85682 21.449 4.4186 22.0996L4.82242 22.567L4.51029 22.7552C2.83916 23.7632 2.12758 24.5323 1.3299 26.1927C0.555404 27.8047 0 30.1269 0 31.7526C0 32.269 0.0416469 32.3813 0.319181 32.6133C0.760168 32.982 2.74299 33.4506 4.44223 33.5876C5.90312 33.7054 7.07964 33.6152 8.16593 33.302C8.98208 33.0667 10.1969 32.4492 10.69 32.0191C10.9105 31.8266 11.1045 31.6884 11.121 31.7119C11.1375 31.7353 11.3694 32.0937 11.6362 32.5084C12.2271 33.4265 13.5346 34.6636 14.3773 35.1017C14.9968 35.4238 15.482 35.9698 16.2856 37.2492C16.5422 37.6577 16.5586 37.7242 16.3852 37.6525C15.0207 37.0881 13.4133 36.899 12.4211 37.1859C11.6015 37.4231 10.9307 37.9342 10.6304 38.5506C10.4954 38.8278 10.3602 39.3643 10.3303 39.7427C10.2898 40.2538 10.3344 40.6022 10.5034 41.0972C10.6286 41.4636 10.7222 41.7658 10.7113 41.7686C10.7005 41.7714 10.4057 41.9576 10.0564 42.1823C9.70698 42.4071 9.27237 42.8058 9.09067 43.0682C8.73354 43.584 8.39656 44.4557 8.39656 44.8638C8.39656 45.0035 8.47627 45.3846 8.57378 45.7107C8.9055 46.8208 10.3078 47.8982 11.9817 48.3291C13.8217 48.8029 15.7816 48.6208 17.4027 47.8256C17.8919 47.5856 18.3083 47.4052 18.3279 47.4248C18.3476 47.4444 18.2641 47.7808 18.1422 48.1725C17.7632 49.3909 16.8782 50.5659 15.7855 51.3017C15.1471 51.7316 15.0018 51.9134 15.0018 52.2835C15.0018 52.6871 15.3406 53.0853 16.1465 53.629C17.661 54.6509 19.6534 55.3365 22.4468 55.797C23.388 55.9522 24.2852 56 26.2532 56C28.2064 56 29.1255 55.9515 30.0597 55.7991C31.3412 55.5901 32.6835 55.2846 33.6422 54.9838C34.3278 54.7686 35.819 54.0378 36.4343 53.6153C37.2426 53.0604 37.5046 52.7596 37.5046 52.3865C37.5046 52.1961 37.4554 51.9488 37.3952 51.8371C37.335 51.7253 37.0688 51.5077 36.8036 51.3533C36.2183 51.0124 35.4128 50.1751 35.0047 49.4831C34.6309 48.8494 34.2249 47.6757 34.0392 46.6915L33.8981 45.9444L34.3019 45.566C34.5719 45.3131 34.7058 45.0881 34.7058 44.8875C34.7058 44.4585 34.5402 44.2081 34.1502 44.0477C33.8489 43.9237 33.8102 43.8555 33.8109 43.4485C33.812 42.809 34.1785 41.3673 34.5916 40.3766C35.0103 39.3725 35.6472 38.1849 36.3262 37.1421L36.8284 36.3707H37.7084C39.4015 36.3707 41.2484 35.7005 42.7286 34.5491C43.1497 34.2216 43.7405 33.6419 44.0415 33.2609C44.5744 32.5864 45.3528 31.2176 45.4768 30.737C45.5368 30.5043 45.5549 30.5021 46.1955 30.6519C47.0779 30.8581 48.8719 30.8488 50.1637 30.6312C51.446 30.4153 53.4556 29.7882 53.9741 29.4423C54.4251 29.1412 54.4897 28.7984 54.2995 27.7131C54.0064 26.0413 53.1189 23.855 52.1679 22.4629C51.5375 21.5397 50.3999 20.5413 49.444 20.0719L48.6101 19.6624L48.9874 18.8676C49.5276 17.7293 49.7076 16.9176 49.7076 15.6198C49.7076 14.1847 49.4385 13.1139 48.7367 11.7573C48.2972 10.9078 48.0122 10.5383 47.0815 9.61158C45.9024 8.43761 45.0052 7.8336 43.6494 7.30079C42.4167 6.81636 41.652 6.65496 40.3035 6.59489C38.4835 6.5138 37.1875 6.78688 35.5847 7.589L34.3925 8.18566L34.2599 7.73427C34.0532 7.03138 33.2824 5.67564 32.7123 5.01257C31.5209 3.6267 29.5702 2.58231 27.2608 2.09377C26.8914 2.01557 25.9845 1.95639 25.2456 1.96229C24.1814 1.97074 23.6707 2.03326 22.7885 2.26329C21.5278 2.59199 20.1568 3.22881 19.2724 3.89655C18.9429 4.14539 18.6613 4.33337 18.6468 4.31424C18.6325 4.29511 18.4657 4.0515 18.2764 3.77286C18.087 3.49422 17.5984 2.95606 17.1905 2.57697C15.849 1.33014 13.5663 0.44104 10.8625 0.11223C9.4178 -0.0634102 8.91983 -0.0384935 8.58061 0.226691ZM11.9231 2.1802C13.2714 2.45061 14.4257 2.89066 15.2841 3.46096C15.7376 3.7624 16.2563 4.195 16.4368 4.42225C16.8029 4.88343 17.2409 5.65762 17.2409 5.84328C17.2409 5.96808 16.4303 7.57276 16.3171 7.67209C16.2823 7.70268 16.0467 7.41981 15.7938 7.0435C15.2548 6.24139 14.003 5.04116 13.4783 4.82336C13.0697 4.65373 12.8283 4.70456 12.4549 5.03838C12.2862 5.18933 12.203 5.39044 12.203 5.64739C12.203 5.98199 12.3123 6.1326 13.0565 6.82381C13.526 7.25974 14.05 7.8187 14.2212 8.06575L14.5324 8.51514L12.8918 8.5108C11.9896 8.50835 11.0433 8.5435 10.789 8.589L10.3266 8.67154L10.0902 8.12537C9.96011 7.82493 9.77841 7.26219 9.68649 6.87476C9.49236 6.05662 9.46482 4.05529 9.63309 3.00022C9.82263 1.81279 9.78042 1.86362 10.5054 1.94861C10.8542 1.98943 11.4921 2.09366 11.9231 2.1802ZM27.126 4.09722C27.8784 4.42548 28.403 4.84984 28.7134 5.38132C29.0647 5.98288 29.1621 6.56052 28.9962 7.05985L28.8622 7.4633L28.5904 7.095C28.2055 6.57331 27.4669 6.04172 26.813 5.81569C26.4293 5.68299 25.9285 5.62437 25.2209 5.62915C24.2947 5.63549 24.1141 5.67253 23.4649 5.99011C23.0152 6.21013 22.5526 6.55262 22.2427 6.895C21.7781 7.40846 21.7397 7.42904 21.6772 7.19745C21.5533 6.73794 21.6058 5.99522 21.7876 5.63649C22.1779 4.86663 22.937 4.2841 24.0142 3.92781C24.6874 3.70512 26.4467 3.80089 27.126 4.09722ZM19.9238 7.83894C20.1572 8.54439 20.8083 9.43372 21.4282 9.89367C22.2631 10.5131 23.0215 10.8575 23.9881 11.0559C25.0407 11.2719 25.6929 11.275 26.6726 11.0688C28.3075 10.7245 29.7604 9.72215 30.4279 8.47799C30.7896 7.80357 31.0188 6.77587 30.9246 6.24973L30.8707 5.94795L31.2845 6.33727C31.7906 6.81347 32.5365 8.2831 32.705 9.13594C32.8227 9.73161 32.8143 9.78544 32.5486 10.1371C31.8939 11.0035 31.3262 12.509 31.1814 13.7632C31.1051 14.4245 31.0723 14.4845 30.5286 14.9569C29.7893 15.5996 28.3911 16.2929 27.2709 16.5724C26.2752 16.8208 24.8245 16.8623 23.7829 16.672C23.4174 16.6053 22.7387 16.4055 22.2744 16.2279L21.4301 15.9053L21.2554 14.9867C20.9247 13.2487 19.8904 11.5298 18.5269 10.4517C17.8593 9.92393 17.8134 9.85919 17.8722 9.52893C18.0827 8.35051 18.4396 7.54295 19.1845 6.55974L19.6479 5.94795L19.7122 6.67098C19.7476 7.06864 19.8427 7.59423 19.9238 7.83894ZM26.1555 7.61447C26.4628 7.70513 26.8329 7.9049 26.978 8.0583C27.1983 8.29145 27.2221 8.38032 27.1219 8.5989C26.9227 9.03305 26.2542 9.285 25.3016 9.285C24.6629 9.285 24.3713 9.23172 24.083 9.06253C23.8745 8.94017 23.6295 8.72793 23.5382 8.59078C23.3835 8.35819 23.3962 8.3197 23.7273 8.01213C24.0637 7.70001 24.673 7.48788 25.3092 7.46152C25.4674 7.45496 25.8483 7.52381 26.1555 7.61447ZM42.6246 8.90602C43.6366 9.24951 44.6264 10.0619 45.0688 10.9119C45.1675 11.1015 45.2758 11.522 45.3095 11.8463C45.3581 12.3143 45.3195 12.5413 45.1222 12.9462C44.9855 13.2267 44.8395 13.4563 44.798 13.4563C44.7563 13.4563 44.6308 13.2006 44.5191 12.888C44.2215 12.0554 43.562 11.4087 42.48 10.8883C41.3496 10.3447 40.4358 10.223 39.5046 10.492C39.1647 10.5902 38.7016 10.7952 38.4755 10.9477L38.0644 11.2249V10.8051C38.0644 10.5336 38.1782 10.2068 38.3867 9.88033C38.9621 8.97888 40.0287 8.52715 41.3111 8.64195C41.7113 8.67776 42.3024 8.79656 42.6246 8.90602ZM36.3629 9.70213C36.1841 10.1669 36.1478 10.4722 36.1852 11.1969C36.2253 11.9735 36.2948 12.2336 36.6571 12.962C37.6017 14.8609 39.4645 16.0306 41.9527 16.287C42.8082 16.3752 43.8601 16.1971 44.6352 15.833C45.3127 15.5145 46.232 14.7273 46.5803 14.1674C46.7142 13.9521 46.9118 13.5456 47.0194 13.2642L47.2148 12.7525L47.459 13.401C47.9404 14.6794 47.9626 16.4314 47.512 17.5855C47.2181 18.338 46.392 19.5198 45.8107 20.0193C45.141 20.5947 43.7408 21.2989 42.9366 21.4648L42.3132 21.5934L41.5222 21.0906C40.6544 20.539 39.4561 20.0104 38.4399 19.731C38.0794 19.6318 37.2161 19.5246 36.5213 19.4927L35.258 19.4347L34.7072 18.8206C33.5857 17.5703 32.926 15.6136 33.0863 14.0125C33.173 13.1466 33.4884 12.1635 33.883 11.5287C34.3055 10.8492 35.1174 10.0406 35.8706 9.54929C36.2343 9.31214 36.5443 9.11814 36.5596 9.11814C36.575 9.11814 36.4864 9.38088 36.3629 9.70213ZM13.2837 10.8522C13.9609 11.2682 14.51 11.9787 14.6103 12.5685C14.6532 12.8204 14.6602 13.0542 14.6259 13.0883C14.5915 13.1224 14.4069 13.0194 14.2155 12.8593C14.024 12.6992 13.5836 12.4863 13.2367 12.3861C12.033 12.0385 10.305 12.3763 9.26062 13.1634C8.72615 13.5662 8.07637 14.4629 7.98311 14.9263C7.94885 15.0967 7.88112 15.2361 7.83276 15.2361C7.78439 15.2361 7.63292 15.0065 7.49622 14.7259C7.29672 14.3163 7.26011 14.096 7.31083 13.6084C7.45122 12.2561 8.62304 11.1154 10.3908 10.61C10.6967 10.5226 11.2978 10.4733 11.8322 10.4918C12.6204 10.5191 12.8237 10.5696 13.2837 10.8522ZM17.7472 12.2883C18.4724 13.0061 19.0788 14.0269 19.3244 14.9433C19.5265 15.6976 19.521 17.1463 19.313 17.9399C19.2212 18.2901 19.0208 18.8225 18.8676 19.1227C18.6032 19.6413 18.5576 19.6752 17.9615 19.7981C15.7163 20.2612 13.8116 21.367 12.3372 23.0629C11.9686 23.4871 11.966 23.488 11.1286 23.4795C10.0746 23.4687 9.13601 23.2335 8.06069 22.7107C7.46756 22.4224 6.99008 22.0735 6.43423 21.5224C5.22613 20.3245 4.70588 19.0858 4.70342 17.4007C4.70196 16.4344 4.9084 15.4694 5.2568 14.814C5.42474 14.498 5.47702 14.4561 5.48082 14.6343C5.49045 15.0856 6.16162 16.2088 6.75464 16.766C7.8435 17.7892 9.0525 18.2006 10.6431 18.0894C11.8244 18.0067 12.8213 17.7084 13.7555 17.1578C14.642 16.6353 15.6599 15.5689 16.0732 14.7295C16.3159 14.2368 16.3979 13.8871 16.4349 13.189C16.4783 12.366 16.4111 11.8846 16.1708 11.2975C16.0914 11.1037 16.1271 11.1086 16.5784 11.3531C16.8504 11.5004 17.3764 11.9213 17.7472 12.2883ZM41.2945 12.405C41.681 12.519 42.0473 12.7382 42.3783 13.0533C42.6534 13.3151 42.8784 13.6054 42.8784 13.6981C42.8784 13.7909 42.7722 13.9621 42.6424 14.0787C42.4595 14.243 42.2394 14.29 41.6628 14.288C41.0542 14.2859 40.811 14.2263 40.3232 13.96C39.6792 13.6083 39.2959 13.1733 39.2959 12.7941C39.2959 12.6315 39.4115 12.5057 39.6597 12.3986C40.1367 12.1926 40.5804 12.1943 41.2945 12.405ZM12.9867 14.2672C13.1406 14.3443 13.2818 14.5118 13.3003 14.6395C13.3496 14.9786 12.8017 15.5619 12.1516 15.8626C11.1404 16.3305 9.74001 16.1618 9.74001 15.572C9.74001 15.1336 10.5181 14.466 11.3067 14.2276C11.7536 14.0926 12.6816 14.1144 12.9867 14.2672ZM31.5711 16.907C31.5711 17.1992 32.1017 18.3446 32.5334 18.9845C32.8046 19.3862 33.0265 19.7466 33.0265 19.7854C33.0265 19.8241 32.7619 19.9469 32.4387 20.0583C30.9627 20.567 29.3574 21.8414 28.4668 23.2113L28.0186 23.9007L27.6697 23.3657C27.1863 22.6245 25.9156 21.4617 25.0024 20.9248C24.0974 20.3928 22.5122 19.8453 21.4952 19.7136C20.9417 19.6419 20.7781 19.5807 20.812 19.4578C21.0589 18.5615 21.2296 18.0213 21.2826 17.9687C21.3177 17.9337 21.6368 18.0044 21.9917 18.1257C22.9815 18.464 24.3293 18.6845 25.3979 18.6829C27.2203 18.6801 29.2843 18.0817 30.7306 17.1368C31.3573 16.7273 31.5711 16.6689 31.5711 16.907ZM48.1555 21.5284C49.204 21.8902 50.305 22.9075 51.052 24.2048C51.5528 25.0745 52.2192 26.8502 52.3463 27.6534L52.4189 28.1131L51.707 28.3463C51.3155 28.4747 50.6172 28.6598 50.1554 28.7577C49.111 28.9791 47.0405 28.9932 46.349 28.7835L45.8452 28.6306L45.7734 27.8566C45.6851 26.9053 45.4337 25.9272 45.0638 25.096L44.7834 24.4663L45.201 24.6396C45.6833 24.8399 46.4965 25.3453 47.0884 25.8126C47.6145 26.2281 48.1517 26.2471 48.5371 25.864C48.8535 25.5498 48.8953 25.0811 48.6392 24.7181C48.3683 24.3336 47.1333 23.5065 46.1324 23.039L45.2195 22.6127L45.9484 22.1891C46.3493 21.9561 46.7876 21.6489 46.9224 21.5064C47.1814 21.2325 47.3046 21.2347 48.1555 21.5284ZM21.0474 21.8272C22.0985 22.2103 22.8359 23.1695 22.838 24.1561C22.8383 24.3207 22.7955 24.4819 22.7429 24.5142C22.6903 24.5465 22.5266 24.4444 22.3791 24.2875C21.7905 23.6609 20.5549 23.2904 19.3803 23.3883C17.9313 23.5089 16.6059 24.2454 16.0279 25.2511L15.7048 25.8132L15.5493 25.4468C15.3289 24.9277 15.3771 24.0448 15.6554 23.5027C16.1266 22.585 17.3963 21.7732 18.6558 21.5844C19.4812 21.4607 20.2579 21.5395 21.0474 21.8272ZM38.2122 21.6315C39.0741 21.8545 39.6649 22.1671 40.2665 22.7182C40.8735 23.274 41.2641 23.9224 41.364 24.5394C41.4467 25.0513 41.3008 25.7231 41.0208 26.119L40.8369 26.3789L40.5746 25.7296C40.3931 25.2801 40.1352 24.9166 39.7362 24.5482C39.0627 23.9262 38.54 23.641 37.6524 23.4113C36.4806 23.108 35.2546 23.2545 34.5007 23.7878C34.3174 23.9175 34.1318 24.0236 34.0882 24.0236C33.9516 24.0236 34.1545 23.208 34.3992 22.7738C34.8284 22.0118 35.8962 21.4899 37.0613 21.4727C37.3408 21.4686 37.8587 21.5401 38.2122 21.6315ZM32.4119 22.5742C32.1878 23.2052 32.196 24.5132 32.4283 25.1996C32.6987 25.9985 33.2341 26.7762 33.9937 27.4738C35.1789 28.5619 36.7356 29.1344 38.5198 29.1385C39.4584 29.1407 40.3437 28.9217 41.0453 28.514C41.7363 28.1125 42.6298 27.1114 42.9785 26.3479L43.2877 25.6711L43.4675 26.1544C43.7959 27.0371 43.8848 27.5192 43.8853 28.4219C43.8861 29.4577 43.6689 30.3898 43.2405 31.1899C43.0742 31.5004 42.5848 32.1092 42.1526 32.5429C41.5857 33.1119 41.1334 33.4443 40.5274 33.7374C39.3261 34.3188 38.4404 34.518 37.0568 34.5185C36.1795 34.5189 35.6545 34.4558 34.9871 34.2699C33.7445 33.924 32.8301 33.4659 31.8723 32.7097C30.6023 31.707 29.6476 30.3101 29.2707 28.9034C29.1827 28.5749 29.1101 27.8985 29.1094 27.4002C29.1071 25.8117 29.7389 24.3094 30.8643 23.2276C31.3741 22.7376 32.4633 21.9809 32.5438 22.0609C32.5643 22.0812 32.505 22.3123 32.4119 22.5742ZM25.092 23.2562C25.7099 23.7424 26.5211 24.9166 26.8408 25.7871C27.3484 27.17 27.2936 28.7653 26.6922 30.1164C26.2845 31.0325 25.4859 32.0749 24.7091 32.7052C23.8938 33.3667 22.5188 34.0563 21.5016 34.3142C20.3556 34.6045 19.0008 34.6499 17.9274 34.4338C16.8074 34.2083 16.0604 33.9261 15.1838 33.3974C13.6319 32.4613 12.5466 30.8313 12.289 29.0493C12.1753 28.2637 12.1825 27.9926 12.3361 27.2544C12.5712 26.125 12.9051 25.3818 13.233 25.2587C13.4628 25.1722 13.504 25.2057 13.6163 25.57C14.0957 27.1239 15.1966 28.1936 16.9051 28.7652C17.3571 28.9164 17.8482 28.971 18.7523 28.9704C19.7489 28.9698 20.1411 28.9185 20.8087 28.7017C22.3037 28.2161 23.6749 27.1237 24.2465 25.963C24.6244 25.1957 24.8012 24.1044 24.6568 23.4314C24.5953 23.1453 24.5696 22.9113 24.5993 22.9113C24.6292 22.9113 24.8509 23.0666 25.092 23.2562ZM7.25183 24.4003C7.66594 24.6074 8.21877 24.8405 8.48052 24.9184C8.74227 24.9963 8.95588 25.0896 8.95532 25.1257C8.95476 25.162 8.64073 25.3918 8.25729 25.6365C7.38494 26.1935 6.18502 27.1385 5.34581 27.9299C4.76421 28.4784 4.70207 28.5813 4.70207 28.9974C4.70207 29.3625 4.7632 29.5058 4.99707 29.6885C5.52594 30.1019 5.8346 30.0017 6.85361 29.0857C7.83735 28.2016 9.10388 27.2614 10.0081 26.7442L10.5562 26.4307L10.466 26.8679C10.4164 27.1083 10.3713 27.8738 10.3658 28.5689L10.3558 29.8328L9.79598 30.3383C8.66211 31.3625 6.89559 31.8852 4.98196 31.7629C3.62742 31.6764 2.01159 31.374 1.94218 31.1942C1.84971 30.955 2.22419 29.2005 2.58883 28.1643C3.28249 26.1932 4.17365 25.0248 5.47567 24.3794C5.87031 24.1837 6.26204 24.0236 6.34612 24.0236C6.43019 24.0236 6.83771 24.1931 7.25183 24.4003ZM37.6726 25.401C38.4295 25.7567 38.8762 26.2402 38.8287 26.6528C38.7988 26.9128 38.7113 26.9976 38.352 27.1141C37.2641 27.467 35.3775 26.5716 35.3775 25.7024C35.3775 25.1053 36.6791 24.9344 37.6726 25.401ZM20.9113 25.4806C21.0492 25.566 21.1907 25.7262 21.2258 25.8363C21.3927 26.3588 20.3989 27.0056 19.2738 27.1069C18.7665 27.1527 18.5078 27.115 18.1 26.9356C17.6882 26.7548 17.5768 26.6493 17.5768 26.4409C17.5768 26.055 18.133 25.5996 18.9137 25.346C19.3276 25.2116 20.6179 25.2985 20.9113 25.4806ZM28.5984 31.8846C28.78 32.1701 29.12 32.6235 29.3541 32.8923C29.5882 33.161 29.7798 33.4213 29.7798 33.4706C29.7798 33.52 29.5545 33.8942 29.2792 34.3021C28.279 35.7841 27.5766 37.6244 27.3249 39.4223C27.1095 40.9617 27.1851 41.5518 27.6429 41.9011C27.9589 42.142 28.4307 42.0664 28.7808 41.7185C29.0697 41.4316 29.1081 41.3152 29.1081 40.7272C29.1081 39.8707 29.3451 38.6492 29.7155 37.5962C29.9922 36.8096 30.6726 35.5125 31.1062 34.9452L31.303 34.6877L32.175 35.1551C32.6547 35.4122 33.4078 35.7378 33.8484 35.8787C34.2892 36.0196 34.6409 36.1766 34.6302 36.2277C34.6196 36.2786 34.3967 36.6695 34.135 37.0964C33.5363 38.0734 32.8633 39.4918 32.509 40.5241C32.1902 41.4528 31.9069 42.9561 31.9069 43.7193C31.9069 44.1316 31.8622 44.2667 31.711 44.3118C31.6033 44.3439 30.9357 44.4592 30.2276 44.5681C28.4321 44.844 24.0996 44.8429 22.2789 44.5659C21.5708 44.4583 20.9033 44.3439 20.7955 44.3118C20.6366 44.2645 20.5992 44.1232 20.5976 43.5657C20.5954 42.8024 20.3846 41.6956 20.0323 40.5976C19.7675 39.7724 18.8522 37.815 18.3579 37.0168C18.1746 36.7208 18.0246 36.4668 18.0246 36.4525C18.0247 36.4381 18.6418 36.4209 19.396 36.4141C20.1817 36.4071 21.0626 36.3311 21.4585 36.2363L22.1494 36.0708L22.4825 36.8047C23.0788 38.1185 23.2713 38.8849 23.3915 40.4225C23.4703 41.4323 23.5035 41.5488 23.7802 41.7852C24.1862 42.1322 24.6748 42.1204 25.043 41.7546C25.3297 41.4697 25.333 41.4479 25.2678 40.2807C25.2314 39.6291 25.1025 38.7162 24.9811 38.2521C24.8032 37.5719 24.3375 36.2748 24.0007 35.522C23.9698 35.4528 24.2708 35.2151 24.6705 34.993C25.6346 34.4572 27.029 33.1339 27.6527 32.1627C27.9297 31.7312 28.1816 31.3754 28.2124 31.3718C28.2432 31.3684 28.417 31.5992 28.5984 31.8846ZM15.1613 39.2C15.5596 39.3489 16.1527 39.6408 16.4793 39.8486C17.4768 40.4832 18.5844 41.8378 18.5844 42.4231C18.5844 42.5614 18.4504 42.5141 17.9966 42.216C17.6734 42.0035 17.0562 41.6924 16.6252 41.5247C15.9133 41.2475 15.6928 41.2174 14.2182 41.1969L12.5948 41.1743L12.3991 40.8025C12.2914 40.5981 12.2032 40.2277 12.2032 39.9793C12.2029 39.2013 12.576 38.9375 13.6838 38.9324C14.2155 38.9301 14.65 39.0088 15.1613 39.2ZM16.0857 43.3103C17.1163 43.6717 17.8007 44.3165 17.8007 44.9264C17.8007 45.2723 17.1762 45.8989 16.5336 46.1978C15.7949 46.5414 14.9593 46.7156 14.0502 46.7156C13.1412 46.7156 12.3055 46.5414 11.5669 46.1978C10.9243 45.8989 10.2998 45.2723 10.2998 44.9264C10.2998 44.045 11.6 43.2309 13.2736 43.0644C14.1845 42.9737 15.4382 43.0834 16.0857 43.3103ZM22.3348 46.4538C23.342 46.6005 24.3509 46.6477 26.3652 46.6421C28.4952 46.6361 29.3535 46.5874 30.5065 46.407C31.3065 46.2818 31.9992 46.2029 32.0458 46.2316C32.0926 46.2603 32.1309 46.4184 32.1312 46.5831C32.1317 47.1791 32.7026 49.0186 33.1984 50.0223C33.5155 50.6641 33.9341 51.2942 34.3153 51.7033L34.9251 52.3577L34.1716 52.7023C33.7573 52.8919 33.1954 53.1249 32.923 53.2201C32.4294 53.3929 32.4259 53.3922 31.8204 53.03C31.4863 52.8301 30.9443 52.3985 30.616 52.0708C29.9881 51.4443 29.3285 50.3243 29.1125 49.5183C28.943 48.8857 28.6487 48.6065 28.1514 48.6065C27.6809 48.6065 27.2048 49.0134 27.2048 49.4156C27.2048 49.8593 27.5416 50.8475 27.9713 51.6648C28.1963 52.0928 28.698 52.7775 29.0862 53.1866L29.7922 53.9304L29.2542 54.0214C28.5515 54.1403 24.202 54.1393 23.361 54.02L22.7078 53.9275L23.4257 53.1858C23.8205 52.7779 24.3243 52.1188 24.545 51.7211C24.979 50.9396 25.3016 49.9801 25.3016 49.4712C25.3016 49.0245 24.8536 48.6065 24.3746 48.6065C23.8898 48.6065 23.5978 48.9213 23.343 49.7189C23.0485 50.6403 22.5346 51.4691 21.8298 52.1584C21.4815 52.4992 20.9422 52.9156 20.6315 53.0835C20.0806 53.3814 20.0542 53.3849 19.5773 53.218C19.3083 53.1239 18.7497 52.8922 18.3362 52.703L17.5842 52.3589L18.244 51.6436C18.6491 51.2043 19.0796 50.5706 19.3593 50.0018C19.7749 49.1566 20.2448 47.6474 20.4288 46.5662C20.4919 46.1963 20.5346 46.1468 20.7465 46.1984C20.8812 46.2311 21.5959 46.3461 22.3348 46.4538Z" fill="#E9AAA6"/>
</svg>
