<svg width="56" height="54" viewBox="0 0 56 54" fill="none" xmlns="http://www.w3.org/2000/svg">
<path fill-rule="evenodd" clip-rule="evenodd" d="M23.3495 0.132954C23.1689 0.197793 22.2087 0.825231 21.2157 1.52733C20.2227 2.22932 18.0561 3.74181 16.4011 4.88818C14.7461 6.03466 13.1903 7.16292 12.9439 7.39542C12.1165 8.17601 12.1336 8.00245 12.1336 15.6268V22.3751H11.7738C11.5759 22.3751 11.2063 22.4856 10.9526 22.6207C10.1711 23.0366 1.27422 29.2997 0.792316 29.773C-0.0585582 30.609 -0.0194942 30.0381 0.0132234 41.1562C0.0412357 50.6704 0.0499895 51.0445 0.254283 51.455C0.505299 51.9597 1.05592 52.5323 1.54865 52.8009C1.879 52.981 2.60524 52.9958 12.4741 53.0232L23.0457 53.0526L23.6519 52.7344L24.258 52.4164L24.8861 52.7324L25.5141 53.0484L35.9212 53.046C46.1233 53.0437 46.3381 53.0392 46.8207 52.8232C47.1884 52.6586 48.3479 51.5734 51.3966 48.5412C53.6424 46.3072 55.5874 44.283 55.7188 44.0429L55.9576 43.6063L55.9873 34.1721C56.0199 23.797 56.0416 24.1675 55.3551 23.3367C55.1751 23.1188 54.7719 22.8134 54.459 22.6578L53.8902 22.3751H48.9982H44.1062L44.4513 21.7475L44.7964 21.1198V11.6231C44.7964 1.09703 44.8443 1.80492 44.0722 0.92773C43.8696 0.697407 43.4572 0.394495 43.1558 0.254446L42.6079 0L33.1428 0.00753179C26.6601 0.0126622 23.5743 0.0521772 23.3495 0.132954ZM27.8422 4.20038L24.812 6.54727H21.1537C19.1416 6.54727 17.4981 6.51037 17.5014 6.4654C17.5047 6.42043 18.9697 5.36487 20.7568 4.11993L24.006 1.85633L27.4392 1.85491L30.8722 1.85349L27.8422 4.20038ZM41.3496 1.89618C41.3496 1.91964 40.1158 3.01253 38.6079 4.32493C36.4984 6.16074 35.8108 6.70129 35.6261 6.66898C35.494 6.64584 33.7123 6.59672 31.6666 6.55982L27.9473 6.49269L30.9006 4.17931L33.8541 1.86594L37.6018 1.85972C39.663 1.85633 41.3496 1.87271 41.3496 1.89618ZM42.9317 20.5194C42.876 20.8376 42.4042 21.3629 40.1102 23.6607L37.3556 26.4197L37.2953 17.4387C37.2622 12.499 37.2129 8.37729 37.1859 8.27916C37.1514 8.15396 38.0015 7.34543 40.0365 5.56769L42.9362 3.03458L42.9674 11.586C42.9845 16.2892 42.9685 20.3093 42.9317 20.5194ZM35.1721 8.67093L35.4407 8.9388V18.6092V28.2796L35.1721 28.5474L34.9036 28.8154H24.7173H14.5309L14.2624 28.5474L13.9938 28.2796V18.6092V8.9388L14.2624 8.67093L14.5309 8.40295H24.7173H34.9036L35.1721 8.67093ZM17.0029 21.5474C16.5951 21.729 16.1241 22.2219 15.9704 22.6278C15.9064 22.7968 15.854 23.5136 15.854 24.2207C15.854 25.3555 15.8838 25.5627 16.1084 25.9875C16.2656 26.2847 16.5269 26.5628 16.7923 26.7154C17.2084 26.9547 17.2988 26.9615 19.7034 26.9337C22.0146 26.9071 22.2058 26.8896 22.487 26.6801C23.1964 26.1512 23.24 26.007 23.24 24.1955C23.24 22.6214 23.2269 22.5205 22.9773 22.1713C22.4858 21.4838 22.1041 21.3973 19.5744 21.3994C17.9401 21.4008 17.2421 21.4409 17.0029 21.5474ZM29.2534 21.6607C29.0679 21.8456 28.9848 22.0499 28.9848 22.3205C28.9848 22.5911 29.0679 22.7955 29.2534 22.9804C29.5162 23.2427 29.5591 23.2484 31.2826 23.2484C33.0062 23.2484 33.0491 23.2427 33.3119 22.9804C33.6071 22.686 33.6699 22.1183 33.4402 21.8198C33.158 21.4532 32.8373 21.3927 31.1754 21.3927C29.5658 21.3927 29.5148 21.3998 29.2534 21.6607ZM21.4346 24.1762V25.104H19.5744H17.7142V24.1762V23.2484H19.5744H21.4346V24.1762ZM12.1547 26.4958C12.1732 27.7416 12.1835 28.7738 12.1776 28.7896C12.1717 28.8056 10.6415 28.8056 8.77714 28.7896L5.38732 28.7608L8.56902 26.5068C10.3189 25.2671 11.834 24.2479 11.9359 24.2418C12.1033 24.2319 12.1243 24.4486 12.1547 26.4958ZM49.9707 26.5504C48.5076 27.8262 47.2345 28.9295 47.1417 29.0022C47.0085 29.1063 46.8603 29.1005 46.4417 28.9749C46.0161 28.8471 45.0824 28.8154 41.7435 28.8154H37.5764L39.8724 26.5231L42.1683 24.2308H47.3996H52.6308L49.9707 26.5504ZM29.4772 25.2301C29.1219 25.424 28.9848 25.666 28.9848 26.0995C28.9848 26.41 29.0535 26.5612 29.2731 26.7334C29.5373 26.9408 29.7067 26.9597 31.3023 26.9597C33.005 26.9597 33.0493 26.9538 33.3119 26.6917C33.7073 26.2972 33.6789 25.7519 33.2438 25.3867C32.9147 25.1103 32.8716 25.1042 31.3016 25.1073C30.3522 25.1093 29.6066 25.1595 29.4772 25.2301ZM54.1521 34.2957V43.1598L51.3891 45.9239L48.6262 48.6879L48.5603 39.816C48.5241 34.9364 48.4749 30.8236 48.4509 30.6764C48.4132 30.4443 48.7836 30.0799 51.2524 27.921C52.8171 26.5527 54.1097 25.4327 54.1247 25.4323C54.1397 25.4318 54.1521 29.4204 54.1521 34.2957ZM23.0124 30.9903L23.2948 31.255V40.9559V50.6568L23.0261 50.9247L22.7576 51.1927H12.6909C5.54621 51.1927 2.5467 51.1576 2.3574 51.0715C2.21077 51.0048 2.03613 50.8306 1.96927 50.6843C1.88327 50.4958 1.84781 47.6398 1.84781 40.8869C1.84781 31.4894 1.85088 31.3516 2.06885 31.0752C2.19042 30.9209 2.39963 30.7734 2.5339 30.7469C2.66805 30.7206 7.2671 30.7051 12.754 30.7123L22.73 30.7257L23.0124 30.9903ZM46.0942 30.8214C46.3068 30.91 46.5081 31.1004 46.5849 31.2853C46.6829 31.5213 46.7078 33.9566 46.6858 41.1324L46.6566 50.6659L46.3496 50.9293L46.0425 51.1927H35.9331H25.8237L25.5167 50.9293L25.2097 50.6659L25.1769 41.2416C25.1538 34.5646 25.1798 31.6955 25.2659 31.3997C25.4858 30.6446 24.9638 30.6801 35.9093 30.6753C44.0116 30.6718 45.7967 30.6974 46.0942 30.8214ZM4.85695 43.9217C4.44749 44.1078 3.97751 44.601 3.82443 45.0051C3.67813 45.3912 3.67299 47.5149 3.81699 48.0319C3.93922 48.4709 4.48797 49.0488 4.94613 49.2212C5.12679 49.2891 6.18108 49.337 7.49459 49.337C10.0045 49.337 10.3294 49.2604 10.8387 48.5481C11.0709 48.2233 11.0972 48.0559 11.1294 46.7056C11.1703 44.9846 11.0735 44.6286 10.4306 44.1392L10.0175 43.8246L7.60139 43.7985C5.74623 43.7785 5.10895 43.8071 4.85695 43.9217ZM17.1074 44.038C16.7767 44.3677 16.7497 44.9458 17.0477 45.3134C17.2475 45.5597 17.3275 45.5726 18.8674 45.6067C19.7533 45.6262 20.596 45.6127 20.7403 45.5765C21.4386 45.4018 21.6754 44.5461 21.1659 44.038C20.9031 43.7757 20.8602 43.77 19.1367 43.77C17.4131 43.77 17.3703 43.7757 17.1074 44.038ZM28.1586 43.9236C27.7605 44.0965 27.2659 44.6554 27.1519 45.061C27.1067 45.2215 27.0708 45.9422 27.072 46.6627C27.0746 48.1504 27.1805 48.4635 27.8542 48.9766L28.2558 49.2824L30.5078 49.3165C33.0883 49.3555 33.3372 49.3262 33.8117 48.9279C34.3977 48.436 34.5605 47.9196 34.5605 46.5535C34.5605 44.9456 34.2282 44.2269 33.3272 43.8865C32.86 43.7098 28.5798 43.7405 28.1586 43.9236ZM40.4145 44.038C40.038 44.4135 40.0576 44.8994 40.4658 45.3066L40.7856 45.6257H42.4426C43.4203 45.6257 44.1901 45.5773 44.3204 45.5078C44.6388 45.3377 44.8746 44.7192 44.7479 44.3866C44.5378 43.8356 44.2896 43.77 42.4145 43.77C40.7221 43.77 40.6771 43.776 40.4145 44.038ZM9.28859 46.5535V47.4813H7.42839H5.5682V46.5535V45.6257H7.42839H9.28859V46.5535ZM32.7051 46.5535V47.4813H30.8449H28.9848V46.5535V45.6257H30.8449H32.7051V46.5535ZM17.1074 47.7493C16.9219 47.9342 16.8388 48.1386 16.8388 48.4092C16.8388 48.6798 16.9219 48.8841 17.1074 49.069C17.3703 49.3313 17.4131 49.337 19.1367 49.337C20.8602 49.337 20.9031 49.3313 21.1659 49.069C21.3514 48.8841 21.4346 48.6798 21.4346 48.4092C21.4346 48.1386 21.3514 47.9342 21.1659 47.7493C20.9031 47.487 20.8602 47.4813 19.1367 47.4813C17.4131 47.4813 17.3703 47.487 17.1074 47.7493ZM40.6234 47.6091C40.1028 47.8604 40.0032 48.6192 40.4344 49.0493C40.7217 49.3359 40.7296 49.337 42.4527 49.337C44.1147 49.337 44.1941 49.3269 44.4839 49.0783C44.9065 48.7157 44.9065 48.1027 44.4839 47.74C44.1944 47.4916 44.1166 47.4817 42.5197 47.4888C41.6053 47.4928 40.752 47.5469 40.6234 47.6091Z" fill="#E9AAA6"/>
</svg>
