<svg width="56" height="44" viewBox="0 0 56 44" fill="none" xmlns="http://www.w3.org/2000/svg">
<path fill-rule="evenodd" clip-rule="evenodd" d="M1.27531 0.358022C0.857943 0.534637 0.400132 0.896003 0.258217 1.1614C0.080405 1.49358 0.00166969 6.91625 0.00525944 18.5911C0.0102851 34.2871 0.0411569 35.576 0.424063 36.0489C1.12191 36.9102 1.79223 37.094 4.23589 37.094H6.58861L7.0189 38.3059C7.48389 39.6147 8.81832 41.1232 10.0965 41.7841C11.139 42.3231 13.7916 42.5031 14.9833 42.1156C16.8711 41.5018 18.8627 39.4783 19.2781 37.7521L19.4365 37.094L22.0429 37.0895C23.4767 37.0868 19.1393 37.0849 23.812 37.0849C28.4846 37.0849 33.1977 37.0868 34.2856 37.0895L36.2638 37.094L36.668 38.2325C37.1249 39.5185 38.613 41.1495 39.9254 41.8026C41.1423 42.408 44.5423 42.4085 45.6623 41.8033C46.9629 41.1007 48.2809 39.604 48.7418 38.3059L49.1721 37.094H51.521C54.0094 37.094 55.0454 36.787 55.5142 35.9106C55.6614 35.6359 55.7607 33.3755 55.7607 30.3027C55.7607 24.1621 55.8925 24.4495 52.4246 23.0301L50.1657 22.1054L48.7059 16.313C47.3719 11.0188 47.1798 10.4541 46.4738 9.74736L45.701 8.97436L39.9787 8.90257L34.2564 8.83078L34.1794 5.26951C34.1114 2.11317 34.0463 1.6331 33.6077 1.04653C33.3356 0.682534 32.8064 0.302739 32.4317 0.202466C32.0571 0.102431 32.2976 0.0241755 21.559 0.0287225C5.78523 0.0356627 1.88844 0.098842 1.27531 0.358022ZM31.785 7.96349L31.7094 13.5338L30.9405 15.0946C29.6027 17.8097 27.2818 19.6945 24.2906 20.4948C23.3518 20.7459 23.3333 20.8176 17.2906 20.8176L2.15384 20.8205V11.6068V2.39317H21.6739H31.8609L31.785 7.96349ZM5.87593 5.88479C5.4174 6.34332 5.39634 7.03136 5.82998 7.39129C6.06642 7.58753 10.4368 7.64472 21.7751 7.59997L28.0613 7.53847C28.437 6.97231 28.8446 6.5882 28.263 6.0066C27.7796 5.52318 27.4167 5.51481 21.677 5.51481C8.04413 5.51313 6.20451 5.55621 5.87593 5.88479ZM5.86635 10.1391C5.60502 10.3303 5.49135 10.6821 5.54352 11.1399L5.62393 11.8462L20.512 11.9079C26.25 11.6666 26.073 11.9577 26.3145 11.5063C26.6416 10.8951 26.3925 10.3045 25.6961 10.0398C24.7735 9.68896 6.35264 9.78349 5.86635 10.1391ZM44.951 11.2177C45.3401 11.4645 47.9159 21.5969 47.634 21.7723C47.5234 21.8412 45.5134 21.8436 43.1674 21.7778C37.9993 21.6328 38.2994 21.8929 38.2942 17.5555C38.2904 14.4806 38.2444 14.359 37.0828 14.359C36.3342 14.359 36.1817 15.0566 36.2198 18.3082C36.2595 21.6885 36.4646 22.3521 37.7722 23.3333C38.3533 23.7694 38.9011 23.8237 43.9145 23.9443L49.4188 24.0767L51.453 24.9387L53.4872 25.8007L53.5523 30.3704L53.6171 34.9402H51.4506C49.5973 34.9402 49.2649 34.8796 49.1517 34.5214C47.8269 30.3317 43.7393 28.2963 40.0764 30.0021C38.6362 30.6727 37.0134 32.43 36.5496 33.8211L36.2164 34.8205H23.1938H19.5043L19.1862 33.8156C18.7308 32.3764 17.1346 30.6693 15.6161 29.9978C11.8883 28.3492 7.93261 30.336 6.60895 34.5214C6.49576 34.8796 6.16358 34.9402 4.31511 34.9402H2.15384V28.9668V22.9937L18.0085 22.9205C23.3333 22.9205 24.5392 22.8442 25.9464 22.3117C29.7602 20.8686 32.4537 17.9906 33.5971 14.1359C33.8094 13.4211 33.9829 12.4251 33.9829 11.9223V11.0086L39.3077 11.0121C42.2364 11.0143 44.7758 11.1067 44.951 11.2177ZM5.65025 14.7357C5.38413 15.4292 5.49853 16.0143 5.94772 16.2546C6.55606 16.5803 23.1395 16.5693 23.7488 16.2434C24.0743 16.0691 24.1784 15.7915 24.125 15.2406C24.125 15.2406 24.1411 14.5404 24.0513 14.4786C23.9614 14.4169 19.5904 14.4169 19.5904 14.4169C7.16704 14.3611 5.78188 14.393 5.65025 14.7357ZM36.6154 26.5641C36.0544 27.1251 36.0324 27.2873 36.4412 27.8461C36.6924 28.19 37.0572 28.2501 38.5352 28.191C40.3205 28.1199 40.325 28.118 40.4052 27.4134C40.5138 26.4593 39.9392 26.0855 38.3645 26.0855C37.413 26.0855 36.9739 26.2056 36.6154 26.5641ZM15.0896 32.1947C16.0368 32.6844 16.9218 33.9226 17.1956 35.1414C17.5924 36.9069 16.8024 38.6783 15.1999 39.6174C12.0299 41.4752 8.14823 38.8449 8.82693 35.2992C9.05237 34.1215 9.35319 33.5486 10.1262 32.8258C11.412 31.6233 13.4771 31.3607 15.0896 32.1947ZM43.8473 31.8396C45.7463 32.3671 46.9249 33.9417 46.9735 36.0164C47.0484 39.2115 43.4199 41.2828 40.5866 39.6628C39.251 38.8989 38.7089 38.052 38.5828 36.5326C38.3923 34.2356 39.3388 32.6447 41.3148 31.9403C42.4466 31.5369 42.7182 31.5261 43.8473 31.8396ZM11.9254 34.1098C10.6362 34.8098 10.5457 36.8143 11.7645 37.6681C13.9591 39.2053 16.3896 36.0872 14.3405 34.3632C13.5144 33.668 12.8644 33.5998 11.9254 34.1098ZM41.4201 34.3632C39.3711 36.0872 41.8016 39.2053 43.9961 37.6681C45.242 36.7956 45.1245 34.7901 43.7867 34.0985C42.8113 33.594 42.2611 33.6555 41.4201 34.3632Z" fill="#E9AAA6"/>
</svg>
