<svg width="56" height="56" viewBox="0 0 56 56" fill="none" xmlns="http://www.w3.org/2000/svg">
<g clip-path="url(#clip0)">
<path d="M55.3179 27.8626C56.4379 26.0424 56.1568 23.7237 54.6343 22.224L52.4512 20.0733C51.956 19.5854 51.7 18.9077 51.7495 18.2142L51.9682 15.1426C52.1208 13.0009 50.7914 11.0723 48.7358 10.4526L45.845 9.58111C45.1748 9.37899 44.6309 8.89489 44.3526 8.25275L43.1426 5.46129C42.2968 3.5096 40.1672 2.39058 38.0804 2.80008L35.1473 3.37572C34.4571 3.51124 33.747 3.33547 33.1996 2.89349L30.8646 1.0083C29.2048 -0.331869 26.7952 -0.331869 25.1353 1.0083L22.8004 2.89349C22.2529 3.33547 21.5428 3.51102 20.8527 3.37572L17.9192 2.79997C15.8326 2.39037 13.7034 3.50938 12.8571 5.46074L11.6465 8.25297C11.3682 8.895 10.8242 9.3791 10.1543 9.58111L7.26391 10.4525C5.20832 11.0722 3.87908 13.0007 4.03166 15.1424L4.25041 18.2142C4.29985 18.9077 4.04391 19.5853 3.54866 20.0733L1.36543 22.224C-0.156855 23.7237 -0.437948 26.0424 0.682052 27.8625L2.29632 30.4857C2.6601 31.077 2.74683 31.7952 2.53443 32.4559L1.58997 35.3931C0.934708 37.4309 1.76257 39.6173 3.60324 40.7102L6.2196 42.2636C6.81919 42.6196 7.23033 43.218 7.34747 43.9054L7.86241 46.926C8.22444 49.0495 9.98002 50.6072 12.1314 50.7142L15.1283 50.8632C15.8293 50.898 16.475 51.2383 16.8997 51.7972L18.727 54.2013C19.6079 55.3603 20.9778 55.997 22.3731 55.997C23.0209 55.997 23.6745 55.8597 24.2869 55.5741L26.9958 54.309C27.634 54.0111 28.3661 54.0111 29.0041 54.309L31.7128 55.5741C33.6446 56.476 35.9831 55.8988 37.2731 54.2012L39.0997 51.7977C39.5245 51.2387 40.1703 50.8982 40.8715 50.8634L43.8688 50.7144C46.0203 50.6075 47.7758 49.0497 48.1378 46.9261L48.6526 43.9056C48.7698 43.2183 49.1809 42.6198 49.7805 42.2639L52.3969 40.7105C54.2376 39.6177 55.0654 37.4312 54.4101 35.3934L53.4657 32.4561C53.2531 31.7952 53.3399 31.0771 53.7038 30.486L55.3179 27.8626ZM51.8409 29.3394C51.1419 30.4756 50.9752 31.8553 51.3835 33.1252L52.3279 36.0624C52.6689 37.1229 52.238 38.2608 51.2802 38.8295L48.6639 40.3829C47.5116 41.067 46.7216 42.2169 46.4965 43.5377L45.9817 46.5582C45.7932 47.6633 44.8797 48.4741 43.7601 48.5295L40.7627 48.6785C39.4153 48.7455 38.1745 49.3998 37.3582 50.474L35.5317 52.8775C34.8603 53.7608 33.6433 54.0612 32.638 53.592L29.9293 52.3269C28.7031 51.7544 27.2965 51.7544 26.0703 52.3269L23.3614 53.592C22.3561 54.0612 21.1392 53.7611 20.4679 52.8777L18.6407 50.4737C17.8244 49.3997 16.5836 48.7455 15.2365 48.6785L12.2396 48.5295C11.12 48.474 10.2065 47.6633 10.0181 46.5583L9.50325 43.5378C9.27805 42.2169 8.48814 41.067 7.33588 40.383L4.71952 38.8296C3.76161 38.261 3.33068 37.1231 3.67182 36.0625L4.61627 33.1253C5.02446 31.8554 4.85788 30.4757 4.15875 29.3395L2.54449 26.7161C1.96163 25.7689 2.10797 24.5623 2.90018 23.7818L5.08341 21.6312C6.0353 20.6935 6.52672 19.3914 6.4319 18.0587L6.21315 14.9869C6.13374 13.8724 6.82543 12.8688 7.89522 12.5463L10.7856 11.6749C12.073 11.2868 13.1182 10.3565 13.6531 9.12294L14.8637 6.33082C15.2431 5.45582 16.1181 4.90238 17.0478 4.90238C17.1971 4.90238 17.3477 4.91671 17.4979 4.94624L20.4313 5.52199C21.7581 5.78219 23.1223 5.44444 24.1742 4.59526L26.5089 2.70974C27.3727 2.01226 28.6266 2.01226 29.4904 2.70974L31.8254 4.59482C32.8773 5.44422 34.2417 5.78186 35.5683 5.52155L38.5014 4.94591C39.5877 4.73252 40.6956 5.31505 41.1358 6.33071L42.3459 9.12218C42.8809 10.356 43.9261 11.2864 45.2138 11.6746L48.1046 12.5461C49.1744 12.8685 49.8662 13.8722 49.7868 14.9868L49.5681 18.0584C49.4731 19.3913 49.9646 20.6933 50.9166 21.6311L53.0997 23.7817C53.892 24.5622 54.0382 25.7687 53.4554 26.716L51.8409 29.3394Z" fill="#E9AAA6"/>
<path d="M14.8744 13.2953C14.4496 12.8661 13.7572 12.8626 13.3279 13.2876L13.312 13.3035C12.8828 13.7283 12.8793 14.4208 13.3042 14.85C13.5182 15.066 13.7997 15.1741 14.0814 15.1741C14.3595 15.1741 14.6375 15.0686 14.8508 14.8577L14.8667 14.8418C15.2958 14.417 15.2993 13.7245 14.8744 13.2953Z" fill="#E9AAA6"/>
<path d="M48.425 24.1818C47.6565 20.0501 45.6738 16.2899 42.6914 13.3075C35.9647 6.58094 25.5626 5.27292 17.3949 10.1268C16.8757 10.4353 16.705 11.1063 17.0135 11.6255C17.3222 12.1447 17.9931 12.3154 18.5123 12.0069C25.8193 7.6643 35.1261 8.83527 41.1449 14.8541C46.5264 20.2356 48.0878 28.2419 45.1228 35.2506C44.8874 35.8068 45.1476 36.4485 45.7038 36.6838C45.8429 36.7426 45.9873 36.7704 46.1294 36.7704C46.5555 36.7704 46.9605 36.5197 47.137 36.1027C48.73 32.3374 49.1752 28.2152 48.425 24.1818Z" fill="#E9AAA6"/>
<path d="M42.6957 41.1481C42.2709 40.719 41.5784 40.7154 41.1492 41.1403L41.1333 41.1563C40.7041 41.5811 40.7006 42.2735 41.1255 42.7027C41.3394 42.9187 41.621 43.0268 41.9027 43.0268C42.1808 43.0268 42.4589 42.9214 42.6721 42.7105L42.688 42.6945C43.1171 42.2697 43.1206 41.5772 42.6957 41.1481Z" fill="#E9AAA6"/>
<path d="M38.9862 44.3727C38.6777 43.8535 38.0066 43.6828 37.4874 43.9913C34.5377 45.7443 31.2629 46.5988 28.0093 46.5987C23.2031 46.5985 18.4438 44.7332 14.8548 41.1441C9.47332 35.7626 7.91189 27.7563 10.8769 20.7476C11.1123 20.1914 10.8521 19.5497 10.2959 19.3144C9.73987 19.0793 9.09806 19.3392 8.86279 19.8955C7.26985 23.6608 6.82459 27.783 7.57479 31.8165C8.34337 35.9482 10.326 39.7084 13.3084 42.6908C17.3197 46.7019 22.6377 48.7863 28.0097 48.7863C31.6463 48.7863 35.3078 47.831 38.6048 45.8715C39.1239 45.5629 39.2946 44.8919 38.9862 44.3727Z" fill="#E9AAA6"/>
<path d="M32.5191 19.0476C31.9932 18.7507 31.3262 18.9363 31.0293 19.4623L20.8915 37.4202C20.5946 37.9462 20.7801 38.6132 21.3061 38.91C21.4761 39.0059 21.6605 39.0515 21.8427 39.0515C22.2243 39.0515 22.5951 38.8514 22.7959 38.4954L32.9337 20.5374C33.2307 20.0114 33.0451 19.3445 32.5191 19.0476Z" fill="#E9AAA6"/>
<path d="M34.588 30.6721C32.0555 30.6721 29.9951 32.7324 29.9951 35.265C29.9951 37.7975 32.0554 39.8579 34.588 39.8579C37.1205 39.8579 39.1809 37.7976 39.1809 35.265C39.1809 32.7324 37.1206 30.6721 34.588 30.6721ZM34.588 37.6707C33.2614 37.6707 32.1822 36.5915 32.1822 35.2649C32.1822 33.9383 33.2614 32.8591 34.588 32.8591C35.9146 32.8591 36.9938 33.9383 36.9938 35.2649C36.9938 36.5915 35.9146 37.6707 34.588 37.6707Z" fill="#E9AAA6"/>
<path d="M21.4117 16.1401C18.8793 16.1401 16.8188 18.2004 16.8188 20.733C16.8188 23.2656 18.8791 25.3259 21.4117 25.3259C23.9442 25.3259 26.0046 23.2656 26.0046 20.733C26.0046 18.2004 23.9443 16.1401 21.4117 16.1401ZM21.4117 23.1387C20.0851 23.1387 19.0059 22.0595 19.0059 20.7329C19.0059 19.4063 20.0851 18.3271 21.4117 18.3271C22.7383 18.3271 23.8175 19.4063 23.8175 20.7329C23.8175 22.0595 22.7383 23.1387 21.4117 23.1387Z" fill="#E9AAA6"/>
</g>
<defs>
<clipPath id="clip0">
<rect width="56" height="56" fill="white"/>
</clipPath>
</defs>
</svg>
