<svg width="56" height="57" viewBox="0 0 56 57" fill="none" xmlns="http://www.w3.org/2000/svg">
<path d="M54.284 10.76C53.267 9.32701 51.557 8.53201 49.413 8.44101C49.71 4.40201 48.36 1.26301 45.823 0.295013C43.78 -0.484987 41.338 0.303013 39.141 2.38801C38.145 1.50301 37 0.997013 35.774 0.997013C31.849 0.997013 28.774 6.04801 28.774 12.497C28.774 17.284 30.504 21.383 33.066 23.109C30.871 25.353 30.359 30.4 30.256 37.148C29.068 35.304 27.506 33.914 25.461 33.328C26.852 30.963 27.362 27.395 26.677 23.584C25.535 17.236 21.616 12.817 17.753 13.503C16.545 13.72 15.508 14.421 14.684 15.469C12.154 13.806 9.61 13.461 7.737 14.591C5.417 15.99 4.657 19.313 5.655 23.226C3.617 23.684 2.032 24.75 1.261 26.388C-0.528996 30.194 2.838 35.419 8.926 38.284C11.333 39.417 13.852 40.017 16.142 40.017C16.534 40.017 16.918 39.999 17.294 39.964C20.063 39.703 22.081 38.511 22.978 36.607C23.136 36.271 23.24 35.921 23.319 35.566C23.565 35.422 23.8 35.258 24.024 35.071C31.388 36.04 31.979 50.483 31.979 55.017C31.979 55.569 32.426 56.017 32.979 56.017C33.532 56.017 33.979 55.569 33.979 55.017C33.979 51.658 33.706 46.038 32.169 41.319C32.2 41.222 32.23 41.124 32.23 41.017C32.23 34.856 32.238 26.634 34.584 24.436C34.631 24.51 34.668 24.589 34.719 24.661C35.801 26.184 37.656 26.998 39.997 26.998C40.293 26.998 40.596 26.985 40.906 26.959C43.487 26.742 46.305 25.629 48.844 23.825C51.383 22.021 53.363 19.725 54.417 17.36C55.55 14.819 55.503 12.476 54.284 10.76ZM18.107 15.471C20.786 14.991 23.796 18.869 24.709 23.936C25.374 27.632 24.752 31.198 23.281 32.998C23.277 32.982 23.269 32.965 23.265 32.949C23.086 32.215 22.777 31.473 22.353 30.74C22.331 30.701 22.309 30.663 22.286 30.625C21.85 29.892 21.299 29.172 20.643 28.48C20.614 28.45 20.584 28.42 20.555 28.39C20.238 28.061 19.9 27.739 19.536 27.426C19.518 27.411 19.502 27.395 19.484 27.38C19.105 27.056 18.703 26.743 18.278 26.441C18.231 26.407 18.181 26.376 18.133 26.343C17.844 26.142 17.546 25.945 17.237 25.756C17.236 25.755 17.235 25.754 17.233 25.753C17.232 25.753 17.231 25.753 17.23 25.751C17.16 25.708 17.085 25.667 17.013 25.625C16.907 25.562 16.802 25.499 16.695 25.437C16.564 25.362 16.435 25.287 16.3 25.214C16.297 25.212 16.295 25.209 16.291 25.208C15.972 25.036 15.645 24.869 15.311 24.711C15.311 24.711 15.311 24.711 15.31 24.711C15.107 24.616 14.903 24.525 14.699 24.438C14.687 24.322 14.672 24.206 14.663 24.09C14.655 23.988 14.646 23.886 14.639 23.785C14.62 23.494 14.609 23.205 14.606 22.919C14.606 22.884 14.603 22.849 14.603 22.814C14.602 22.481 14.612 22.153 14.632 21.83C14.635 21.778 14.641 21.728 14.644 21.677C14.663 21.408 14.69 21.142 14.723 20.883C14.731 20.818 14.74 20.754 14.749 20.69C14.79 20.404 14.839 20.122 14.898 19.851C14.9 19.84 14.902 19.829 14.904 19.818C15.107 18.894 15.41 18.062 15.806 17.37C15.813 17.358 15.813 17.344 15.82 17.332C16.413 16.31 17.192 15.635 18.107 15.471ZM8.77 16.303C9.961 15.586 11.791 15.927 13.665 17.181C13.665 17.182 13.665 17.182 13.665 17.182C13.469 17.62 13.3 18.09 13.157 18.585C13.151 18.606 13.145 18.627 13.139 18.649C12.999 19.141 12.883 19.656 12.798 20.197V20.198C12.633 21.237 12.575 22.359 12.629 23.534C12.631 23.585 12.627 23.633 12.629 23.684C12.618 23.681 12.606 23.678 12.595 23.675C10.859 23.155 9.171 22.92 7.64 22.974C6.785 19.87 7.211 17.242 8.77 16.303ZM17.107 37.971C14.883 38.18 12.277 37.648 9.778 36.472C4.874 34.164 1.802 29.935 3.072 27.238C3.672 25.96 5.163 25.221 7.081 25.035C7.513 24.992 7.963 24.979 8.427 24.993C8.5 24.995 8.573 25 8.647 25.003C9.095 25.025 9.554 25.069 10.021 25.141C10.099 25.153 10.179 25.17 10.257 25.183C10.741 25.266 11.229 25.369 11.722 25.505C11.751 25.513 11.781 25.524 11.81 25.532C12.318 25.675 12.828 25.845 13.334 26.042C13.368 26.055 13.401 26.066 13.435 26.079C13.777 26.214 14.119 26.359 14.461 26.519C14.751 26.656 15.034 26.801 15.31 26.95C15.419 27.009 15.525 27.072 15.632 27.133C15.785 27.22 15.937 27.306 16.086 27.396C16.225 27.481 16.36 27.569 16.495 27.657C16.605 27.728 16.714 27.799 16.821 27.872C16.971 27.975 17.119 28.08 17.263 28.187C17.344 28.247 17.424 28.307 17.503 28.367C17.658 28.486 17.811 28.606 17.959 28.729C18.017 28.777 18.073 28.826 18.13 28.874C18.289 29.009 18.445 29.146 18.594 29.285C18.626 29.315 18.656 29.345 18.688 29.375C19.12 29.785 19.506 30.208 19.847 30.637C19.947 30.763 20.048 30.889 20.139 31.016C20.24 31.156 20.335 31.296 20.426 31.437C20.446 31.468 20.469 31.499 20.488 31.53C20.571 31.663 20.644 31.796 20.718 31.93C20.755 31.998 20.795 32.067 20.83 32.135C20.891 32.254 20.944 32.372 20.996 32.491C21.032 32.573 21.068 32.654 21.1 32.735C21.143 32.846 21.181 32.956 21.217 33.066C21.245 33.154 21.271 33.241 21.294 33.327C21.322 33.431 21.347 33.535 21.367 33.638C21.385 33.729 21.398 33.819 21.41 33.908C21.423 34.005 21.435 34.103 21.441 34.199C21.447 34.295 21.445 34.388 21.443 34.482C21.442 34.568 21.442 34.655 21.435 34.74C21.402 35.095 21.317 35.436 21.167 35.755C20.585 36.992 19.143 37.78 17.107 37.971ZM45.11 2.16401C46.813 2.81501 47.698 5.33301 47.403 8.54601C47.385 8.54901 47.366 8.55401 47.347 8.55701C46.198 8.72601 45.016 9.06401 43.838 9.55301C43.818 9.56101 43.798 9.57001 43.778 9.57901C43.425 9.72701 43.073 9.88901 42.723 10.064C42.688 10.081 42.653 10.094 42.619 10.112C42.613 10.066 42.601 10.024 42.595 9.97801C42.36 8.19801 41.884 6.59101 41.224 5.24201C41.215 5.22401 41.207 5.20601 41.198 5.18901C40.968 4.72601 40.719 4.29301 40.448 3.89601L40.447 3.89501C42.084 2.30401 43.788 1.66001 45.11 2.16401ZM30.774 12.497C30.774 7.34801 33.064 2.99701 35.774 2.99701C36.703 2.99701 37.59 3.52301 38.352 4.42401C38.36 4.43501 38.363 4.44801 38.372 4.45901C38.884 5.06801 39.328 5.83201 39.69 6.70301C39.698 6.72101 39.704 6.74001 39.712 6.75801C39.814 7.00701 39.908 7.26601 39.997 7.53101C40.019 7.59801 40.041 7.66501 40.062 7.73301C40.139 7.97501 40.209 8.22401 40.274 8.47701C40.289 8.53401 40.305 8.58901 40.319 8.64701C40.394 8.95801 40.462 9.27501 40.519 9.59901C40.527 9.64201 40.532 9.68801 40.539 9.73101C40.585 10.003 40.623 10.28 40.655 10.559C40.667 10.665 40.677 10.772 40.687 10.88C40.698 10.992 40.703 11.106 40.712 11.219C40.527 11.34 40.343 11.466 40.159 11.596C40.005 11.705 39.86 11.822 39.711 11.934C39.568 12.042 39.42 12.148 39.281 12.258V12.259C39.171 12.347 39.068 12.438 38.961 12.527C38.852 12.618 38.745 12.709 38.639 12.802C38.318 13.082 38.007 13.368 37.712 13.663C37.645 13.73 37.576 13.796 37.51 13.864C37.213 14.17 36.935 14.484 36.668 14.802C36.556 14.935 36.45 15.069 36.344 15.204C36.195 15.394 36.053 15.586 35.915 15.779C35.897 15.804 35.878 15.829 35.86 15.854C35.838 15.885 35.817 15.917 35.795 15.948C35.714 16.065 35.627 16.181 35.55 16.299C35.404 16.524 35.272 16.752 35.143 16.98C35.135 16.994 35.126 17.008 35.118 17.022C35.07 17.108 35.021 17.193 34.975 17.279C34.896 17.426 34.826 17.572 34.754 17.719C34.736 17.757 34.713 17.795 34.695 17.833C34.692 17.838 34.694 17.844 34.692 17.85C34.659 17.921 34.619 17.991 34.587 18.061C34.538 18.172 34.503 18.28 34.458 18.39C34.392 18.552 34.324 18.714 34.268 18.876C34.143 19.231 34.036 19.583 33.959 19.927C33.949 19.971 33.946 20.014 33.937 20.058C33.867 20.394 33.825 20.723 33.801 21.046C33.798 21.084 33.787 21.124 33.785 21.161C32.016 19.651 30.774 16.252 30.774 12.497ZM52.591 16.545C51.68 18.588 49.939 20.594 47.687 22.193C45.436 23.793 42.968 24.777 40.739 24.964C38.699 25.136 37.142 24.616 36.35 23.501C36.156 23.228 36.013 22.923 35.916 22.592C35.889 22.498 35.873 22.4 35.854 22.303C35.839 22.228 35.82 22.156 35.809 22.079C35.795 21.976 35.792 21.869 35.786 21.763C35.782 21.685 35.774 21.61 35.774 21.53C35.774 21.422 35.784 21.31 35.792 21.199C35.798 21.117 35.801 21.036 35.811 20.952C35.825 20.837 35.847 20.719 35.868 20.602C35.883 20.519 35.897 20.436 35.916 20.352C35.944 20.227 35.98 20.099 36.016 19.972C36.038 19.894 36.06 19.817 36.086 19.738C36.132 19.596 36.184 19.452 36.24 19.308C36.263 19.249 36.286 19.19 36.311 19.13C36.376 18.974 36.445 18.817 36.521 18.66C36.588 18.518 36.667 18.374 36.743 18.231C37.124 17.524 37.604 16.811 38.18 16.118C38.192 16.103 38.204 16.088 38.216 16.073C38.369 15.891 38.529 15.71 38.693 15.532C38.723 15.5 38.753 15.467 38.783 15.434C38.937 15.27 39.096 15.108 39.259 14.948C39.314 14.895 39.369 14.841 39.425 14.788C39.571 14.649 39.72 14.51 39.873 14.374C39.982 14.279 40.093 14.184 40.205 14.091C40.322 13.992 40.438 13.892 40.559 13.796C40.723 13.665 40.895 13.539 41.067 13.412C41.15 13.351 41.229 13.286 41.314 13.226C41.631 13.001 41.951 12.792 42.272 12.594C42.324 12.562 42.377 12.533 42.429 12.502C43.631 11.779 44.881 11.224 46.097 10.873C46.12 10.866 46.142 10.86 46.165 10.854C46.394 10.789 46.622 10.732 46.848 10.682C46.891 10.672 46.934 10.664 46.976 10.655C47.188 10.61 47.399 10.57 47.607 10.539C47.659 10.531 47.71 10.526 47.761 10.52C47.966 10.492 48.171 10.467 48.371 10.453C48.372 10.453 48.374 10.452 48.375 10.452C48.589 10.437 48.8 10.425 49.003 10.425C50.678 10.425 51.957 10.946 52.65 11.921C53.446 13.034 53.424 14.677 52.591 16.545Z" fill="#E9AAA6"/>
<path d="M43.018 41.514C46.718 38.933 49.16 34.566 49.169 29.618C49.17 29.211 48.924 28.845 48.548 28.69C48.355 28.612 48.148 28.598 47.951 28.64C44.298 28.686 40.872 30.174 38.286 32.844C35.69 35.523 34.251 39.079 34.214 42.868C34.213 42.874 34.21 42.88 34.21 42.886C34.209 42.894 34.212 42.902 34.212 42.91C34.212 42.938 34.208 42.964 34.208 42.992C34.208 43.046 34.224 43.096 34.232 43.148C34.236 43.17 34.237 43.193 34.242 43.215C34.273 43.343 34.324 43.462 34.402 43.566C36.377 48.209 40.981 51.011 45.893 51.011C47.514 51.011 49.168 50.706 50.772 50.062C51.15 49.91 51.398 49.544 51.399 49.137C51.4 48.933 51.337 48.739 51.229 48.576C49.745 45.043 46.691 42.484 43.018 41.514ZM39.722 34.235C41.731 32.161 44.328 30.921 47.122 30.681C46.718 35.475 43.669 39.488 39.507 41.147C39.5 41.15 39.492 41.148 39.485 41.151C38.504 41.539 37.496 41.784 36.477 41.896C36.419 41.902 36.363 41.914 36.305 41.919C36.287 41.921 36.27 41.92 36.252 41.922C36.496 39.013 37.706 36.316 39.722 34.235ZM36.783 43.882C37.321 43.821 37.848 43.719 38.366 43.596C38.429 43.581 38.491 43.561 38.554 43.545C39.021 43.427 39.478 43.284 39.925 43.118C39.96 43.105 39.996 43.098 40.032 43.085C43.883 43.191 47.292 45.294 49.011 48.558C44.237 49.966 39.166 48.002 36.783 43.882Z" fill="#E9AAA6"/>
</svg>
