<svg width="56" height="56" viewBox="0 0 56 56" fill="none" xmlns="http://www.w3.org/2000/svg">
<path d="M54.1326 25.9076L50.8972 29.1431C50.6921 29.3483 50.5768 29.6264 50.5768 29.9165C50.5768 32.2334 49.6746 34.4115 48.0362 36.0498L30.7546 53.3316C30.1132 53.9727 29.0697 53.9728 28.4285 53.3316C28.1179 53.0209 27.9467 52.6079 27.9467 52.1685C27.9467 51.7861 28.0766 51.4236 28.3151 51.1314L38.3225 41.124C38.7496 40.6969 38.7496 40.0043 38.3225 39.5771C38.3215 39.576 38.3203 39.5752 38.3192 39.5741C38.3182 39.573 38.3174 39.5719 38.3163 39.5708C37.889 39.144 37.1966 39.144 36.7694 39.5708L24.7023 51.6505C24.3917 51.9612 23.9786 52.1323 23.5393 52.1323C23.1001 52.1323 22.687 51.9611 22.3764 51.6505C21.7756 51.0497 21.7377 50.0962 22.2625 49.4507L34.456 37.2572C34.8831 36.8301 34.8831 36.1376 34.456 35.7104C34.0289 35.2834 33.3363 35.2834 32.9091 35.7104L18.7146 49.9049C18.404 50.2156 17.9909 50.3867 17.5516 50.3867C17.1123 50.3867 16.6993 50.2155 16.3886 49.9049C16.0779 49.5942 15.9069 49.1812 15.9069 48.7419C15.9069 48.3025 16.0779 47.8894 16.3886 47.5788L30.5929 33.387C31.02 32.9599 31.02 32.2674 30.5929 31.8402C30.1657 31.4133 29.4732 31.4133 29.0461 31.8402L16.3668 44.507C15.7214 45.0315 14.768 44.9937 14.1673 44.3931C13.8565 44.0824 13.6855 43.6693 13.6855 43.23C13.6855 42.7906 13.8567 42.3776 14.1673 42.067L18.3173 37.9169C18.7444 37.4898 18.7444 36.7972 18.3172 36.37C17.89 35.943 17.1975 35.943 16.7704 36.37L14.6474 38.4931L10.4306 34.2761C7.77587 31.6214 5.87134 28.2983 4.92284 24.666C4.87373 24.4778 4.77541 24.3063 4.63803 24.1689L1.86714 21.398C1.43993 20.9711 0.747478 20.971 0.320371 21.398C-0.106736 21.8251 -0.106845 22.5176 0.320371 22.9448L2.884 25.5085C3.95499 29.4034 6.02534 32.9644 8.88373 35.823L13.1007 40.0399L12.6205 40.5201C11.8967 41.2438 11.498 42.2062 11.498 43.2299C11.498 44.2535 11.8967 45.2159 12.6205 45.9397C13.0762 46.3954 13.6192 46.7112 14.196 46.889C13.8853 47.4497 13.7193 48.0828 13.7193 48.7418C13.7193 49.7654 14.1178 50.7278 14.8417 51.4515C15.5655 52.1754 16.5279 52.574 17.5515 52.574C18.4227 52.574 19.2489 52.2844 19.9221 51.7522C20.1059 52.2804 20.4082 52.7759 20.8294 53.1972C21.5532 53.9211 22.5156 54.3198 23.5392 54.3198C24.4392 54.3198 25.2916 54.0114 25.9763 53.4451C26.1641 53.9782 26.4701 54.4669 26.8816 54.8783C27.6287 55.6254 28.61 55.9989 29.5914 55.9989C30.5728 55.9989 31.5541 55.6254 32.3012 54.8783L33.7006 53.479L34.6791 54.4576C35.4263 55.2046 36.4076 55.5781 37.3889 55.5781C38.3702 55.5781 39.3516 55.2046 40.0987 54.4576C40.7082 53.8481 41.0858 53.0694 41.1904 52.2275C41.4053 52.2642 41.6225 52.2836 41.8401 52.2836C42.8215 52.2836 43.8028 51.9101 44.5499 51.1631C45.2738 50.4393 45.6725 49.4769 45.6725 48.4532C45.6725 48.4387 45.6716 48.4244 45.6714 48.4098C45.6852 48.4099 45.699 48.4108 45.7129 48.4108C46.6943 48.4108 47.6756 48.0373 48.4228 47.2903C49.1466 46.5664 49.5452 45.604 49.5452 44.5804C49.5452 44.3948 49.5317 44.2114 49.5059 44.0308C50.3755 43.9395 51.1815 43.5571 51.8083 42.9302C52.5322 42.2064 52.9309 41.2441 52.9309 40.2204C52.9309 39.1968 52.5322 38.2344 51.8083 37.5106L50.6514 36.3536C51.9316 34.6212 52.6638 32.5581 52.7544 30.3792L55.6792 27.4546C56.1063 27.0275 56.1063 26.3349 55.6791 25.9078C55.2522 25.4806 54.5597 25.4806 54.1326 25.9076ZM38.5522 52.9107C37.9108 53.5517 36.8674 53.5519 36.2261 52.9107L35.2579 51.9425L37.584 49.6164L38.138 50.1703L38.5524 50.5847C38.8629 50.8952 39.034 51.3082 39.034 51.7475C39.0339 52.1871 38.8627 52.6002 38.5522 52.9107ZM43.4851 48.4532C43.4851 48.8926 43.314 49.3057 43.0033 49.6163C42.362 50.2575 41.3186 50.2577 40.6772 49.6163L40.0993 49.0384C40.0992 49.0382 40.0991 49.0381 40.0988 49.038L39.1307 48.0698L41.4566 45.7437L43.0032 47.2903C43.314 47.6009 43.4851 48.0139 43.4851 48.4532ZM46.8761 45.7434C46.2347 46.3845 45.1912 46.3846 44.55 45.7434L43.0035 44.1968L45.3296 41.8708L46.8761 43.4173C47.1867 43.7279 47.3578 44.1409 47.3578 44.5803C47.3579 45.0198 47.1867 45.4328 46.8761 45.7434ZM50.2618 41.3833C49.9512 41.694 49.5381 41.8651 49.0988 41.8651C48.6596 41.8651 48.2465 41.694 47.9357 41.3833L46.8764 40.324L49.2025 37.9979L50.2618 39.0572C50.5724 39.3678 50.7436 39.7808 50.7436 40.2203C50.7435 40.6597 50.5724 41.0727 50.2618 41.3833Z" fill="#E9AAA6"/>
<path d="M12.9782 14.526C13.1833 14.7311 13.4615 14.8464 13.7516 14.8464H19.3966C23.4776 14.8464 27.4697 16.2632 30.6374 18.836L39.5249 26.054C37.3518 27.5716 34.4335 27.7791 32.0525 26.4895L26.005 23.2148C25.7486 23.0759 25.4469 23.0452 25.1674 23.1298C21.3479 24.2854 17.3067 24.296 13.4809 23.1598L13.3736 23.1281C12.7944 22.9564 12.1858 23.2866 12.0141 23.8657C11.8424 24.4448 12.1727 25.0535 12.7518 25.2252L12.8588 25.257C16.9481 26.4711 21.2597 26.5026 25.3587 25.3524L26.9347 26.2059L23.7285 29.4121C23.3014 29.8392 23.3014 30.5317 23.7286 30.959C23.9422 31.1725 24.2221 31.2793 24.502 31.2793C24.7819 31.2793 25.0619 31.1725 25.2754 30.959L28.9416 27.2926L31.011 28.4132C32.3834 29.1564 33.8867 29.5367 35.4214 29.5367C35.8717 29.5367 36.3249 29.5038 36.7782 29.438C38.7759 29.1472 40.5863 28.2389 42.0138 26.8114C42.2328 26.5923 42.3486 26.2908 42.3327 25.9814C42.3166 25.6722 42.1703 25.3842 41.9298 25.1889L33.1026 18.02C35.7345 16.3903 38.7414 15.5197 41.8536 15.4986C42.141 15.4966 42.4163 15.3815 42.6196 15.1782L55.6797 2.11826C56.1068 1.69115 56.1068 0.998593 55.6797 0.571377C55.2525 0.144488 54.5601 0.144488 54.1328 0.571377L41.3848 13.3195C37.7711 13.4291 34.2976 14.5535 31.2988 16.5824C27.8666 14.0465 23.6753 12.6589 19.3967 12.6589H14.2047L1.86721 0.321347C1.4401 -0.105651 0.747546 -0.105651 0.32033 0.321347C-0.106777 0.748454 -0.106777 1.44101 0.32033 1.86823L12.9782 14.526Z" fill="#E9AAA6"/>
<path d="M20.2476 32.8921C20.0442 33.0955 19.9282 33.3777 19.9282 33.6653C19.9282 33.9541 20.0442 34.2352 20.2476 34.4385C20.4521 34.642 20.7343 34.7591 21.022 34.7591C21.3096 34.7591 21.5907 34.6421 21.7953 34.4385C21.9987 34.2352 22.1157 33.954 22.1157 33.6653C22.1157 33.3777 21.9987 33.0955 21.7953 32.8921C21.5918 32.6886 21.3096 32.5716 21.022 32.5716C20.7333 32.5716 20.4521 32.6886 20.2476 32.8921Z" fill="#E9AAA6"/>
</svg>
