<svg width="56" height="56" viewBox="0 0 56 56" fill="none" xmlns="http://www.w3.org/2000/svg">
<path d="M53.4763 40.7921L45.1723 33.731C45.1339 33.6985 45.0933 33.6686 45.051 33.6417C42.8725 32.2548 40.0753 32.562 38.2488 34.3881L33.7213 38.9152C33.4077 39.2292 32.9398 39.3219 32.5297 39.1527C27.4173 37.0378 23.2174 33.854 20.0468 29.6905C17.629 26.5156 16.7575 23.9927 16.6425 23.6373C16.6289 23.5612 16.6071 23.4856 16.5763 23.4117C16.4067 23.0015 16.4994 22.5346 16.8139 22.221L21.341 17.6926C23.1674 15.8661 23.4742 13.0689 22.0874 10.8904C22.0763 10.8729 22.0647 10.8558 22.0528 10.8387L16.0559 2.50526C14.1692 -0.4218 10.0595 -0.863999 7.59304 1.60206L6.68642 2.50868C6.68599 2.50954 6.68514 2.51039 6.68428 2.51082L3.44747 5.74763C-0.412273 9.6078 -1.04374 15.4081 1.62185 22.5226C3.90505 28.6168 8.47573 35.2866 14.4918 41.3026C20.6501 47.4609 27.5001 52.1162 33.7798 54.411C39.9954 56.6818 46.607 56.9616 51.2866 52.2816L54.3393 49.2293C56.7947 46.7735 56.3662 42.6907 53.4763 40.7921ZM43.8171 35.4493L52.1138 42.5045C52.1518 42.5369 52.1924 42.5668 52.2347 42.5938C54.0069 43.7221 54.2752 46.2001 52.7923 47.6827L52.5658 47.9095L38.415 37.3147L39.7954 35.9347C40.8742 34.8555 42.5183 34.6602 43.8171 35.4493ZM14.2286 3.70711C14.2397 3.72462 14.2512 3.74214 14.2632 3.7588L20.2575 12.0892C21.0718 13.3928 20.8834 15.0569 19.7943 16.1459L18.4566 17.4841L8.88289 3.40547L9.13967 3.1487C10.6286 1.65974 13.1045 1.9413 14.2286 3.70711ZM34.53 52.3563C28.5435 50.1688 21.9763 45.6939 16.0384 39.756C10.2381 33.9561 5.8456 27.5632 3.66964 21.7553C2.03627 17.3956 0.940388 11.348 4.9941 7.29469L7.30849 4.97987L16.8822 19.0585L15.2677 20.6739C14.3491 21.5908 14.0603 22.9477 14.5187 24.156C14.8639 25.5727 16.4524 28.5134 18.055 30.6804C20.4134 33.8694 24.694 38.2781 31.6936 41.174C32.9236 41.6829 34.3263 41.4034 35.2679 40.4622L36.8526 38.8771L51.0034 49.472L49.74 50.7349C45.3945 55.0809 39.0704 54.0153 34.53 52.3563Z" fill="#E9AAA6"/>
</svg>
