<svg width="48" height="56" viewBox="0 0 48 56" fill="none" xmlns="http://www.w3.org/2000/svg">
<path d="M42.9105 43.8174C43.1319 42.6423 43.25 41.4453 43.25 40.25C43.25 36.9145 42.3785 33.6263 40.73 30.7396C39.5164 28.6134 38.875 26.1292 38.875 23.5576V15.75C38.875 7.54775 32.2022 0.875 24 0.875C15.7978 0.875 9.125 7.54775 9.125 15.75V23.5585C9.125 26.1082 8.46788 28.6178 7.22538 30.8166C5.50075 33.8695 4.6485 37.3459 4.7605 40.8704C4.79113 41.8399 4.91887 42.8225 5.10612 43.8025C2.14862 46.3908 0.375 50.1559 0.375 54.25V55.125H47.625V54.25C47.625 50.1637 45.8584 46.4056 42.9105 43.8174ZM6.50875 40.8144C6.40813 37.6101 7.18338 34.4514 8.74963 31.6776C10.14 29.2162 10.875 26.4093 10.875 23.5585V18.375V15.75C10.875 8.51288 16.7629 2.625 24 2.625C31.2371 2.625 37.125 8.51288 37.125 15.75V18.375V23.5576C37.125 26.4338 37.846 29.2171 39.211 31.6076C40.709 34.23 41.5 37.219 41.5 40.25C41.5 41.0419 41.4396 41.8346 41.3329 42.6195C40.5987 42.1409 39.8174 41.7183 38.9826 41.377L30.006 37.7038C29.0146 37.2995 28.375 36.3457 28.375 35.2747V34.6465C32.659 31.6864 35.3444 26.7873 35.3715 21.3894C36.4145 20.783 37.125 19.6656 37.125 18.375C37.125 16.9689 36.2955 15.757 35.0827 15.2023C35.2726 14.8348 35.375 14.4253 35.375 14C35.375 13.4172 35.1869 12.8642 34.8395 12.4101C34.7634 11.8431 34.5052 11.3181 34.0931 10.906C33.681 10.4948 33.1578 10.2366 32.5899 10.1614C31.6825 9.46575 30.3166 9.46575 29.4092 10.1614C28.8422 10.2366 28.3181 10.4948 27.906 10.9069C27.4939 11.319 27.2358 11.8431 27.1596 12.4101C26.8131 12.8642 26.625 13.4172 26.625 14C26.625 14.5828 26.8131 15.1357 27.1605 15.5899C27.2366 16.1569 27.4948 16.6819 27.9069 17.094C28.319 17.5052 28.8422 17.7634 29.4101 17.8386C29.8634 18.1869 30.4172 18.375 31 18.375C31.5828 18.375 32.1366 18.1869 32.5899 17.8386C33.1569 17.7634 33.681 17.5052 34.0931 17.0931C34.1885 16.9977 34.2743 16.8945 34.353 16.7878C34.9603 17.0651 35.375 17.6715 35.375 18.375C35.375 19.3401 34.5901 20.125 33.625 20.125H32.75C27.535 20.125 26.331 17.0109 25.8786 14.6703C25.7062 13.7751 24.9161 13.125 24 13.125C23.0839 13.125 22.2938 13.7742 22.1222 14.6694C21.669 17.0109 20.465 20.125 15.25 20.125H14.375C13.4099 20.125 12.625 19.3401 12.625 18.375C12.625 17.4099 13.4099 16.625 14.375 16.625C15.3401 16.625 16.125 17.4099 16.125 18.375H17.875C17.875 16.4447 16.3053 14.875 14.375 14.875C12.4447 14.875 10.875 16.4447 10.875 18.375C10.875 19.6656 11.5855 20.783 12.6285 21.3902C12.6556 26.7872 15.341 31.6864 19.625 34.6474V35.2756C19.625 36.3466 18.9854 37.2995 17.994 37.7055L9.01737 41.3779C8.18525 41.7183 7.4065 42.1391 6.67413 42.616C6.58925 42.0114 6.528 41.4094 6.50875 40.8144ZM9.68062 42.9966L12.625 41.7918V45.5C12.625 46.9473 13.8027 48.125 15.25 48.125H32.75C34.1973 48.125 35.375 46.9473 35.375 45.5V41.7926L38.3194 42.9975C38.5084 43.0745 38.6912 43.162 38.875 43.2477V53.375H9.125V43.2469C9.30875 43.1611 9.49162 43.0745 9.68062 42.9966ZM24 34.9492C18.4096 32.9613 14.627 27.7847 14.3969 21.875H15.25C20.0695 21.875 22.9596 19.5624 23.839 15.001C23.8679 14.854 24.1321 14.8549 24.1601 15.001C25.0404 19.5624 27.9305 21.875 32.75 21.875H33.6031C33.373 27.7847 29.5904 32.9613 24 34.9492ZM23.7235 36.7054L24 36.7972L24.2765 36.7054C25.1051 36.4289 25.8996 36.0911 26.6556 35.6965C26.7449 36.6292 27.1194 37.4911 27.7214 38.171C26.9321 39.4494 25.5295 40.25 24 40.25C22.4705 40.25 21.0679 39.4494 20.2786 38.171C20.8806 37.4911 21.2542 36.6292 21.3444 35.6965C22.0995 36.0903 22.8949 36.4289 23.7235 36.7054ZM30.0366 39.6077C30.0891 39.8169 30.125 40.0304 30.125 40.25C30.125 41.6973 28.9473 42.875 27.5 42.875C26.6539 42.875 25.8891 42.4664 25.4052 41.8206C26.9286 41.4601 28.2665 40.5361 29.1275 39.2166C29.2001 39.2508 29.2675 39.2936 29.3436 39.3242L30.0366 39.6077ZM18.6572 39.3242C18.7325 39.2936 18.8008 39.2508 18.8734 39.2166C19.7344 40.5361 21.0723 41.4601 22.5956 41.8206C22.1109 42.4664 21.3461 42.875 20.5 42.875C19.0527 42.875 17.875 41.6973 17.875 40.25C17.875 40.0304 17.9117 39.8169 17.9642 39.6077L18.6572 39.3242ZM16.1355 40.3559C16.1932 42.7184 18.1244 44.625 20.5 44.625C21.9158 44.625 23.1933 43.939 24 42.8566C24.8067 43.939 26.0842 44.625 27.5 44.625C29.8756 44.625 31.8067 42.7184 31.8645 40.3559L33.625 41.076V45.5C33.625 45.9821 33.233 46.375 32.75 46.375H15.25C14.767 46.375 14.375 45.9821 14.375 45.5V41.076L16.1355 40.3559ZM28.6314 14.6186C28.466 14.4533 28.375 14.2336 28.375 14C28.375 13.7664 28.466 13.5468 28.6314 13.3814L28.8877 13.125V12.7619C28.8877 12.5282 28.9788 12.3077 29.1441 12.1433C29.3086 11.9779 29.5291 11.8869 29.7627 11.8869H30.1259L30.3822 11.6296C30.7104 11.2998 31.2896 11.2998 31.6178 11.6296L31.8741 11.8869H32.2373C32.4709 11.8869 32.6914 11.9779 32.8559 12.1424C33.0204 12.3077 33.1123 12.5274 33.1123 12.7619V13.125L33.3686 13.3814C33.534 13.5468 33.625 13.7664 33.625 14C33.625 14.2336 33.534 14.4533 33.3686 14.6186L33.1123 14.875V15.2381C33.1123 15.4718 33.0212 15.6923 32.8559 15.8567C32.6914 16.0221 32.4709 16.1131 32.2373 16.1131H31.8741L31.6178 16.3704C31.2896 16.7002 30.7104 16.7002 30.3822 16.3704L30.1259 16.1131H29.7627C29.5291 16.1131 29.3086 16.0221 29.1441 15.8576C28.9796 15.6922 28.8877 15.4726 28.8877 15.2381V14.875L28.6314 14.6186ZM7.375 44.2426V53.375H2.15562C2.41987 49.6545 4.358 46.3172 7.375 44.2426ZM40.625 53.375V44.2426C43.642 46.3164 45.5801 49.6536 45.8444 53.375H40.625Z" fill="#E9AAA6"/>
</svg>
