<svg width="52" height="56" viewBox="0 0 52 56" fill="none" xmlns="http://www.w3.org/2000/svg">
<path d="M8.26666 23.3333H6.39999C5.88453 23.3333 5.46666 23.7512 5.46666 24.2666C5.46666 24.7821 5.88453 25.2 6.39999 25.2H8.26666C8.78213 25.2 9.2 24.7821 9.2 24.2666C9.2 23.7512 8.78213 23.3333 8.26666 23.3333Z" fill="#E9AAA6"/>
<path d="M13.8667 23.3333H12C11.4845 23.3333 11.0667 23.7512 11.0667 24.2666C11.0667 24.7821 11.4845 25.2 12 25.2H13.8667C14.3821 25.2 14.8 24.7821 14.8 24.2666C14.8 23.7512 14.3821 23.3333 13.8667 23.3333Z" fill="#E9AAA6"/>
<path d="M19.4667 23.3333H17.6C17.0846 23.3333 16.6667 23.7512 16.6667 24.2666C16.6667 24.7821 17.0846 25.2 17.6 25.2H19.4667C19.9822 25.2 20.4 24.7821 20.4 24.2666C20.4 23.7512 19.9822 23.3333 19.4667 23.3333Z" fill="#E9AAA6"/>
<path d="M25.0667 23.3333H23.2C22.6845 23.3333 22.2667 23.7512 22.2667 24.2666C22.2667 24.7821 22.6845 25.2 23.2 25.2H25.0667C25.5821 25.2 26 24.7821 26 24.2666C26 23.7512 25.5821 23.3333 25.0667 23.3333Z" fill="#E9AAA6"/>
<path d="M28.8 25.2H30.6667C31.1821 25.2 31.6 24.7821 31.6 24.2666C31.6 23.7512 31.1821 23.3333 30.6667 23.3333H28.8C28.2845 23.3333 27.8667 23.7512 27.8667 24.2666C27.8667 24.7821 28.2845 25.2 28.8 25.2Z" fill="#E9AAA6"/>
<path d="M34.4 25.2H36.2667C36.7821 25.2 37.2 24.7821 37.2 24.2666C37.2 23.7512 36.7821 23.3333 36.2667 23.3333H34.4C33.8845 23.3333 33.4667 23.7512 33.4667 24.2666C33.4667 24.7821 33.8845 25.2 34.4 25.2Z" fill="#E9AAA6"/>
<path d="M8.26666 50.4H6.39999C5.88453 50.4 5.46666 50.8179 5.46666 51.3333C5.46666 51.8488 5.88453 52.2666 6.39999 52.2666H8.26666C8.78213 52.2666 9.2 51.8488 9.2 51.3333C9.2 50.8179 8.78213 50.4 8.26666 50.4Z" fill="#E9AAA6"/>
<path d="M13.8667 50.4H12C11.4845 50.4 11.0667 50.8179 11.0667 51.3333C11.0667 51.8488 11.4845 52.2666 12 52.2666H13.8667C14.3821 52.2666 14.8 51.8488 14.8 51.3333C14.8 50.8179 14.3821 50.4 13.8667 50.4Z" fill="#E9AAA6"/>
<path d="M19.4667 50.4H17.6C17.0846 50.4 16.6667 50.8179 16.6667 51.3333C16.6667 51.8488 17.0846 52.2666 17.6 52.2666H19.4667C19.9822 52.2666 20.4 51.8488 20.4 51.3333C20.4 50.8179 19.9822 50.4 19.4667 50.4Z" fill="#E9AAA6"/>
<path d="M25.0667 50.4H23.2C22.6845 50.4 22.2667 50.8179 22.2667 51.3333C22.2667 51.8488 22.6845 52.2666 23.2 52.2666H25.0667C25.5821 52.2666 26 51.8488 26 51.3333C26 50.8179 25.5821 50.4 25.0667 50.4Z" fill="#E9AAA6"/>
<path d="M30.6667 50.4H28.8C28.2845 50.4 27.8667 50.8179 27.8667 51.3333C27.8667 51.8488 28.2845 52.2666 28.8 52.2666H30.6667C31.1821 52.2666 31.6 51.8488 31.6 51.3333C31.6 50.8179 31.1821 50.4 30.6667 50.4Z" fill="#E9AAA6"/>
<path d="M36.2667 50.4H34.4C33.8845 50.4 33.4667 50.8179 33.4667 51.3333C33.4667 51.8488 33.8845 52.2666 34.4 52.2666H36.2667C36.7821 52.2666 37.2 51.8488 37.2 51.3333C37.2 50.8179 36.7821 50.4 36.2667 50.4Z" fill="#E9AAA6"/>
<path d="M31.6 38.2666C32.1155 38.2666 32.5334 37.8488 32.5334 37.3333C32.5334 36.8179 32.1155 36.4 31.6 36.4C31.0846 36.4 30.6667 36.8179 30.6667 37.3333C30.6667 37.8488 31.0846 38.2666 31.6 38.2666Z" fill="#E9AAA6"/>
<path d="M40.5031 5.66814C38.9911 3.58423 36.0807 3.11112 33.9865 4.60881L32.0004 6.03961L21.3996 0.525476C19.1095 -0.660772 16.2913 0.231711 15.1015 2.52001L6.22547 19.6H5.46667C2.89062 19.6031 0.803089 21.6906 0.800003 24.2667V51.3333C0.803089 53.9094 2.89062 55.9969 5.46667 56H43.7333C46.3094 55.9969 48.3969 53.9094 48.4 51.3333V26.4385L49.2624 25.8169C51.3521 24.3118 51.8275 21.3983 50.3245 19.3069L40.5031 5.66814ZM24.3564 19.6L40.0775 8.27494L42.2624 11.3055L30.7479 19.6H24.3564ZM35.0767 6.12361C36.3343 5.22739 38.0791 5.5109 38.9883 6.75921L21.1625 19.6H16.3755L21.8728 15.6389L21.8859 15.6296L35.0767 6.12361ZM22.1892 3.04361L25.5072 4.76748L20.5652 14.28L13.8228 19.1333L22.1892 3.04361ZM23.9261 11.8599L27.1629 5.62894L30.3045 7.26134L23.9261 11.8599ZM16.76 3.38054C17.4735 2.00894 19.1615 1.47202 20.5363 2.17934L11.4801 19.6H8.32827L16.76 3.38054ZM36.2667 54.1333H5.46667C3.92027 54.1333 2.66667 52.8797 2.66667 51.3333V24.2667C2.66667 22.7203 3.92027 21.4667 5.46667 21.4667H37.2C38.7464 21.4667 40 22.7203 40 24.2667V32.6667H31.6C29.0227 32.6667 26.9333 34.756 26.9333 37.3333C26.9333 39.9107 29.0227 42 31.6 42H40V51.3333C40 52.8797 38.7464 54.1333 37.2 54.1333H36.2667ZM46.5333 40.1333H41.8667V34.5333H46.5333V40.1333ZM40 40.1333H31.6C30.0536 40.1333 28.8 38.8797 28.8 37.3333C28.8 35.7869 30.0536 34.5333 31.6 34.5333H40V40.1333ZM43.7333 54.1333H40.9091C41.5268 53.3303 41.8632 52.3465 41.8667 51.3333V42H46.5333V51.3333C46.5333 52.8797 45.2797 54.1333 43.7333 54.1333ZM46.5333 32.6667H41.8667V31.1472L46.5333 27.7872V32.6667ZM48.1732 24.3012L41.8667 28.8465V24.2667C41.8636 21.6906 39.7761 19.6031 37.2 19.6H33.9417L43.3535 12.8203L48.8097 20.3971C49.7104 21.6513 49.4256 23.398 48.1732 24.3012Z" fill="#E9AAA6"/>
</svg>
