<svg width="12" height="22" viewBox="0 0 12 22" fill="none" xmlns="http://www.w3.org/2000/svg">
<path d="M11.5629 0.00457747L8.78564 0C5.66548 0 3.64909 2.12509 3.64909 5.41423V7.91055H0.856681C0.615383 7.91055 0.419983 8.1115 0.419983 8.35937V11.9763C0.419983 12.2241 0.615606 12.4249 0.856681 12.4249H3.64909V21.5514C3.64909 21.7993 3.84449 22 4.08579 22H7.7291C7.9704 22 8.16579 21.799 8.16579 21.5514V12.4249H11.4308C11.6721 12.4249 11.8675 12.2241 11.8675 11.9763L11.8688 8.35937C11.8688 8.24036 11.8227 8.12638 11.7409 8.04215C11.6592 7.95793 11.5478 7.91055 11.4319 7.91055H8.16579V5.79439C8.16579 4.77727 8.40174 4.26094 9.69156 4.26094L11.5625 4.26025C11.8035 4.26025 11.9989 4.0593 11.9989 3.81166V0.453169C11.9989 0.205757 11.8038 0.00503522 11.5629 0.00457747Z" fill="#866663"/>
</svg>
