<svg width="28" height="28" viewBox="0 0 28 28" fill="none" xmlns="http://www.w3.org/2000/svg">
<path d="M20.0666 7.0667H21.8M8.79997 1.8667H19.2C23.0291 1.8667 26.1333 4.97086 26.1333 8.80003V19.2C26.1333 23.0292 23.0291 26.1334 19.2 26.1334H8.79997C4.9708 26.1334 1.86664 23.0292 1.86664 19.2V8.80003C1.86664 4.97086 4.9708 1.8667 8.79997 1.8667ZM14 19.2C11.1281 19.2 8.79997 16.8719 8.79997 14C8.79997 11.1282 11.1281 8.80003 14 8.80003C16.8719 8.80003 19.2 11.1282 19.2 14C19.2 16.8719 16.8719 19.2 14 19.2Z" stroke="#866663" stroke-width="2"/>
</svg>
