<svg width="22" height="21" viewBox="0 0 22 21" fill="none" xmlns="http://www.w3.org/2000/svg">
<path d="M4.26532 19.1973L4.93614 18.8619L4.93614 18.8619L4.26532 19.1973ZM17.7347 19.1973L18.4055 19.5327L18.4055 19.5327L17.7347 19.1973ZM1.93761 8.08334H20.0624V6.58334H1.93761V8.08334ZM19.5834 7.60427V8.18928H21.0834V7.60427H19.5834ZM17.5146 18.5833H4.48548V20.0833H17.5146V18.5833ZM2.41669 8.18928V7.60427H0.916687V8.18928H2.41669ZM4.93614 18.8619C3.27928 15.5481 2.41669 11.8941 2.41669 8.18928H0.916687C0.916687 12.127 1.83349 16.0107 3.5945 19.5327L4.93614 18.8619ZM4.48548 18.5833C4.67633 18.5833 4.85079 18.6912 4.93614 18.8619L3.5945 19.5327C3.76324 19.8702 4.10817 20.0833 4.48548 20.0833V18.5833ZM17.0639 18.8619C17.1492 18.6912 17.3237 18.5833 17.5146 18.5833V20.0833C17.8919 20.0833 18.2368 19.8702 18.4055 19.5327L17.0639 18.8619ZM19.5834 8.18928C19.5834 11.8941 18.7208 15.5481 17.0639 18.8619L18.4055 19.5327C20.1665 16.0107 21.0834 12.127 21.0834 8.18928H19.5834ZM20.0624 8.08334C19.7978 8.08334 19.5834 7.86885 19.5834 7.60427H21.0834C21.0834 7.04042 20.6263 6.58334 20.0624 6.58334V8.08334ZM1.93761 6.58334C1.37377 6.58334 0.916687 7.04042 0.916687 7.60427H2.41669C2.41669 7.86885 2.2022 8.08334 1.93761 8.08334V6.58334ZM6.30981 7.71921L10.3098 1.05254L9.02357 0.2808L5.02357 6.94747L6.30981 7.71921ZM11.6902 1.05254L15.6902 7.71921L16.9765 6.94747L12.9765 0.2808L11.6902 1.05254Z" fill="#866663"/>
</svg>
